<svg id="Vrstva_1" data-name="Vrstva 1" xmlns="http://www.w3.org/2000/svg" viewBox="0 0 50 50">
    <defs>
        <style >
            :root.dark{
            --cls-1-color:#D8D8D8;
            --cls-2-color:#BABABAd1;
            --cls-3-color:#D8D8D8;
            --cls-4-color:#D8D8D8;
            --cls-5-color:#BABABAd1;
            }
            :root{
            --cls-1-color:#282828;
            --cls-2-color:#fcfcfc;
            --cls-3-color:#282727;
            --cls-4-color:#2a2a2a;
            --cls-5-color:#fae897;
            }
            .cls-1{fill:var(--cls-1-color);}
            .cls-2{fill:var(--cls-2-color);}
            .cls-3{fill:var(--cls-3-color);}
            .cls-4{fill:var(--cls-4-color);}
            .cls-5{fill:var(--cls-5-color);}
        </style>
    </defs>
    <path class="cls-1"
          d="M41.88,22.62a28.08,28.08,0,0,0-.68-6.46,5.2,5.2,0,0,0-3-3.68,6.93,6.93,0,0,1-1-.7.33.33,0,0,1-.09-.39,3,3,0,0,0-.2-2.1,6.23,6.23,0,0,0-1.51-2.4,2.5,2.5,0,0,0-2.71-.48,5.27,5.27,0,0,1-3.11.29c-.58-.09-1.14-.25-1.72-.36a1.82,1.82,0,0,0-2.17.88c-.1.18-.23.25-.4.12a4.92,4.92,0,0,0-2.12-.82A8.43,8.43,0,0,1,21.63,6h-.21a1.25,1.25,0,0,0-.62.73.86.86,0,0,1-1.54.33,2.85,2.85,0,0,0-2.66-.79,7.16,7.16,0,0,0-2.85,1.07,3.62,3.62,0,0,0-1.41,3.54,2.2,2.2,0,0,0,0,.36.9.9,0,0,1-.55,1A6.12,6.12,0,0,0,10,13.68a7.24,7.24,0,0,0-1.8,4.23,41.65,41.65,0,0,0,0,4.87c0,1.2,0,2.41,0,3.61,0,2.87,0,5.73-.15,8.59,0,.08,0,.18-.07.22V36a10.31,10.31,0,0,1,.19,1.24,5.37,5.37,0,0,0,.72,1.85c.25.41.5.82.74,1.23a5.18,5.18,0,0,0,3.66,2.5c1.82.34,3.65.55,5.49.76a54.76,54.76,0,0,0,7,.34A53.8,53.8,0,0,0,35.64,43a7.39,7.39,0,0,0,5.41-4.07,6.45,6.45,0,0,0,.6-3.16c-.07-2.25.05-4.49.12-6.73S41.92,24.76,41.88,22.62Zm-9-14.48a1.92,1.92,0,0,1,2.58,1.54c.06.28.11.56.15.85a.43.43,0,0,1-.45.55c-.35,0-.71,0-1.07,0a5.22,5.22,0,0,1-1.25,0c-.38-.1-.58-.35-.47-.71A2.4,2.4,0,0,0,32.3,9C32.19,8.5,32.34,8.27,32.84,8.14Zm-.9,4.33a3.34,3.34,0,0,1,1.72,0,4.64,4.64,0,0,1,1,.33,2.13,2.13,0,0,1-2.9.51.35.35,0,0,1-.23-.37A.49.49,0,0,1,31.94,12.47Zm-1.33-3a8.4,8.4,0,0,1,.3.81c.06.21.05.45-.22.5s-.37-.17-.4-.39A1.45,1.45,0,0,1,30.61,9.49Zm-3-1.3a1.6,1.6,0,0,1,1-.19.35.35,0,0,1,.36.4c0,.54,0,1.09-.08,1.64s-.25.7-.75.7h-.25c-.76,0-.88-.12-.94-.88a1.87,1.87,0,0,0-.19-.69c-.09-.2-.17-.41-.26-.64A2.62,2.62,0,0,0,27.63,8.19Zm-1.32,4.47c.06-.17.23-.15.37-.14a4.08,4.08,0,0,0,.7,0,8.74,8.74,0,0,1,1.15,0,.57.57,0,0,1,.54.53c0,.32-.2.43-.45.51a2,2,0,0,1-2-.17,1.47,1.47,0,0,1-.31-.3A.46.46,0,0,1,26.31,12.66ZM20.82,8.92a5.86,5.86,0,0,1,1.65-1,.4.4,0,0,1,.24,0A4.75,4.75,0,0,1,24,8.4a.7.7,0,0,1,.33.92,5,5,0,0,1-.94,1.47c-.19.24-.48.14-.74.12s-.64,0-1,.06a.31.31,0,0,1-.39-.27,5.51,5.51,0,0,0-.53-1.54C20.68,9,20.75,9,20.82,8.92Zm3.31,3.52a3.19,3.19,0,0,1-3.71.31C21.63,12.21,22.88,12.61,24.13,12.44ZM15.84,8h.72A3.63,3.63,0,0,1,17.7,8a.5.5,0,0,1,.51.6,6.13,6.13,0,0,1-.41,1.74,1.2,1.2,0,0,1-1.39.76,4.74,4.74,0,0,0-1.63.16c-.59.18-.91,0-1-.65A2.19,2.19,0,0,1,15.84,8Zm2.13,5a2.43,2.43,0,0,1-2.67-.47,4.43,4.43,0,0,1,1.84-.18l.71.05c.16,0,.32,0,.36.22S18.13,13,18,13.06ZM40.09,37.15a5.44,5.44,0,0,1-3.17,3.69A13.33,13.33,0,0,1,32,42c-3.76.26-7.54.14-11.31.12q-2.86,0-5.72-.32a5.92,5.92,0,0,1-5-4.36,12.45,12.45,0,0,1-.26-4.55,44.1,44.1,0,0,0,.13-6.8c-.11-2.12-.33-4.23-.39-6.36a6.83,6.83,0,0,1,2.85-6.12c.64-.46,1-.45,1.54.08a4,4,0,0,0,4.18.73,2.38,2.38,0,0,1,1.41-.26,4.84,4.84,0,0,1,.66.28,4.33,4.33,0,0,0,4.09-.12,1,1,0,0,1,1.24.12,3.26,3.26,0,0,0,4.08.33,1.89,1.89,0,0,1,2-.13A3.55,3.55,0,0,0,35.53,14l.45-.4a1,1,0,0,1,1.41,0,3.88,3.88,0,0,1,1,1,11.49,11.49,0,0,1,1.76,4.46,17.36,17.36,0,0,1,0,2.39c0,1.38,0,2.77.05,4.15v2.08h0c0,2.33.09,4.66.11,7A9.93,9.93,0,0,1,40.09,37.15Z"/>
    <path class="cls-2"
          d="M40.22,27.68h0V25.6c0-1.38,0-2.77-.05-4.15a17.36,17.36,0,0,0,0-2.39A11.49,11.49,0,0,0,38.4,14.6a3.88,3.88,0,0,0-1-1,1,1,0,0,0-1.41,0l-.45.4a3.55,3.55,0,0,1-4.09.65,1.89,1.89,0,0,0-2,.13,3.26,3.26,0,0,1-4.08-.33,1,1,0,0,0-1.24-.12,4.33,4.33,0,0,1-4.09.12,4.84,4.84,0,0,0-.66-.28,2.38,2.38,0,0,0-1.41.26,4,4,0,0,1-4.18-.73c-.58-.53-.9-.54-1.54-.08a6.83,6.83,0,0,0-2.85,6.12c.06,2.13.28,4.24.39,6.36a44.1,44.1,0,0,1-.13,6.8,12.45,12.45,0,0,0,.26,4.55,5.92,5.92,0,0,0,5,4.36q2.85.3,5.72.32c3.77,0,7.55.14,11.31-.12a13.33,13.33,0,0,0,4.92-1.17,5.44,5.44,0,0,0,3.17-3.69,9.93,9.93,0,0,0,.24-2.49C40.31,32.34,40.26,30,40.22,27.68ZM23.41,32c-.05.74,0,1.48-.11,2.22A2.34,2.34,0,0,1,21,36.41c-.39,0-.78,0-1.17.07-1.23.15-2.47,0-3.7.11a1.91,1.91,0,0,1-2.17-1.25,2.92,2.92,0,0,1-.08-1.14,22.69,22.69,0,0,0,.08-3.4,2.9,2.9,0,0,1,.65-2.06c.14-.18.3-.34.44-.52a1.24,1.24,0,0,1,1.47-.49,9.11,9.11,0,0,0,2.71.1,9.28,9.28,0,0,1,2.52.22,2,2,0,0,1,1.7,2.21C23.42,30.84,23.41,31.43,23.41,32Zm12.42,2.41a2.08,2.08,0,0,1-1.76,1.94,16.18,16.18,0,0,1-3,.18c-.81,0-1.62,0-2.43.07a1.93,1.93,0,0,1-2.23-2.09,17,17,0,0,1,0-1.89c.11-1,0-2,.08-3.06a1.46,1.46,0,0,1,1.25-1.48,12.52,12.52,0,0,1,3.34-.29h.65v.12H34a1.1,1.1,0,0,1,.82.38,3.54,3.54,0,0,1,1,2.47A24.69,24.69,0,0,1,35.83,34.42Zm-1.5-8.26a16.11,16.11,0,0,1-3,.3c-2.59.15-5.18,0-7.28-.06-3.13,0-5.76-.17-8.4-.08a3.49,3.49,0,0,1-1,0,1.82,1.82,0,0,1-1.41-1.73c0-1.15,0-2.29.08-3.44a2.39,2.39,0,0,1,2.15-2.19,30,30,0,0,1,5.76-.15c3.32.19,6.64.18,10,.13.91,0,1.83,0,2.75,0a2.22,2.22,0,0,1,2.22,2.31,18.36,18.36,0,0,0,0,2.46A2.18,2.18,0,0,1,34.33,26.16Z"/>
    <path class="cls-2"
          d="M34.7,12.8a2.13,2.13,0,0,1-2.9.51.35.35,0,0,1-.23-.37.49.49,0,0,1,.37-.47,3.34,3.34,0,0,1,1.72,0A4.64,4.64,0,0,1,34.7,12.8Z"/>
    <path class="cls-2"
          d="M27.38,12.52a8.74,8.74,0,0,1,1.15,0,.57.57,0,0,1,.54.53c0,.32-.2.43-.45.51a2,2,0,0,1-2-.17,1.47,1.47,0,0,1-.31-.3.46.46,0,0,1,0-.44c.06-.17.23-.15.37-.14A4.08,4.08,0,0,0,27.38,12.52Z"/>
    <path class="cls-2" d="M20.42,12.75c1.21-.54,2.46-.14,3.71-.31A3.19,3.19,0,0,1,20.42,12.75Z"/>
    <path class="cls-2"
          d="M15.3,12.59a4.43,4.43,0,0,1,1.84-.18l.71.05c.16,0,.32,0,.36.22s-.08.3-.24.38A2.43,2.43,0,0,1,15.3,12.59Z"/>
    <path class="cls-3"
          d="M36.17,23.62a18.36,18.36,0,0,1,0-2.46A2.22,2.22,0,0,0,34,18.85c-.92,0-1.84,0-2.75,0-3.32.05-6.64.06-10-.13a30,30,0,0,0-5.76.15,2.39,2.39,0,0,0-2.15,2.19c-.09,1.15-.1,2.29-.08,3.44a1.82,1.82,0,0,0,1.41,1.73,3.49,3.49,0,0,0,1,0c2.64-.09,5.27,0,8.4.08,2.1.08,4.69.21,7.28.06a16.11,16.11,0,0,0,3-.3A2.18,2.18,0,0,0,36.17,23.62Zm-1.33-.25c-.1,1.17-.58,1.63-1.77,1.63H16.58c-.26,0-.52,0-.78,0a1.2,1.2,0,0,1-1.26-1.28c0-.58,0-1.16,0-1.75,0-1.1.46-1.53,1.56-1.65a19.58,19.58,0,0,1,2.54,0c1.85,0,3.7,0,5.55,0,1.61,0,3.23,0,4.84-.05,1.42,0,2.84,0,4.26-.07,1,0,1.5.37,1.57,1.41A11.89,11.89,0,0,1,34.84,23.37Z"/>
    <path class="cls-4"
          d="M35.87,30.77a3.54,3.54,0,0,0-1-2.47,1.1,1.1,0,0,0-.82-.38H31.72V27.8h-.65a12.52,12.52,0,0,0-3.34.29,1.46,1.46,0,0,0-1.25,1.48c-.07,1,0,2-.08,3.06a17,17,0,0,0,0,1.89,1.93,1.93,0,0,0,2.23,2.09c.81-.06,1.62,0,2.43-.07a16.18,16.18,0,0,0,3-.18,2.08,2.08,0,0,0,1.76-1.94A24.69,24.69,0,0,0,35.87,30.77Zm-1.35,2.86a1.53,1.53,0,0,1-1.69,1.56c-.65,0-1.31,0-2,0a12.5,12.5,0,0,0-1.93-.07,2.8,2.8,0,0,1-.57-.08.81.81,0,0,1-.7-.86c0-1.08,0-2.16,0-3.23a1.82,1.82,0,0,1,1.91-1.86,30.13,30.13,0,0,1,3.29,0,1.6,1.6,0,0,1,1.65,1.7Q34.58,32.24,34.52,33.63Z"/>
    <path class="cls-4"
          d="M21.71,28.05a9.28,9.28,0,0,0-2.52-.22,9.11,9.11,0,0,1-2.71-.1,1.24,1.24,0,0,0-1.47.49c-.14.18-.3.34-.44.52a2.9,2.9,0,0,0-.65,2.06,22.69,22.69,0,0,1-.08,3.4,2.92,2.92,0,0,0,.08,1.14,1.91,1.91,0,0,0,2.17,1.25c1.23-.1,2.47,0,3.7-.11.39,0,.78,0,1.17-.07a2.34,2.34,0,0,0,2.34-2.18c.12-.74.06-1.48.11-2.22,0-.58,0-1.17,0-1.75A2,2,0,0,0,21.71,28.05Zm.34,5.31a1.72,1.72,0,0,1-2,1.89c-1.2-.07-2.41,0-3.61,0-.87-.06-1.19-.33-1.23-1.2-.05-1-.07-2.08,0-3.11A1.69,1.69,0,0,1,17,29.17h1.82a14,14,0,0,1,1.65,0A1.62,1.62,0,0,1,22,30.78C22.06,31.64,22.08,32.5,22.05,33.36Z"/>
    <path class="cls-5"
          d="M24.58,25h-8c-.26,0-.52,0-.78,0a1.2,1.2,0,0,1-1.26-1.28c0-.58,0-1.16,0-1.75,0-1.1.46-1.53,1.56-1.65a19.58,19.58,0,0,1,2.54,0c1.85,0,3.7,0,5.55,0,1.61,0,3.23,0,4.84-.05,1.42,0,2.84,0,4.26-.07,1,0,1.5.37,1.57,1.41a11.89,11.89,0,0,1,0,1.79c-.1,1.17-.58,1.63-1.77,1.63H24.58Z"/>
    <path class="cls-2"
          d="M30.87,35.2a12.5,12.5,0,0,0-1.93-.07,2.8,2.8,0,0,1-.57-.08.81.81,0,0,1-.7-.86c0-1.08,0-2.16,0-3.23a1.82,1.82,0,0,1,1.91-1.86,30.13,30.13,0,0,1,3.29,0,1.6,1.6,0,0,1,1.65,1.7q.06,1.39,0,2.79a1.53,1.53,0,0,1-1.69,1.56C32.18,35.21,31.52,35.2,30.87,35.2Z"/>
    <path class="cls-2"
          d="M18.83,29.17a14,14,0,0,1,1.65,0A1.62,1.62,0,0,1,22,30.78c0,.86.07,1.72,0,2.58a1.72,1.72,0,0,1-2,1.89c-1.2-.07-2.41,0-3.61,0-.87-.06-1.19-.33-1.23-1.2-.05-1-.07-2.08,0-3.11A1.69,1.69,0,0,1,17,29.17Z"/>
</svg>