<svg id="Vrstva_1" data-name="Vrstva 1" xmlns="http://www.w3.org/2000/svg" viewBox="0 0 300 100"><defs><style>.cls-1{fill:#fefefe;}.cls-2{fill:#060606;}.cls-3{fill:#080808;}.cls-4{fill:#f2f2f2;}</style></defs><path class="cls-1" d="M234.76,61.87a.06.06,0,0,0,0,0h0v0Z"/><path class="cls-2" d="M138.94,70.81a24.52,24.52,0,0,0-4,1.4c-5.34,2.14-10.28,1.33-14.91-1.91a.67.67,0,0,1-.32-.8,15.23,15.23,0,0,1,1.51-4.34,1,1,0,0,1,.92-.57,31.15,31.15,0,0,0,7.29-1.29c6.51-2,11.61-5.71,14.59-11.95a35.51,35.51,0,0,0,3.18-15.13,37.72,37.72,0,0,0-2.46-13.61c-.17-.45-.32-.57-.79-.37A16.61,16.61,0,0,0,133.8,33.6c-.16.56-.33.56-.79.39a41.27,41.27,0,0,0-10-2.34,43.1,43.1,0,0,0-12.42.43.71.71,0,0,1-.86-.33,36.62,36.62,0,0,0-4.41-5.51,39.08,39.08,0,0,0-11.11-8c-.37-.18-.52-.11-.68.24-.39.84-.85,1.66-1.21,2.51-3.46,8.2-4.1,16.53-1,25a27.2,27.2,0,0,0,6.23,9.85c.13.13.44.26.32.48s-.43,0-.62,0A5.64,5.64,0,0,1,94.31,54a28.55,28.55,0,0,1-1.52-2.83,14.39,14.39,0,0,0-3.36-4.52c-5.18-4.5-11.32-5.72-17.92-4.84a27,27,0,0,0-13.67,6.47.6.6,0,0,1-.88.07,35.1,35.1,0,0,1-6-5,18.69,18.69,0,0,1-5.42-12.82c-.06-2.71.2-5.41.15-8.11-.06-3.29-1.09-6.07-3.88-8A17.87,17.87,0,0,0,39.06,13h-1.4a5,5,0,0,0-2.73,3.51,16.6,16.6,0,0,0-.64,3.5,37.94,37.94,0,0,0,1,11.73,36.1,36.1,0,0,0,10,18.38,39.56,39.56,0,0,0,6.52,5.16c.37.23.5.4.32.87a17.6,17.6,0,0,0-.88,3.59c-.07.4-.18.48-.58.37-1.55-.43-3.11-.84-4.67-1.21a4.07,4.07,0,0,0-4.32,1.47,8.49,8.49,0,0,0-1,1.52A22.74,22.74,0,0,0,39,67.06a4.1,4.1,0,0,0,.88,3.8,6.71,6.71,0,0,0,3.71,2.35,3,3,0,0,0,3.83-1.92c.18-.4.37-.8.57-1.19a1,1,0,0,1,.84-.55,1.16,1.16,0,0,1,1,.41c.26.27,0,.53-.12.75a14.82,14.82,0,0,1-1,1.67,5.59,5.59,0,0,1-5.85,2.43c-1.22-.22-2.42-.5-3.64-.72-1.64-.29-2.06-.08-2.87,1.38a6.53,6.53,0,0,0-.37.75,25.49,25.49,0,0,0-1.59,11.11c.11,2,1.26,2.72,2.82,3.15a6.52,6.52,0,0,0,2.78.13,5.74,5.74,0,0,0,5.11-4.14c.13-.42.28-.84.42-1.25.81-2.37,2.17-3.22,4.64-2.93a.34.34,0,0,1,0-.1C49.08,81.46,48,80.67,46.92,80a1.63,1.63,0,0,0-2.53.85A6,6,0,0,0,44,82.25c-.25,1.17-.36,2.35-.69,3.5-.85,3-3.43,4.14-6.25,2.82a2.54,2.54,0,0,1-1.76-2.91,53.92,53.92,0,0,1,.94-6.07,11.65,11.65,0,0,1,1-3.21,2,2,0,0,1,2.91-1,3.65,3.65,0,0,0,1.73.39c1.38,0,2.79.33,4.13,0,2.93-.77,6.58-3.35,6.11-8A20.64,20.64,0,0,1,55.84,53a25.28,25.28,0,0,1,10.77-8.34A15.47,15.47,0,0,1,74.32,43a40.48,40.48,0,0,1,5.94,1.25,15.9,15.9,0,0,1,10.63,8.3c.68,1.27,1.42,2.52,2.16,3.76a4.66,4.66,0,0,0,4,2.61,32.58,32.58,0,0,0,3.28-.14,1.49,1.49,0,0,1,1,.27,32.44,32.44,0,0,0,17.47,5.62c.8,0,.79,0,.6.78a34.47,34.47,0,0,0-1.31,7.41,4.88,4.88,0,0,0,3,4.86,16,16,0,0,0,7.74,1.56c1-.05,2-.17,3-.24a8.37,8.37,0,0,1,6,1.91,2.5,2.5,0,0,1,.45,3.82,7.77,7.77,0,0,1-5.24,3,27.32,27.32,0,0,1-7.61-.15c-4.82-.63-9.08-2.42-12.36-6.16a8.22,8.22,0,0,0-3-2.21,2.44,2.44,0,0,0-2.68.32,6.76,6.76,0,0,1-3.51,1.45,16.53,16.53,0,0,1-3.85,0q-8.62-.94-17.26-1.93a2.13,2.13,0,0,1-.67-.17c-2.24-1-4.47-2.1-6.71-3.13-.53-.24-.86-.39-.31-1s.18-1.42-.6-1.85a1,1,0,0,0-1.67.61,4.73,4.73,0,0,0-.33,1.21,9.32,9.32,0,0,1-3.19,6c-3.33,3.1-7.19,4.7-11.82,4-.35,0-.69-.1-1-.17a1.51,1.51,0,0,0-1,0,29.33,29.33,0,0,0,4.8,2.07,7.94,7.94,0,0,0,8.63-2.24,21,21,0,0,0,3.92-6.48c.27-.65.51-1.31.77-2,.45.26.82.5,1.22.7a52.51,52.51,0,0,0,8.6,3.27,61,61,0,0,0,26.43,2.36,1.36,1.36,0,0,1,1,.25,38.42,38.42,0,0,0,4.46,2.75,33.67,33.67,0,0,0,19,4c4.88-.43,6.23-4,5.86-7.3-.06-.53,0-.71.5-.9a4.67,4.67,0,0,0,3.18-3.36,6.7,6.7,0,0,0-1-5.27A3.42,3.42,0,0,0,138.94,70.81Zm-88-9.06a52.42,52.42,0,0,0-.51,6.13c0,.44-.07.58-.54.32-1-.58-1.54-.44-2.28.47a9.86,9.86,0,0,0-1.42,2.4,1.76,1.76,0,0,1-2.38,1.21,5.07,5.07,0,0,1-4-4.7A12.58,12.58,0,0,1,42.61,61a3.34,3.34,0,0,1,3.68-1c1.47.46,2.93.93,4.4,1.37C51,61.4,51,61.52,50.94,61.75Zm4.94-11.58A16,16,0,0,0,53.1,54c-.2.4-.35.41-.72.2A28.63,28.63,0,0,1,41.85,44.09a44.33,44.33,0,0,1-5-12.88c-.29-1.17-.71-2.32-1-3.49a23.45,23.45,0,0,1-.29-5.09,24.31,24.31,0,0,1,.13-3.91,4.77,4.77,0,0,1,2-3.09,2.68,2.68,0,0,1,3.77.41A7.46,7.46,0,0,1,43,19.81a92.71,92.71,0,0,1,1.55,11.64c.31,3.48.88,6.87,2.77,9.92a21.81,21.81,0,0,0,5.93,6.25c.84.6,1.68,1.19,2.54,1.75C56.16,49.62,56.25,49.79,55.88,50.17Zm42,6.26a.12.12,0,0,1,0-.08l0-.05,0,.09Zm5.91,3A22.58,22.58,0,0,1,95,49.9a36.45,36.45,0,0,1-4.4-15A20.68,20.68,0,0,1,94.7,21.25c.3-.41.49-.47.93-.21a35.37,35.37,0,0,1,12.6,12,1.1,1.1,0,0,0,1.12.6c1.89-.09,3.77-.34,5.64-.59a35,35,0,0,1,14.39,1.34c1.44.4,2.89.75,4.33,1.14a.7.7,0,0,0,.94-.41,28.67,28.67,0,0,1,8.66-9.28c.35-.26.49-.31.58.23a48.92,48.92,0,0,1,.65,8.14A55.36,55.36,0,0,1,143,47.07a20.78,20.78,0,0,1-15.42,15.27A30.19,30.19,0,0,1,103.82,59.39Zm36.24,20.37c-.31.28-.46.29-.72-.1-.9-1.39-2.36-1.78-3.88-2.07a17.06,17.06,0,0,0-6,.31,10.52,10.52,0,0,1-8.12-2,4.66,4.66,0,0,1-1.88-4.65A9.26,9.26,0,0,0,122.69,74a13,13,0,0,0,7,.77,45.09,45.09,0,0,0,9-2.21c2.16-.7,3.25.12,3.36,2.39A5.73,5.73,0,0,1,140.06,79.76Z"/><path class="cls-3" d="M253,66.09a9.76,9.76,0,0,0-9.48-6.85,18.49,18.49,0,0,0-8.59,2.44c-.06,0-.22,0-.16.19-.17-.11-.28.07-.38.14a8.93,8.93,0,0,0-2.83,2.57c-3.21,4.62-3.28,9.41-.61,14.26a10.66,10.66,0,0,0,7.4,5.68,17,17,0,0,0,5.78-.07A10.5,10.5,0,0,0,253.23,77a15.06,15.06,0,0,0,.65-3.84V70.45A17.51,17.51,0,0,0,253,66.09Zm-1.12-1.72c-.14.2-.35,0-.54.12,1.29.36.95,1.57,1.36,2.39l-.24.16A8.94,8.94,0,0,1,251,64.68c-.12-.46-.35-.45-.56-.63a4,4,0,0,1-.39-.29,11.7,11.7,0,0,0-7.38-3.27l-.2-.05a.33.33,0,0,1,0-.06C244.34,58.82,249.94,61.18,251.87,64.37Zm-16.64,2.11h0a1,1,0,0,1,.13-.16.93.93,0,0,1,.14-.14A1.4,1.4,0,0,1,236,66a.47.47,0,0,1,.17,0,8,8,0,0,1,1.3,0,7,7,0,0,1,1.58.45c-.58.59-1.11,1.13-2,1a5.26,5.26,0,0,0-1,0c-.93,0-.93,0-.79-.91Zm.93,7.77c-.27,0-.35-.14-.13-.34s.72-.65,1.09-1a.33.33,0,0,1,.25-.07,29.35,29.35,0,0,1,4.5,2.13ZM240,76.37c-1.67,1-2.09.94-3.14-.77Zm-4.09-8.08a.24.24,0,0,0-.08-.09l-.05,0c-.13-.1-.27-.18-.14-.38s.48-.09.72-.09a6.93,6.93,0,0,1,.88.13,1.18,1.18,0,0,1-.2.28l-.12.1-.19.1a.83.83,0,0,1-.21.06,2.32,2.32,0,0,1-.59,0h0A.19.19,0,0,0,235.89,68.29Zm0,.09a.41.41,0,0,1,.11.07.27.27,0,0,1,.08.07.22.22,0,0,1,.08.15.22.22,0,0,1-.06.14.83.83,0,0,1-.19.15,11.89,11.89,0,0,0-1,.7C234.8,68.26,234.8,68.26,235.91,68.38Zm0,1.46c.2-.22.47-.39.67-.61a.82.82,0,0,1,1-.22l2.59,1.07c-.88.6-1.64,1.17-2.46,1.67-.52.32-1-.15-1.49-.28-.06,0-.1-.09-.16-.13-.32-.2-.92-.23-.95-.59S235.62,70.14,235.9,69.84Zm11,1.45c0,.32.23.77-.1.95s-.62-.21-.92-.38a34,34,0,0,0-3.38-1.49c-.14-.07-.36-.07-.37-.26s.21-.22.35-.29a5.29,5.29,0,0,0,.76-.34,2.2,2.2,0,0,1,3,.27A1.52,1.52,0,0,1,246.94,71.29Zm0-5.19a1.19,1.19,0,0,1,.54,1,.2.2,0,0,1-.18.24c-.15,0-.21-.06-.23-.19C247,66.85,247,66.53,246.91,66.1Zm-4.27.82a12,12,0,0,1,3.26.73C244.51,68.33,243.67,67.25,242.64,66.92Zm.29,1.56c0,.08,0,.15,0,.22l-1.87.9a.7.7,0,0,1-.55,0l-2.6-.8c-.13,0-.31,0-.33-.21s.15-.28.29-.35a2,2,0,0,1,1.13-.31C240.33,68.1,241.63,68.3,242.93,68.48Zm-7.24,5a5.79,5.79,0,0,1-.53-1.6c.59.09,1.18.26,1.38.71C236.65,72.87,236,73.16,235.69,73.51Zm.19,2.28c-.36-.05-.53-.29-.75-.45s-.31-.16-.15-.37.33-.11.48,0A1,1,0,0,1,235.88,75.79ZM238,72.22c1-.55,1.8-1,2.64-1.48a1.21,1.21,0,0,1,1.14,0L247,73.07c-1,.54-1.9,1.06-2.82,1.5-.42.21-.88-.06-1.27-.22C241.27,73.69,239.69,73,238,72.22Zm8.77,2c-.08,1.31-.14,1.35-1.44,1A5.88,5.88,0,0,1,246.73,74.21Zm0,2.76c.12-.47.33-.72.82-.32a1.38,1.38,0,0,1-.69.42l-.13.06Zm.8-1a4.47,4.47,0,0,1,1.38-.22C248.47,76.35,248.17,76.4,247.53,76Zm-.13-3.42c0-.45-.06-.91-.08-1.37,0-.17,0-.35,0-.57A1.42,1.42,0,0,1,247.4,72.54Zm0-7.73a3.11,3.11,0,0,1,.9.71C247.74,65.52,247.42,65.41,247.37,64.81Zm1.73,2.07c-1,.47-1.21.38-1.28-.62A4.34,4.34,0,0,1,249.1,66.88Zm-.57-2.49a1.21,1.21,0,0,1,1.47.47c.41.54.85,1,1.28,1.57.08.1.23.2.12.35s-.24.11-.38.08-.33,0-.45-.18-.25-.27-.38-.41Zm.55-.38c-.08.19-.29.1-.44.12a2.35,2.35,0,0,1-1.58-.41c-1.42-.91-2.86-1.79-4.44-2.77a5.22,5.22,0,0,1,2.33.42,11.66,11.66,0,0,1,3.89,2.28C249,63.74,249.17,63.81,249.08,64Zm-3.29.39a2.35,2.35,0,0,1-1.15,0C245.36,64,245.45,63.94,245.79,64.4Zm.34,1.29c.33.13.28.39.35.62s.1.54.18,1c-1.24-.66-2.57-.63-3.77-1.1A3.38,3.38,0,0,1,246.13,65.69Zm-4.71.19c0-.06,0-.12-.07-.19.59-.27,1.07-.81,1.86-.57ZM242,67.6l-1.95-.16C240.68,66.78,241.16,66.8,242,67.6Zm-2.54-2.12a22,22,0,0,0-2.62-.27,14.08,14.08,0,0,1,4.32-.36A1.76,1.76,0,0,1,239.46,65.48Zm-4.35,1c-.22.3-.08.85-.6,1a3.73,3.73,0,0,1-2.38-.22,10.8,10.8,0,0,1,2.75-1.09l.13,0,.08,0a.16.16,0,0,1,0,.07.09.09,0,0,1,0,.07.38.38,0,0,0,.06.22S235.12,66.45,235.11,66.47Zm0,6.93c-.08.28,0,.56-.31.48a6.52,6.52,0,0,1-1.79-.55c-.28-.16-.43-.33-.08-.62s.82-.76,1.23-1.15c.12-.12.26-.25.36,0A16.44,16.44,0,0,0,235.09,73.4Zm-1.5,1.52c0,.29-.11.56-.49.27s-.55-.35-.8-.56-.57-.34-.43-.62.49-.14.76-.2A1.39,1.39,0,0,1,233.59,74.92Zm-.51,2.46c.61-.86.59-.87,1.58-.48l1.34.56s.06.07.17.19c-1,.07-1.9.56-2.9.29C232.92,77.85,232.82,77.73,233.08,77.38Zm4.61.82c.31,0,.55.22.81.38l1.85,1.19c-2.46,1.27-4.49.38-6.66-1C235.15,78.54,236.42,78.35,237.69,78.2Zm2.2-.71c2.09-.77,4-2,6.37-1.21-.37,1.29-.81,1.66-2.11,1.62s-2.38-.11-3.56-.16A1,1,0,0,1,239.89,77.49Zm8.58,2,.14,0c0,.09,0,.08-.09.09a5.68,5.68,0,0,1-4.3,2.08,17.25,17.25,0,0,1-3.77-.35C243,80.28,245.9,80.56,248.47,79.52ZM245,79.34c1.38-1.43,3.36-1.43,5.06-2.11A6.59,6.59,0,0,1,245,79.34Zm4.23-2.79c.45-.36.88-.71,1.33-1,.13-.09.32-.29.47-.08a.55.55,0,0,1,0,.59A1.73,1.73,0,0,1,249.21,76.55Zm1-1.48a6.08,6.08,0,0,1-1.85.3c-.21-.12-.7.27-.8-.21a2.11,2.11,0,0,1,.48-1.48s.22,0,.31,0c.64.28,1.27.58,1.9.87.12.06.27.12.23.3S250.32,75.05,250.2,75.07Zm-1.55-1.75c-.11-.08-.45-.15-.16-.38s.54-.74.79-.48a4.74,4.74,0,0,1,1.15,2Zm-.38-3a.58.58,0,0,1,0-.54c.11-.18.29,0,.43,0l1.87.53-.49.42C249.09,71.59,248.82,71.52,248.27,70.36Zm1.9-.45a6.79,6.79,0,0,0-1.48-.61c-.53-.16-.57-.53-.58-.93s.08-.39.33-.44a7.93,7.93,0,0,1,1.63-.31c.7,0,.78.84,1.19,1.26a.49.49,0,0,1,0,.74C251,70,250.67,70.18,250.17,69.91Zm.86-2.65c.83.08,1.11.46,1.05,1.53Zm-9.3-5.66a7.81,7.81,0,0,1-2.23-.16C240.19,60.94,240.82,61,241.73,61.6Zm-3.1.31a1.13,1.13,0,0,1,.66-.21A12.41,12.41,0,0,1,244.46,63a3.68,3.68,0,0,1,.62.46c-2.81,1-5.76.23-8.71.82A9.09,9.09,0,0,1,238.63,61.91Zm-.91,0a8.2,8.2,0,0,1-2,2.46c-.35.24-.76.5-1.22.18h0c.62-.65,1.22-1.29,1.85-1.92a3.37,3.37,0,0,1,1.37-1C237.7,61.83,237.74,61.91,237.72,62Zm-3.42.45a.23.23,0,0,1,.07-.07l0,0c.12-.09.26-.16.32-.28a.3.3,0,0,0,0-.1c.63,0,1.12-.48,1.76-.49a5.36,5.36,0,0,1-2.31,1.08A.43.43,0,0,1,234.3,62.4Zm1.92-.23A10.67,10.67,0,0,0,234.68,64c-.1.18-.35.32-.23.59a1.14,1.14,0,0,1-.16.15l-.15.13A12.61,12.61,0,0,1,232,66,7.11,7.11,0,0,1,236.22,62.17ZM231.71,68a5,5,0,0,1,2.41,0c.4.11.63.29.51.66-.2,2-.13,2-1.77,1l-1.3-.8c-.19-.11-.36-.23-.31-.49A.54.54,0,0,1,231.71,68Zm1.37,2.71c.25.18.36.37,0,.55a.93.93,0,0,0-.21.19c-.89.87-.89.87-1.39-.28a3.57,3.57,0,0,1-.39-1.89Zm-3,.92a14.64,14.64,0,0,1,.2-2.07c.25,1.09.71,2.09,1.06,3.14C230.49,72.69,230.12,72.39,230.13,71.58Zm1.52,3.3.82.75c.66.62.64.78-.15,1.4a12.91,12.91,0,0,0-1.38-2.32C231.25,74.54,231.45,74.71,231.65,74.88Zm.62,4.41c-.06-.16-.17-.36,0-.5s.31,0,.44.18c.54.54,1.1,1,1.75,1.66A2.12,2.12,0,0,1,232.27,79.29Zm2.18,2.26a1.39,1.39,0,0,1,1.42.17,15.08,15.08,0,0,0,5.44,2.3A9.9,9.9,0,0,1,234.45,81.55ZM243,83.4c-.45.18-1-.09-1.5-.19a10.62,10.62,0,0,1-4-1.8,40.6,40.6,0,0,0,7.73.76A18.35,18.35,0,0,1,243,83.4Zm6.67-2c-.92.62-1.91,1.15-2.89,1.69a4.86,4.86,0,0,1-2.29.51c-.07,0-.16,0-.18,0s0-.09.07-.11a20.85,20.85,0,0,0,7-6.17c.37-.53.71-1.08,1.07-1.63C252.88,78,251.24,80.32,249.7,81.37ZM251.35,75a3.73,3.73,0,0,1,1.19-1.27A1.38,1.38,0,0,1,251.35,75Zm.74-1.43c-1.11,1-1.11,1-1.81-.32-.86-1.54-.75-1.86.9-2.66a3.13,3.13,0,0,1,.48-1,4.18,4.18,0,0,1,.59,1.07c.11.22,0,.35-.22.35C253.17,71.9,253.19,72.62,252.09,73.57Z"/><path class="cls-3" d="M167.17,71.4c0,.29-.21.32-.43.34a17,17,0,0,0-4.21,1c-.21.08-.47.15-.57-.17s.15-.41.37-.48a16.5,16.5,0,0,1,4.42-1C166.9,71.08,167.16,71.05,167.17,71.4Z"/><path class="cls-3" d="M175,73.53c-.16.26-.39.16-.6,0a14.18,14.18,0,0,0-3.43-1.5l-.6-.16a.31.31,0,0,1-.27-.4c0-.26.23-.25.46-.24a14,14,0,0,1,4.31,1.79A.33.33,0,0,1,175,73.53Z"/><path class="cls-3" d="M193,68.3l-1.81,2.13c-.28.35-.53.71-.8,1.07a.66.66,0,0,1-.44.33c-.28-.06-.41-.28-.26-.51a27.67,27.67,0,0,1,2.9-3.58.32.32,0,0,1,.5,0C193.31,68,193.16,68.14,193,68.3Z"/><path class="cls-3" d="M199.34,62.9a.55.55,0,0,1-.36.45,27.27,27.27,0,0,0-3.23,2.33c-.19.16-.41.4-.65.13s0-.47.19-.64a26.61,26.61,0,0,1,3.4-2.44c.16-.1.34-.19.51-.07S199.31,62.85,199.34,62.9Z"/><path class="cls-3" d="M188.36,74.63a42.18,42.18,0,0,0-2,3.83.37.37,0,0,1-.41.25c-.24-.06-.35-.22-.23-.5a42.3,42.3,0,0,1,2.06-3.95.36.36,0,0,1,.53-.17C188.54,74.24,188.48,74.43,188.36,74.63Z"/><path class="cls-3" d="M206.84,60.3c0,.21-.13.33-.35.36a18.93,18.93,0,0,0-4.17,1.07c-.21.08-.43.07-.52-.18s.06-.39.28-.47a18.83,18.83,0,0,1,4.3-1.08C206.63,60,206.81,60.06,206.84,60.3Z"/><path class="cls-3" d="M214.76,60.66c-.07.43-.43.29-.67.24a24.65,24.65,0,0,0-3.82-.41c-.29,0-.69.07-.66-.39s.42-.27.68-.29a1.94,1.94,0,0,1,.34,0,28.88,28.88,0,0,1,3.61.4C214.5,60.28,214.81,60.3,214.76,60.66Z"/><path class="cls-3" d="M222.27,63.32c0,.27-.25.35-.53.21a31.43,31.43,0,0,0-4-1.7c-.2-.07-.32-.18-.27-.42a.3.3,0,0,1,.43-.22A24.45,24.45,0,0,1,222.1,63,.33.33,0,0,1,222.27,63.32Z"/><path class="cls-3" d="M159.43,74c0,.26-.19.33-.34.43A16.58,16.58,0,0,0,156,77.09c-.17.19-.38.44-.64.2s0-.5.15-.7a18.51,18.51,0,0,1,3.25-2.74c.17-.11.34-.26.57-.12A.28.28,0,0,1,159.43,74Z"/><path class="cls-3" d="M181.07,79.05c-.26.25-.46.06-.63-.15a29.48,29.48,0,0,0-3-3.11c-.15-.13-.26-.28-.16-.48s.15-.15.21-.2a.78.78,0,0,1,.52.28,27.59,27.59,0,0,1,3,3.06C181.11,78.63,181.31,78.82,181.07,79.05Z"/><path class="cls-3" d="M185,81.72c-.23.66-.43,1.33-.68,2-.14.36-.43.37-.63.07-.37-.59-.7-1.21-1-1.82a.34.34,0,0,1,.07-.5c.23-.16.4,0,.52.15l.68,1.12c.17-.47.32-.83.45-1.21s.24-.35.48-.26S185.06,81.52,185,81.72Z"/><path class="cls-3" d="M227,66.48a.33.33,0,0,1-.49,0l-1.7-1.22a.37.37,0,0,1-.17-.42.27.27,0,0,1,.32-.2c.21,0,.35.13.49.23.49.35,1,.71,1.46,1.08C227,66.12,227.13,66.29,227,66.48Z"/><path class="cls-3" d="M153.78,79.9c-.36.75-.74,1.48-1.13,2.21,0,0-.11.06-.17.09-.28,0-.42-.17-.35-.4a9.59,9.59,0,0,1,1.05-2.1.29.29,0,0,1,.37-.12C153.69,79.64,153.83,79.79,153.78,79.9Z"/><path class="cls-3" d="M54.26,84a14.14,14.14,0,0,1-3.55-1.52A13,13,0,0,1,54.26,84Z"/><path class="cls-1" d="M54.92,84.32h0c-.17,0-.36,0-.35-.3C54.8,84,54.89,84.11,54.92,84.32Z"/><path class="cls-3" d="M50.39,82.3h-.24a.34.34,0,0,1,0-.1Z"/><path class="cls-1" d="M54.92,84.32l.06,0-.07,0Z"/><path class="cls-1" d="M97.91,56.3l0,.09,0,0a.12.12,0,0,1,0-.08Z"/><path class="cls-4" d="M235.22,66.48s0,0,0,0a0,0,0,0,0,0,0Z"/><path class="cls-4" d="M235.89,68.36h0Z"/><path class="cls-4" d="M235.89,68.36h0v0Z"/><path class="cls-2" d="M125.55,59.2c-.11.34-.46.37-.76.39a3.51,3.51,0,0,1-3.45-1.68c-.37-.59-.64-1.24-1-1.86-.55-1-1.18-1.14-2-.3-.52.53-1,1.11-1.55,1.61a2,2,0,0,1-2.15.4c-.3-.1-.6-.24-.64-.58s.23-.5.48-.64l1.6-.85c2.32-1.25,2.67-2.61,1.27-4.84a21.09,21.09,0,0,0-2-2.45A3.2,3.2,0,0,1,119,48a1.64,1.64,0,0,0,2-.11,1.36,1.36,0,0,1,1.52-.06,4.72,4.72,0,0,1,1.62,1.23,7.55,7.55,0,0,0-2.13,2.67,3.59,3.59,0,0,0,1,4.87c.69.63,1.43,1.2,2.14,1.81C125.38,58.64,125.67,58.85,125.55,59.2Z"/><path class="cls-2" d="M111.2,45.43c0,.88-.2,1.07-1.09.93a17.37,17.37,0,0,1-2.86-.63c-.76-.24-.88-.64-.45-1.32A3.29,3.29,0,0,1,108.59,43C110,42.58,111.2,43.7,111.2,45.43Z"/><path class="cls-2" d="M132.25,46.36a15.9,15.9,0,0,1-3.27.71c-.56.06-.77-.24-.77-1a3.14,3.14,0,0,1,.43-1.47,1.7,1.7,0,0,1,2.13-.87,3.2,3.2,0,0,1,1.88,1.46C133,45.77,132.9,46.13,132.25,46.36Z"/></svg>