<svg id="Vrstva_1" data-name="Vrstva 1" xmlns="http://www.w3.org/2000/svg" viewBox="0 0 300 100"><defs><style>.cls-1{fill:#050505;}.cls-2{fill:#080808;}.cls-3{fill:#0f0f0f;}.cls-4{fill:#f2f2f2;}</style></defs><path class="cls-1" d="M182.84,86.26a9.52,9.52,0,0,0-6.49-5.64c-.56-.16-.71-.39-.69-1,.16-4,.28-8,.41-12,0-.27,0-.53,0-.79,0-.94.09-1.87.15-2.8.19-3,.26-5.93.38-8.9.24-6.3.62-12.59.56-18.9a17.89,17.89,0,0,0-1.45-7.87,27.26,27.26,0,0,0-10.22-10.94,43.7,43.7,0,0,0-20.24-6.81,30.53,30.53,0,0,0-13.46,1.62,15.2,15.2,0,0,0-9.62,9.48,44.78,44.78,0,0,0-1.57,5.34c-2,9.24-2.84,18.65-4,28-.21,1.69.06,3.48-.8,5.08a.42.42,0,0,0,.07.39c.26.24.14.51.12.77-.47,5.56-.86,11.13-1.12,16.7-.08,1.66-.09,1.64-1.68,2.06-6,1.59-10.72,5.1-14.79,9.63a3.6,3.6,0,0,0-.9,1.37,7.29,7.29,0,0,0,1.9-.8c4-2,7.84-4.28,11.8-6.33a14.33,14.33,0,0,1,10.77-1.06c3.23.91,5.06,3.78,7.79,5.46-1.72,1.16-3.41,2.15-4.5,4a3.19,3.19,0,0,0,1.7-.2c3.92-1.13,7.81-2.34,11.76-3.38a20.57,20.57,0,0,1,10.39.34c.64.16,1.21.25,1.29,1.09a.36.36,0,0,0,.7.16,22.94,22.94,0,0,0,1.12-2.41.38.38,0,0,0-.16-.51.38.38,0,0,0-.55.2c-.2.37-.39.75-.65,1.24-.13-.41-.21-.67-.31-.92s-.14-.83-.65-.65-.21.55-.14.86.24.38,0,.62a21.43,21.43,0,0,0-6.44-2.72c6,0,12.05.21,18.17.5-.17.33-.3.56-.42.8a14.25,14.25,0,0,0-1.52,4c-.06.3-.29.77,0,.92s.5-.33.7-.56a35.17,35.17,0,0,1,8.9-7.59,7.93,7.93,0,0,1,8.95.28,31.56,31.56,0,0,1,3.43,2.78c.4.35.88,1.05,1.36.72S183.07,86.8,182.84,86.26ZM174,50.21c-.25,2.82-.51,5.65-.5,8.48a161.55,161.55,0,0,1-.92,19.3c-.23,1.93-.19,1.92-2.1,2.22a11.71,11.71,0,0,0-6.86,3.64c-.24.25-.43.52-.88.5-2.56-.16-5.11-.27-7.66-.39-.14,0-.27,0-.51-.08a42.26,42.26,0,0,1,2.62-3.7c.19-.25.55-.52.15-.84s-.59.1-.78.34a36.07,36.07,0,0,0-2.66,3.73.83.83,0,0,1-.86.46c-1.25-.08-2.5-.14-3.75-.17-.39,0-.49-.23-.64-.52-.65-1.26-1.31-2.5-2-3.74-.14-.27-.28-.71-.72-.45s-.13.58,0,.86a30.82,30.82,0,0,1,1.94,3.76l-7-.34L127,82.61a2.12,2.12,0,0,1-1-.29,17.78,17.78,0,0,0-6.58-2.48c-.5-.07-.53-.37-.54-.75-.11-2.53-.26-5-.32-7.58-.08-3.22-.06-6.44-.15-9.66,0-.76.19-.9.87-.69.53.16,1.08.24,1.63.35.28.05.65.22.76-.22s-.33-.5-.62-.57a13.61,13.61,0,0,0-1.88-.38c-.56-.05-.73-.26-.72-.83,0-4.22.21-8.43.54-12.64a82.24,82.24,0,0,1,2.16-14.22,30.92,30.92,0,0,1,8.95-14.93A16.54,16.54,0,0,1,145,13.34a46.28,46.28,0,0,1,24.12,12.13,17.89,17.89,0,0,1,5.61,13.44C174.78,42.7,174.32,46.45,174,50.21Z"/><path class="cls-2" d="M271.4,65.68c-1.94-5.18-6-7.87-11.48-7.84-3.69,0-7,1.36-10.18,3-.08,0-.27.08-.17.26-.23-.14-.37.07-.52.17a11.34,11.34,0,0,0-2.66,2.37,15.34,15.34,0,0,0-.93,17.83,12.9,12.9,0,0,0,8.7,6.44,21,21,0,0,0,6.81-.11c5.08-.68,8.79-3.33,10.56-8.15A19.8,19.8,0,0,0,271.4,65.68Zm-.9-.92a2.69,2.69,0,0,1,.16.29,1.43,1.43,0,0,1,.08.22,1,1,0,0,1,.08.28c.05.18.09.37.14.56h0c0,.14.06.29.1.43a3.38,3.38,0,0,0,.13.42c-.37.12-.47-.11-.58-.28-.49-.73-1-1.46-1.46-2.2-.27-.41-.13-.55.32-.48l.14,0,.14.06a1.42,1.42,0,0,1,.4.24l.17.16A1.88,1.88,0,0,1,270.5,64.76ZM251,74.64c-.39-.09-.4-.82-.53-1.28a4.56,4.56,0,0,1-.1-.47,3.84,3.84,0,0,1,1.76.9C251.69,74.1,251.35,74.74,251,74.64Zm.17,2.86c-.39,0-.57-.29-.8-.46s-.44-.22-.21-.5.42-.09.59,0A1,1,0,0,1,251.12,77.5Zm.15-8.81h0a0,0,0,0,1,0,0,.2.2,0,0,0-.06-.07s0,0,0,0l-.08,0-.18-.12-.07-.06a.22.22,0,0,1,0-.27c.16-.4.57-.18.88-.18a7.81,7.81,0,0,1,1.05.15,1.24,1.24,0,0,1-1.45.66s0,0,0,0a1.56,1.56,0,0,1,.2.27.17.17,0,0,1,0,.17.46.46,0,0,1-.25.21c-.43.22-.75.64-1.22.8,0-.06-.1-.09-.09-.13a3.18,3.18,0,0,1,.16-1.37c.26-.39.77.24,1.19,0Zm13.55,2.62a2.58,2.58,0,0,1,.33,2.28.25.25,0,0,1-.21.06c-.15,0-.12-.16-.12-.27C264.81,72.72,264.82,72.06,264.82,71.31Zm-.14-3.81c-.18,0-.21-.12-.23-.27-.05-.38-.1-.75-.17-1.24a1.42,1.42,0,0,1,.67,1.19C265,67.37,264.89,67.5,264.68,67.5Zm-.34,4.81c0,.19.22.76-.09,1s-.79-.22-1.16-.43c-1.26-.71-2.63-1.16-3.95-1.75-.18-.08-.51-.06-.5-.34s.33-.26.51-.36.38-.12.53-.23a2.93,2.93,0,0,1,4.09.33C264.35,71,264.26,71.52,264.34,72.31Zm0,2c-1.11.62-2.08,1.2-3.09,1.71-.75.39-1.48,0-2.14-.32-1.8-.73-3.56-1.56-5.47-2.41,1.16-.64,2.21-1.24,3.27-1.81a1.41,1.41,0,0,1,1.28.06C260.19,72.43,262.19,73.32,264.35,74.29Zm-5-7.22a11.87,11.87,0,0,1,3.77.74C261.49,68.7,260.54,67.37,259.36,67.07Zm.22,1.77c0,.08,0,.16,0,.24l-2.21,1.08a.86.86,0,0,1-.65,0l-3.16-1c-.16,0-.38-.08-.37-.26a.65.65,0,0,1,.31-.37,2.52,2.52,0,0,1,1.5-.4C256.54,68.38,258.05,68.62,259.58,68.84Zm-5.37,1a11.41,11.41,0,0,0,2.08.84l-2.85,2c-.69.47-1.23-.15-1.84-.24-.12,0-.21-.17-.33-.24-1.19-.68-1.14-.63-.19-1.67S252.91,69,254.21,69.88Zm-2.81,5.35c.34-.32.7-.63,1-1s.42-.19.72-.09c1.82.6,3.48,1.54,5.24,2.28h0l-.06.13-.06-.06.12-.08c-1.23.23-2.39-.24-3.59-.34s-2.13-.28-3.2-.42c-.13,0-.28.06-.36-.12S251.31,75.32,251.4,75.23Zm4.64,3c-2.4,1.3-2.27,1.16-3.79-.91Zm7.47-.09c-.42,1.55-.94,2-2.56,1.91-1.38,0-2.76-.12-4.14-.19a1.07,1.07,0,0,1-.84-.28C258.44,78.62,260.7,77.2,263.51,78.13Zm-1.09-1.36A8,8,0,0,1,264,75.64C264.12,77.08,263.8,77.3,262.42,76.77ZM264.11,79c.06-.68.34-.9,1-.41l-1,.48a.1.1,0,0,1-.18,0Zm1-1.22a2.12,2.12,0,0,1,1.65-.2C265.89,78.21,265.77,78.22,265.12,77.8Zm.76-.77c-.21-.09-.77.24-.82-.17a2.54,2.54,0,0,1,.57-1.83c.11-.14.31,0,.45.07l2.11,1c.14.06.33.11.33.32s-.23.26-.42.31A6.55,6.55,0,0,1,265.88,77Zm-.54-10.83a9,9,0,0,1,1.7.71C265.69,67.45,265.54,67.38,265.34,66.2Zm.87-2.24a1.46,1.46,0,0,1,1.79.58c.46.63,1,1.2,1.47,1.81.11.14.3.3.12.5s-.31.05-.47,0a.93.93,0,0,1-.57-.31C267.8,65.73,267,64.89,266.21,64Zm-1.16-.48c-1.91-1.13-3.79-2.33-5.69-3.5,0-.07.07-.14.11-.2a13.86,13.86,0,0,1,7.67,3.77A3.11,3.11,0,0,1,265.05,63.48Zm-2.14.48a2.79,2.79,0,0,1-1.38,0C262.59,63.38,262.59,63.38,262.91,64Zm-.55,1.28c1.45.39,1.5.44,1.56,2.09-1.4-.74-3-.69-4.43-1.35C260.45,65.71,261.26,65,262.36,65.24Zm-4.69.36c.69-.41,1.29-1.06,2.36-.89A6.86,6.86,0,0,1,257.67,65.6Zm.95,2.19-2.43-.18C256.73,66.78,257.53,66.82,258.62,67.79Zm-3.28-2.55a24.11,24.11,0,0,0-3-.3,16.5,16.5,0,0,1,5.14-.43A2.16,2.16,0,0,1,255.34,65.24Zm-1.88.7a10.46,10.46,0,0,0,1.49.37,2.83,2.83,0,0,1-2.7,1.21c-.27,0-.56,0-.83,0s-1.08.34-1.11-.42a1.15,1.15,0,0,1,1-1.3A4.46,4.46,0,0,1,253.46,65.94Zm-3.81,1.56a3.9,3.9,0,0,1-3-.2,12.9,12.9,0,0,1,3.72-1.36C250.09,66.56,250.23,67.3,249.65,67.5Zm.55,7.14c.11.23.05.81-.62.57a10.56,10.56,0,0,1-1.81-.57c-.35-.2-.57-.42-.11-.79s.88-.84,1.32-1.26l.28-.25c.21,0,.26.12.31.25C249.82,73.26,249.89,74,250.2,74.64ZM248.34,77a4.84,4.84,0,0,1-1.84-1.23c-.21-.24-.33-.42.19-.5C247.86,75.12,248.54,75.75,248.34,77Zm-.52,2.4c.73-1,.71-1,1.88-.56.54.21,1.07.44,1.61.66,0,0,.07.08.2.23-1.22.06-2.28.66-3.46.34C247.62,80,247.52,79.85,247.82,79.43Zm5.37,1a1,1,0,0,1,.71.22l2.53,1.62c-2.22,1.36-4.92,1-7.71-1.21Zm12.9,1.65c-2.65,3-6.08,2.58-9.74,2.07C259.63,82.8,263.06,83.36,266.09,82.05Zm-4.2-.15a2.14,2.14,0,0,1,1.2-1.11L268,79.17l.12.2A9.1,9.1,0,0,1,261.89,81.9ZM267,78.44c.6-.46,1.09-.86,1.61-1.23.15-.11.38-.34.57-.07a.64.64,0,0,1,0,.64A2.21,2.21,0,0,1,267,78.44Zm1.49-2.51L266,74.34l1.1-1c.54.83,1.05,1.63,1.56,2.43ZM265.89,71a.76.76,0,0,1,0-.55c.11-.22.34-.09.52,0l2.26.65-.56.48C266.91,72.5,266.52,72.41,265.89,71Zm2.58-.36c-.76-.34-1.52-.67-2.3-1-.48-.18-.36-.56-.42-.94s.1-.56.51-.58a4.21,4.21,0,0,0,.49-.09c1.74-.36,1.9-.28,2.77,1.28a.65.65,0,0,1-.07.9C269.17,70.52,269,70.86,268.47,70.65Zm.74-3.27c1,.12,1.31.54,1.23,1.79C270,68.48,269.6,68,269.21,67.38Zm1-3.38h-.73a6.72,6.72,0,0,1-2-1.32,13.71,13.71,0,0,0-8-3.35l-.5-.07C260.84,57.14,268.48,60.39,270.18,64Zm-12-3.31a11.69,11.69,0,0,1-2.72-.26C256.37,59.84,257.07,59.9,258.17,60.69Zm-2,.12a19,19,0,0,1,4.8,1.27,3,3,0,0,1,1.13.82c-3.34,1.16-6.83.26-10.28.93a13.82,13.82,0,0,1,1.73-2.13A2.83,2.83,0,0,1,256.15,60.81Zm-2.81,0c-.38,1.56-2.35,3.42-3.67,3.48a.16.16,0,0,1,0-.13h0a.05.05,0,0,1,0,0l.07-.11c.06-.08.14-.17.09-.27l-.05-.07.13,0c.23,0,.28-.3.4-.43a17,17,0,0,1,2.16-2.08C252.72,61,253,60.75,253.34,60.85Zm-3.74.31.15,0,1-.37,1.23-.46a1,1,0,0,1-.45.48l-.19.1,0,0A1.71,1.71,0,0,0,251,61l-.06,0a.86.86,0,0,0-.14.13.54.54,0,0,0-.09.15c-.6-.1-1,.47-1.62.47C249.18,61.51,249.62,61.49,249.6,61.16Zm.74.56c.15-.09.41-.07.41-.34.22.26.42-.22.66,0-.51.76-1.39,1.3-1.68,2.27h0a2.9,2.9,0,0,1-.62.79l-.29.23-.1.07a4.45,4.45,0,0,1-.43.26c-.59.31-1.26.55-1.93.88A11.14,11.14,0,0,1,250.34,61.72Zm-4.12,6.48a6.2,6.2,0,0,1,2.39-.09c.75.16,1.44.29,1,1.18-.17,2-.17,2-1.8,1l-1.77-1.08c-.21-.13-.47-.26-.42-.56A.63.63,0,0,1,246.22,68.2Zm1.65,3.26c.26.19.33.36,0,.63a9.22,9.22,0,0,0-1.14,1.19,5,5,0,0,1-1.21-3.53C246.31,70.34,247.1,70.89,247.87,71.46Zm-3.58,1.09a13.64,13.64,0,0,1,.26-2.37c.32,1.23.85,2.37,1.27,3.63C244.73,73.81,244.29,73.47,244.29,72.55Zm1,3.7a.64.64,0,0,1,.82.18l.85.79c.94.84.94.84,0,1.86A15.65,15.65,0,0,0,245.26,76.25Zm1.6,5.41c-.08-.21-.21-.4.06-.56s.35,0,.47.18a17.72,17.72,0,0,1,1.86,2.06A2.47,2.47,0,0,1,246.86,81.66Zm2.59,2.73a1.75,1.75,0,0,1,1.77.26,18.73,18.73,0,0,0,6.39,2.7A11.9,11.9,0,0,1,249.45,84.39Zm10.36,2.17a.68.68,0,0,1-.39.09,13.39,13.39,0,0,1-6.29-2.41,49.32,49.32,0,0,0,9.17.9C261.47,85.62,260.64,86.1,259.81,86.56Zm11.24-9c0,3.71-2.06,6-5.17,7.63a11,11,0,0,1-3.79,1.6c-.26,0-.52,0-.83.05,0-.17,0-.29.08-.31a23.17,23.17,0,0,0,9.34-8.76c.07-.11.16-.21.24-.32l.15-.24A.3.3,0,0,1,271.05,77.59Zm-1.43-1.14a4.9,4.9,0,0,1,1.31-1.3A1.25,1.25,0,0,1,269.62,76.45Zm1-1.71c-1.48,1.3-1.48,1.3-2.43-.4a2.34,2.34,0,0,1-.24-.44c-.12-.39-.74-.77-.36-1.15s.89-1.33,1.83-1.25a2.38,2.38,0,0,1,.52-1.31,3.92,3.92,0,0,1,.76,1.51c-.16.18-.45-.2-.55.15C271.68,72.55,271.86,73.68,270.64,74.74Z"/><path class="cls-3" d="M43.41,81.53a.39.39,0,0,1-.37-.24c-.12-.29.05-.47.23-.66a20.79,20.79,0,0,1,3.31-2.9c.27-.19.54-.38.83-.55a.39.39,0,0,1,.58.13c.16.24,0,.43-.17.56a21.35,21.35,0,0,0-4.1,3.49A1.07,1.07,0,0,1,43.41,81.53Z"/><path class="cls-3" d="M176.07,67.67v-.79c.39.38.77,0,1.12-.09,1.54-.24,3.08-.32,4.63-.42.35,0,.74,0,.73.45s-.41.35-.7.36a27.41,27.41,0,0,0-4.79.5C176.7,67.76,176.39,67.43,176.07,67.67Z"/><path class="cls-3" d="M224.42,80.85a.76.76,0,0,1-.31.53A24.82,24.82,0,0,0,221,85.24c-.17.27-.35.66-.76.36s-.1-.54.07-.8a24.14,24.14,0,0,1,3.31-4c.19-.18.39-.34.65-.19C224.33,80.63,224.38,80.78,224.42,80.85Z"/><path class="cls-3" d="M227.4,78.61c-.17,0-.33,0-.4-.23a.41.41,0,0,1,.17-.51,22.12,22.12,0,0,1,5.09-2.57.39.39,0,0,1,.54.25.34.34,0,0,1-.22.47,28.49,28.49,0,0,0-5,2.54Z"/><path class="cls-3" d="M73.9,83.17a.43.43,0,0,1-.23.45c-.26.12-.41-.06-.56-.23-.71-.77-1.41-1.56-2.14-2.33-.47-.5-1-1-1.5-1.43-.2-.18-.35-.39-.16-.65A.41.41,0,0,1,70,79a33,33,0,0,1,3.81,3.94A1,1,0,0,1,73.9,83.17Z"/><path class="cls-3" d="M211.18,80.67c.27,0,.37.21.51.38a40.1,40.1,0,0,1,2.89,4c.16.24.46.53.1.79s-.58,0-.78-.33a38.64,38.64,0,0,0-2.9-4c-.17-.21-.3-.4-.17-.68S211,80.67,211.18,80.67Z"/><path class="cls-3" d="M57.28,74.39a.46.46,0,0,1-.5.43A17.88,17.88,0,0,0,51.68,76c-.25.09-.5.11-.62-.19s.06-.48.32-.58A18.84,18.84,0,0,1,56.72,74C57.09,74,57.26,74.14,57.28,74.39Z"/><path class="cls-3" d="M204.12,74a4.36,4.36,0,0,1,.51.31,41.56,41.56,0,0,1,3.75,3.14c.24.23.47.48.23.77s-.53.1-.77-.13a36.45,36.45,0,0,0-3.81-3.2c-.2-.15-.42-.29-.34-.59S203.87,74.07,204.12,74Z"/><path class="cls-3" d="M66.64,76.74c-.08.34-.31.48-.61.32A17.78,17.78,0,0,0,61,75a.36.36,0,0,1-.28-.51c.12-.29.36-.31.63-.25a16.64,16.64,0,0,1,3.74,1.38c.42.22.82.47,1.23.7A.51.51,0,0,1,66.64,76.74Z"/><path class="cls-3" d="M186.55,66.68a33.82,33.82,0,0,1,5.24,1.16c.24.08.38.25.3.5s-.3.35-.59.26a32.39,32.39,0,0,0-5.17-1.12.4.4,0,0,1-.41-.44C185.94,66.71,186.18,66.66,186.55,66.68Z"/><path class="cls-3" d="M195.71,69.28c.13,0,.28.1.43.17a38.6,38.6,0,0,1,4.35,2.21c.26.15.63.3.44.67s-.55.21-.84,0a39.12,39.12,0,0,0-4.43-2.24c-.24-.1-.45-.22-.4-.54S195.47,69.28,195.71,69.28Z"/><path class="cls-3" d="M110.71,59.75h1.41c.25,0,.46.11.45.39a.41.41,0,0,1-.45.39,35.65,35.65,0,0,0-5.06.47c-.25,0-.46,0-.5-.32s.2-.46.5-.51C108.27,60,109.48,59.82,110.71,59.75Z"/><path class="cls-3" d="M84,75.21c-.36-.06-.46-.31-.23-.63a35.82,35.82,0,0,1,3.36-3.92c.2-.21.45-.27.65,0a.4.4,0,0,1-.05.59,43,43,0,0,0-3.3,3.85A.43.43,0,0,1,84,75.21Z"/><path class="cls-3" d="M90.39,68.62a1,1,0,0,1-.32-.21.39.39,0,0,1,.1-.52,33.28,33.28,0,0,1,4.27-3c.19-.11.46-.15.58.11a.4.4,0,0,1-.15.57,37.38,37.38,0,0,0-4.14,2.94A1.42,1.42,0,0,1,90.39,68.62Z"/><path class="cls-3" d="M79.43,83.17c-.28-.08-.48-.23-.36-.53a32.69,32.69,0,0,1,2.44-4.7.38.38,0,0,1,.57-.16.4.4,0,0,1,.1.59,43.48,43.48,0,0,0-2.35,4.55A.43.43,0,0,1,79.43,83.17Z"/><path class="cls-3" d="M98.36,63.69c-.32,0-.5,0-.55-.26A.4.4,0,0,1,98,63a31.61,31.61,0,0,1,4.89-1.83.39.39,0,0,1,.5.19c.09.2.08.44-.12.51A44.53,44.53,0,0,0,98.36,63.69Z"/><path class="cls-3" d="M77.15,87.8l.47-1.39c.09-.27.26-.44.55-.33a.41.41,0,0,1,.21.56c-.24.8-.44,1.6-.72,2.38-.16.49-.52.5-.78.08-.43-.7-.82-1.43-1.21-2.16a.4.4,0,0,1,.1-.59c.26-.16.47,0,.62.21Z"/><path class="cls-3" d="M217.52,90.31,218,89c.11-.26.29-.42.58-.31s.28.34.21.57c-.27.78-.55,1.56-.84,2.33a.42.42,0,0,1-.42.33.47.47,0,0,1-.41-.35c-.31-.71-.65-1.4-1-2.11-.13-.27-.18-.55.18-.69s.44.11.56.34S217.26,89.81,217.52,90.31Z"/><path class="cls-3" d="M236.67,74.89c-.24,0-.46,0-.5-.31a.37.37,0,0,1,.36-.46c.85-.13,1.7-.25,2.55-.34a.38.38,0,0,1,.47.36c0,.28-.16.38-.41.42Z"/><path class="cls-3" d="M39.61,87.22c-.33,0-.35-.3-.23-.6A14.89,14.89,0,0,1,40.5,84.4c.13-.23.3-.34.55-.24s.27.41.16.64c-.35.72-.74,1.42-1.09,2.14A.44.44,0,0,1,39.61,87.22Z"/><path class="cls-4" d="M250.75,61.34v0h0Z"/><path class="cls-4" d="M249.75,63.67l0,0,0,0Z"/><path class="cls-4" d="M249.65,64.19h0a.16.16,0,0,0,0,.13c-.08-.11,0-.2.07-.29l-.07.11A.05.05,0,0,0,249.65,64.19Z"/><path class="cls-4" d="M251.3,68.72l0,0h0S251.3,68.71,251.3,68.72Z"/><path class="cls-4" d="M271.05,77.59l-.13-.11.15-.24A.3.3,0,0,1,271.05,77.59Z"/><path class="cls-4" d="M258.4,76.46l-.06.14-.06-.06.13-.08Z"/><path class="cls-4" d="M264.19,79.09a.1.1,0,0,1-.18,0l.1-.08A.27.27,0,0,1,264.19,79.09Z"/><path class="cls-2" d="M166,35.88c-.18-.53-.39-.66-.95-.41A12.07,12.07,0,0,0,158,43.39c-.18.59-.33.7-.93.49a31.34,31.34,0,0,0-15.86-1.35A1,1,0,0,1,140,42a28.72,28.72,0,0,0-10.73-9.41c-.61-.32-.86-.24-1.16.38a25.49,25.49,0,0,0-2.7,14.27c.68,6.09,3.27,11.2,8.3,14.79,6.45,4.62,13.62,5.58,21.18,3.36a16.09,16.09,0,0,0,11.07-10,27.64,27.64,0,0,0,1.74-9.79A29,29,0,0,0,166,35.88Zm-1.22,17a16,16,0,0,1-14,12.46,22.84,22.84,0,0,1-14.44-2.46c-4-2.24-6.53-5.75-8.2-10-1.58-4-2.49-8.06-1.61-12.36a15.77,15.77,0,0,1,2.52-5.66c.33-.5.57-.55,1.09-.25A26.06,26.06,0,0,1,139,43.08a1.07,1.07,0,0,0,1.13.61c1.82-.19,3.65-.37,5.47-.53,3.65-.32,7.12.57,10.59,1.52a4.78,4.78,0,0,0,1.93.42c.63-.13.75-1,1.12-1.54a24.44,24.44,0,0,1,5.92-5.77,24.6,24.6,0,0,1,.57,5.73A40.26,40.26,0,0,1,164.81,52.86Z"/><path class="cls-2" d="M154.76,23.47a2.13,2.13,0,0,1-2,1.73,1.77,1.77,0,0,1-1.45-2c.06-1,.66-1.62,1.55-1.55C153.88,21.74,154.82,22.62,154.76,23.47Z"/><path class="cls-2" d="M166.77,79.06a1.47,1.47,0,0,1-1.29-1c-.24-.63.19-1,.62-1.31A3.61,3.61,0,0,1,168,76a.68.68,0,0,1,.79.46C169.11,77.4,167.88,79,166.77,79.06Z"/><path class="cls-3" d="M172.65,68.79a31.93,31.93,0,0,0-4.78,2.13c-.1,0-.21.08-.25.1-.26,0-.39-.09-.43-.28a.46.46,0,0,1,.29-.54c.62-.32,1.22-.66,1.86-.93,1-.44,2-.83,3-1.23.25-.1.51-.1.64.19S172.89,68.71,172.65,68.79Z"/><path class="cls-3" d="M164.46,72.85c0,.31-.23.43-.4.56a34.51,34.51,0,0,0-3.7,3.23c-.24.24-.51.44-.78.14s-.05-.51.17-.72a43.13,43.13,0,0,1,3.9-3.38.54.54,0,0,1,.62-.12C164.37,72.62,164.41,72.78,164.46,72.85Z"/><path class="cls-3" d="M130.25,64.55c-.15.32-.44.25-.71.12a39.08,39.08,0,0,0-4.42-1.88c-.23-.08-.5-.19-.45-.51s.22-.37.53-.32.54.17.82.28q2,.75,3.87,1.68C130.17,64.06,130.41,64.22,130.25,64.55Z"/><path class="cls-3" d="M144.31,76a.37.37,0,0,1-.28.41c-.3.09-.44-.13-.6-.32-.89-1.07-1.79-2.13-2.68-3.18-.17-.19-.36-.36-.52-.55a.4.4,0,0,1,0-.59.36.36,0,0,1,.53,0,34.15,34.15,0,0,1,3.46,4A.71.71,0,0,1,144.31,76Z"/><path class="cls-3" d="M138,69.32c0,.17,0,.3-.15.38a.45.45,0,0,1-.55,0,42.76,42.76,0,0,0-4.1-3,.4.4,0,0,1-.17-.57.36.36,0,0,1,.51-.14,27.59,27.59,0,0,1,4.37,3.16C137.94,69.17,138,69.27,138,69.32Z"/><path class="cls-2" d="M128.76,68a1.56,1.56,0,0,1-1.51,1.47c-.65-.05-.82-.46-.8-1a1.53,1.53,0,0,1,1.42-1.55C128.52,66.91,128.74,67.38,128.76,68Z"/><path class="cls-3" d="M124.52,69.87a3.43,3.43,0,0,1-1.14,1.5c-.21.17-.44.4-.73.27s-.28-.51-.31-.76c0-1.13.7-1.92,1.61-1.84C124.48,69.08,124.71,69.35,124.52,69.87Z"/><path class="cls-3" d="M166.82,73.94c-.1.45-.08,1-.74,1a1,1,0,1,1,0-2C166.74,73,166.73,73.48,166.82,73.94Z"/><path class="cls-3" d="M125.09,74c-.11.36-.15.87-.74.86a.76.76,0,0,1-.8-.78c0-.69.7-.57,1.13-.68S125.09,73.67,125.09,74Z"/><path class="cls-2" d="M151.83,62.52c-.12.26-.42.23-.66.24a2.52,2.52,0,0,1-2.34-1.17c-.27-.45-.48-.93-.73-1.39-.45-.82-.9-.88-1.56-.2-.37.37-.7.79-1.09,1.14a1.46,1.46,0,0,1-1.63.24c-.51-.21-.55-.55-.09-.84s1.12-.6,1.66-.94a1.86,1.86,0,0,0,.75-2.77,5.91,5.91,0,0,0-1.27-1.74c-.64-.57-.3-.76.27-1a2.46,2.46,0,0,1,1-.11.62.62,0,0,1,.35.06,2.09,2.09,0,0,0,2.39,0c.35-.27,1.65.43,1.87.85s-.11.34-.23.45a5.4,5.4,0,0,0-1.29,1.82,2.51,2.51,0,0,0,.61,3.24c.52.5,1.1.92,1.64,1.4C151.72,62,152,62.2,151.83,62.52Z"/><path class="cls-2" d="M141.87,55.79c0,.17.06.33-.14.49a18,18,0,0,0-1.53-2.11c-1.6-1.66-1.26-1.62-2.76-.06-.48.5-.85,1.1-1.29,1.64-.15.17-.27.53-.56.37s-.09-.45,0-.69a6.23,6.23,0,0,1,2-3.27,13.09,13.09,0,0,0-1.94-.9c-.16-.07-.44-.11-.41-.35s.33-.23.55-.25a4.63,4.63,0,0,1,2.43.44,1.55,1.55,0,0,0,1.33,0,4.45,4.45,0,0,1,3.13-.08l-2.17.78c-.45.15-.55.31-.15.71A5.61,5.61,0,0,1,141.87,55.79Z"/><path class="cls-3" d="M159.21,55.46c-.65-.35-.93-.91-1.39-1.26-1.72-1.33-1.48-1.21-2.48.36-.26.41-.45.88-.69,1.32-.07.12-.13.34-.36.25s-.11-.24-.11-.36a4,4,0,0,1,.8-2.5c.29-.4.22-.54-.26-.63s-1-.23-1.66-.4a3.08,3.08,0,0,1,2.51-.33,1.45,1.45,0,0,0,1.1-.16,4.11,4.11,0,0,1,2.3-.54c-.56.61-1.29.73-1.82,1.26A5,5,0,0,1,159.21,55.46Z"/></svg>