<svg id="Vrstva_1" data-name="Vrstva 1" xmlns="http://www.w3.org/2000/svg" viewBox="0 0 300 100"><defs><style>.cls-1{fill:#060606;}.cls-2{fill:#f2f2f2;}.cls-3{fill:#f9f9f9;}.cls-4{fill:#fefefe;}</style></defs><path class="cls-1" d="M199.21,19.14c-.2-.58-.38-.71-1-.46a16.72,16.72,0,0,0-10.06,11.43c-.12.44-.26.52-.7.36a43.06,43.06,0,0,0-22.49-2,.94.94,0,0,1-1.13-.48A39.12,39.12,0,0,0,148.6,14.66c-.52-.26-.73-.2-1,.31a35.28,35.28,0,0,0-3.89,20.31c0,.18.16.39-.06.51s-.34-.1-.49-.19c-.62-.34-1.2-.74-1.84-1A48.39,48.39,0,0,0,122.67,30,20,20,0,0,0,113,32a22.44,22.44,0,0,0-10.75,12.39,9.27,9.27,0,0,0-.39,5.39,6.17,6.17,0,0,1-4.15,7.32,24.28,24.28,0,0,0-7.92,4.58,7.54,7.54,0,0,0-2.52,8.22A26.16,26.16,0,0,0,94.9,82.43a28.94,28.94,0,0,0,11.15,6.17,73.5,73.5,0,0,0,12.78,2.67,53.3,53.3,0,0,0,8.82.82c3.27-.09,6.29-.84,8.78-3.16s2.46-4.93-.57-6.76a18.07,18.07,0,0,0-10.62-2.62c-2,.12-4,.4-6,.42a28.84,28.84,0,0,1-15.07-4.34,7.76,7.76,0,0,1-3.29-3.51c-.24-.51-.52-1-.74-1.51a10.47,10.47,0,0,1-1.05-5,1.78,1.78,0,0,1,.45-1.29,7.66,7.66,0,0,1,3.14-1.8,2.89,2.89,0,0,1,3.87,1.82c.21.44.4.9.57,1.36a14.09,14.09,0,0,0,7.77,8.51,45.68,45.68,0,0,0,5.85,2.17c5.15,1.47,10.45,1.38,15.72,1.23a5.78,5.78,0,0,0,5.23-4.43,2.81,2.81,0,0,0-1.66-3.69,12.19,12.19,0,0,0-3.18-.86l-1.44-.17a3.49,3.49,0,0,1,1.44,0c2.42-.1,4.82-.25,7.23-.47a8.25,8.25,0,0,1,8.61,5.49,12,12,0,0,0,5.52,6.83,4.39,4.39,0,0,1,2.07,2.57,11.64,11.64,0,0,0,7.44,7.6,14,14,0,0,0,5.43.32c4-.26,7.25-1.69,9.35-5.21a6.79,6.79,0,0,1,2.33-2.49,5.13,5.13,0,0,0,1.37-1.3c4.29-5.42,5.36-11.5,3.69-18.13a16,16,0,0,0-2.44-5.15l.3-.16A21.36,21.36,0,0,0,199,46.53,38.15,38.15,0,0,0,199.21,19.14Zm-55.5,16.69s0,0,0,.05,0,0,0,0l-.07,0Zm16.76,41.75c0-.63.1-1.25.16-1.87.3,1.08.81,2.06,1.12,3.1C160.79,78.82,160.44,78.49,160.47,77.58Zm21.6-7.51c.34.45.08,1-.16,1.49-.27-.33-.65-.55-.51-1a.2.2,0,0,0-.07-.16c-1.31-.63-2.22-1.83-3.55-2.46a13.38,13.38,0,0,0-4.28-1.27,1.1,1.1,0,0,1-.79-.27,8,8,0,0,1,3.42-.1A9.68,9.68,0,0,1,182.07,70.07Zm-5.65-4.55c1.45-.28,2.78-.91,4.21-1.13a1.76,1.76,0,0,1,2.22,1.42,7.12,7.12,0,0,1-.35,4.4A9.87,9.87,0,0,0,176.42,65.52Zm-10.92,3h0s0,0,0,0a.56.56,0,0,0,.53-.1l.17-.09a.41.41,0,0,1,.22,0,.5.5,0,0,1,.16,0c0,.09,0,.09-.09.1a14.2,14.2,0,0,0-1.59,2c-.48-.72-.34-1.21.37-1.56a1,1,0,0,0,.16-.06.18.18,0,0,0,.07,0,.09.09,0,0,0,0-.07A.22.22,0,0,0,165.5,68.51Zm-.38,2a10.82,10.82,0,0,1,2.67-2.56,1.11,1.11,0,0,1,.31-.09c-.72,1.16-1.2,2.48-2.62,3-.12,0-.27.13-.39,0S165.05,70.57,165.12,70.48Zm14.94,3.39a4.5,4.5,0,0,1-1.36,1C178.45,74.16,178.45,74.16,180.06,73.87Zm-1.31,6,1.91.88c.12.06.28.12.25.29s-.19.21-.33.23a5.51,5.51,0,0,1-1.93.25c-.13-.05-.61.21-.66-.12a2.32,2.32,0,0,1,.45-1.56C178.52,79.7,178.65,79.82,178.75,79.86Zm-.49-7.46a3.82,3.82,0,0,1,1.29.61C178.45,73.46,178.36,73.42,178.26,72.4ZM177.84,71a1.7,1.7,0,0,1,.83.71C178.15,71.6,177.82,71.51,177.84,71Zm-5.1,6.1c.6.28,1,.5,1.46.68.25.1.24.25.16.44a5.47,5.47,0,0,0-.43,2.48c-.23-.09-.61,0-.51-.34A4.53,4.53,0,0,0,172.74,77.07Zm-.12-.73c-.17-.07,0-.24.11-.3a18,18,0,0,1,2.46-1c.54-.15.84.53,1.35.81A4.82,4.82,0,0,0,175,77c-.07.09-.14.24-.27.19C174,76.94,173.32,76.66,172.62,76.34Zm-6.6,3.2c-.12-.11-.34-.37-.31-.47.11-.36-.17-.62-.12-1a3.17,3.17,0,0,1,1.45.73c-.21.19-.38.38-.58.53S166.19,79.69,166,79.54Zm.18,2.38a1,1,0,0,1-.61-.36c-.13-.12-.45-.18-.21-.46s.4,0,.55.09A.72.72,0,0,1,166.2,81.92Zm3.25-6.72a.76.76,0,0,1-.21,0c-.48,0-.86-.33-1.32-.44.22-.48.49-.49.83-.2s.52.4.78.59a.68.68,0,0,0,0,.14s0,0,0,0,0-.08,0-.1Zm.63.83c.27.13.26.38-.05.58-.65.42-1.26.9-1.93,1.29s-1-.17-1.48-.27c-.08,0-.14-.12-.22-.16-1-.61-1.06-.63-.14-1.46.4-.37.72-.88,1.41-1C168.44,75.35,169.28,75.65,170.08,76Zm-3.67,4c.34-.33.69-.63,1-.93.15-.13.28-.08.44,0,.49.21,1,.37,1.5.58.17.07.58,0,.42.38s-.25.7-.71.65c-.86-.07-1.7-.3-2.57-.3C166.22,80.42,166.26,80.2,166.41,80.05Zm2-1.69,2.14-1.22a3.86,3.86,0,0,1-.26,2.06Zm1.51-4.29,3.52.58s0,.11,0,.16l-1.61.79c-.2.1-.3,0-.43-.12Zm3.44-.9a6.49,6.49,0,0,1,2.88.57C175.45,74.27,175.2,74.22,173.31,73.17ZM178.25,85a7.29,7.29,0,0,1-2.88.63C176.08,84.48,176.56,84.38,178.25,85Zm-.4-11.58s-.2.11-.24.08c-.26-.21-.12-.56-.23-.83a1.38,1.38,0,0,1,0-.37c.09,0,.16,0,.2.1A1,1,0,0,1,177.85,73.4Zm-.53-3.67c-1.35-.9-2.75-1.73-4.2-2.63,1.53-.27,4.91,1.32,6.5,3A2.73,2.73,0,0,1,177.32,69.73Zm-1.13.8a2.36,2.36,0,0,1-1.12,0C175.9,70,175.9,70,176.19,70.53Zm-.41,1.06c1.12.3,1.24.44,1.22,1.73-1.19-.59-2.54-.58-3.93-1.13C174.09,72,174.82,71.34,175.78,71.59Zm-3.94.4a1.34,1.34,0,0,0-.07-.18c.57-.31,1.07-.77,1.83-.56Zm.62,1.71a8.09,8.09,0,0,1-2-.19A1.28,1.28,0,0,1,172.46,73.7ZM170,71.6a6.56,6.56,0,0,0-1.88-.17.37.37,0,0,1-.44-.25,20.65,20.65,0,0,1,4-.26C171.07,71.41,170.66,71.77,170,71.6Zm-.53.88c-.5.71-1,.89-1.73.4-.43-.29-1-.39-1.5-.77A6.48,6.48,0,0,1,169.43,72.48Zm-2.79.91c0,.08,0,.11-.06.11-.36,0-.8.26-1-.22-.07-.14,0-.44.1-.43A1.58,1.58,0,0,1,166.64,73.39Zm-.26,1.17c.05-.19-.16-.18-.24-.27s-.24-.17-.17-.34.21-.16.35-.15l1.24.09c0,.07.05.14.07.21-1,.28-1.41,1.25-2.41,1.71a4.26,4.26,0,0,1,.13-1.24C165.63,74,166,74.87,166.38,74.56Zm-.95,5c.09.26,0,.64-.47.48a7.37,7.37,0,0,1-1.59-.51c-.32-.19-.37-.38-.07-.65s.74-.71,1.12-1.06l.25-.22c.2,0,.23.16.27.28C165.12,78.4,165.23,79,165.43,79.52Zm.45,4.34c-.73.09-1.41.53-2.17.27-.19-.07-.57-.06-.37-.38s.19-.75.72-.56Zm2.18.53c.38,0,.65.25.94.43.58.35,1.14.73,1.72,1.11-2,1.18-4.21.73-6.54-1.05C165.53,84.71,166.79,84.53,168.06,84.39Zm2.34-.54c0-.39.28-.36.45-.43,1-.38,1.91-.74,2.86-1.11.25-.1.5-.21.64.13a4.57,4.57,0,0,0,1.3,1.6A46.85,46.85,0,0,1,170.4,83.85Zm8.44,1.86c-1.11,2-5.39,2.83-8,1.71C173.44,86.39,176.31,86.86,178.84,85.71ZM178,82.16a2.24,2.24,0,0,1,1.38-.17C178.93,82.37,178.51,82.63,178,82.16Zm2.52,1.18c-.25.84-.76.54-1.36.43Zm-.87-.61c.53-.4,1-.74,1.41-1.06.14-.1.34-.25.47,0s.16.43-.05.57C181,82.58,180.47,83.06,179.61,82.73Zm1.31-2.12-2.19-1.36.94-.81c.46.71.9,1.39,1.33,2.07Zm-1.48-3.13c-.06-.15-.31-.23-.17-.46a1.54,1.54,0,0,1,1.69-.47c-.42.34-.81.65-1.19,1C179.64,77.62,179.51,77.66,179.44,77.48Zm1.31-5c-.59-.63-1.15-1.28-1.77-2a1.22,1.22,0,0,1,1.53.54,7.43,7.43,0,0,0,.76.92c.28.29.12.51-.08.72S180.84,72.59,180.75,72.49ZM175,69.16a1,1,0,0,1,.54.48,16.16,16.16,0,0,1-4.82.54,15.91,15.91,0,0,0-3.9.23,9.69,9.69,0,0,1,2.3-2.45c.47-.31.89,0,1.33,0A10.1,10.1,0,0,1,175,69.16Zm-5.2-1.58a1.8,1.8,0,0,1,2.39.17Zm1.77-2.06a22.42,22.42,0,0,0-6,2.13c-.09,0-.29.07-.19.25v0h0c.55,0,.95-.44,1.55-.42-.29.39-.75.48-1.11.71a1.09,1.09,0,0,0-.17.13l-.14.14c-.36-.14-.6.28-1,.22a.32.32,0,0,1,.08-.14.57.57,0,0,1,.11-.11l.12-.09.14-.12a.34.34,0,0,0,.08-.16v0h0l-.1,0a.56.56,0,0,0-.19.07.39.39,0,0,1-.32.06,5.46,5.46,0,0,1,1.4-4.14,1.78,1.78,0,0,1,2.19-.35,16.94,16.94,0,0,0,4,1.64C171.9,65.56,171.69,65.49,171.52,65.52Zm-6.88,6.88c.34-.12.68-.11.74.23s0,.81-.47.9a3.71,3.71,0,0,1-2.44-.2A10.91,10.91,0,0,1,164.64,72.4Zm-1.6-.64c-.2.1-.38.26-.63.23v0h0l-.07.06V72h.07l0,0h0a1.6,1.6,0,0,1,.05-.21,1.44,1.44,0,0,1,.15-.36,3.46,3.46,0,0,1,.22-.31l.21-.29a2.55,2.55,0,0,0,.24-.39C164,71.32,164,71.32,163,71.76Zm1,2.23c.94.14,1,.2.89,1.14-.12,1.59-.14,1.6-1.52.76L162,75c-.18-.12-.39-.24-.34-.48s.26-.35.51-.41A5.28,5.28,0,0,1,164.06,74Zm-.6,2.81c.19.14.35.29,0,.54a10.44,10.44,0,0,0-1,1.06,5.39,5.39,0,0,1-1.06-3.06C162.15,75.86,162.81,76.32,163.46,76.8Zm-1.23,3.35c.11-.27.53,0,.74-.2A1.42,1.42,0,0,1,164,81c0,.29,0,.66-.5.33a7.62,7.62,0,0,1-.8-.56C162.47,80.61,162.09,80.47,162.23,80.15Zm.38,5.24c-.05-.15-.15-.32,0-.43A.29.29,0,0,1,163,85l1.85,1.68-.15.15A2.18,2.18,0,0,1,162.61,85.39Zm2.23,2.36c.83-.2.83-.2,1.46.21a16.27,16.27,0,0,0,5.44,2.26A9.93,9.93,0,0,1,164.84,87.75Zm6.83,1.62a14.76,14.76,0,0,1-3.76-1.75,35.23,35.23,0,0,0,7.86.63C174.47,89.11,173.33,90,171.67,89.37Zm2.94.35a19,19,0,0,0,3.86-2.56,7.91,7.91,0,0,0,1.33-1.25,3.62,3.62,0,0,1,2.75-1.39C181.45,87.24,177.5,89.86,174.61,89.72Zm7.16-6L183,81.84C182.93,83.79,183.26,83.33,181.77,83.7Zm.08-2.57c.25-.58.7-.83,1.15-1.35A1.33,1.33,0,0,1,181.85,81.13Zm1-1.67c-.37.33-.76.63-1.12,1s-.37.17-.52-.11c-.34-.64-.69-1.27-1.06-1.9-.15-.26-.16-.48.1-.66.5-.36.79-1.08,1.61-.89-.33-.47,0-.73.29-1.23.11.63.78.89.4,1.51-.1.17.15.19.24.27A1.25,1.25,0,0,1,182.86,79.46ZM189,69.34a37.79,37.79,0,0,1-1.41,8.58,8.49,8.49,0,0,1-2.91,4.53c-.26.19-.54.36-1,.63a21.48,21.48,0,0,0,.62-6,16.55,16.55,0,0,0-.4-3.06,1.56,1.56,0,0,1,.12-1.06,10.29,10.29,0,0,0,.34-7.93,4.59,4.59,0,0,0-.84-1.45,2.53,2.53,0,0,0-2.75-.94c-1.28.37-2.54.84-3.83,1.13a15.76,15.76,0,0,1-8.2-.44c-.78-.24-1.56-.49-2.35-.69a2.73,2.73,0,0,0-3.51,1.76,7,7,0,0,0-.2,4.61.77.77,0,0,1-.13.83,12.38,12.38,0,0,0-3.17,9v.63a10.17,10.17,0,0,1-2-1.63,13.38,13.38,0,0,1-3.8-6.61,4.52,4.52,0,0,0-3.85-3.67,41,41,0,0,0-7.5-.54c-2.68,0-5.36,0-8,0-.61,0-.72-.12-.61-.72.79-4.12.21-7.94-2.74-11.14a15.16,15.16,0,0,0-7.58-4.33,9.79,9.79,0,0,0-4.53-.28c-1.1.23-1.6.91-1.44,1.87.1.58.41.75.95.64a1.12,1.12,0,0,0,.26-.08c2.11-1,4.13-.59,6.18.24,4.78,1.95,8.12,6.86,7.88,11.68a4.71,4.71,0,0,1-1.41,3.26c-.34.34-.87.67-.66,1.22s.86.53,1.35.55a50.11,50.11,0,0,1,5.61.46,7.89,7.89,0,0,1,2.09.57c1,.48,1.25,1.1.6,2a6.75,6.75,0,0,1-4.85,2.92,24.71,24.71,0,0,1-4.63-.15,48,48,0,0,1-8-.87,38.71,38.71,0,0,1-7.52-2.68,11,11,0,0,1-4.79-5.35,24.67,24.67,0,0,1-1.14-2.71,5.08,5.08,0,0,0-4.69-3.44c-.28,0-.56-.06-.84-.07a4.84,4.84,0,0,0-4.53,2c-.62.88-1.21,1.78-1.82,2.67a2.59,2.59,0,0,0-.34,2.28,20.57,20.57,0,0,0,6,9.65,11.42,11.42,0,0,0,4.55,2.1,71.69,71.69,0,0,0,14.79,3,11.6,11.6,0,0,0,3.26-.44c3.77-.78,7,.38,10,2.63.94.72,1,1.28.42,2.32a6.31,6.31,0,0,1-3.32,2.58,19.25,19.25,0,0,1-9.68,1.08,81.24,81.24,0,0,1-15.65-3.34,35.73,35.73,0,0,1-10.83-5.37,15.12,15.12,0,0,1-4.84-6.17,32.89,32.89,0,0,1-2.42-7.08,9.67,9.67,0,0,1-.07-2.94,4.39,4.39,0,0,1,2.81-3.5c1.59-.7,3.28-1.12,4.91-1.69a11.11,11.11,0,0,0,3.45-1.7,3.81,3.81,0,0,0,1.38-2.07,6.7,6.7,0,0,1,1-1.86,4.76,4.76,0,0,0,.75-4,2.49,2.49,0,0,1-.08-1.38c.72-2.68,1.14-5.45,2.74-7.83a18.73,18.73,0,0,1,12.62-8.17,35.47,35.47,0,0,1,17.14,1.3,55.43,55.43,0,0,1,7.55,3.05,1.46,1.46,0,0,1,.88,1.11,27.93,27.93,0,0,0,7.55,13.65,29.71,29.71,0,0,0,13.71,7.63,33.26,33.26,0,0,0,19.79-.83.62.62,0,0,1,.85.28A14.32,14.32,0,0,1,189,69.34ZM197.29,44c-2.52,8.39-8.3,13.34-16.68,15.28A30.89,30.89,0,0,1,160.4,57.2,23.78,23.78,0,0,1,148.48,45a37.79,37.79,0,0,1-3.64-12.6A21.16,21.16,0,0,1,149,17.48c.31-.41.53-.21.8-.05a35.35,35.35,0,0,1,12.63,12,1.24,1.24,0,0,0,1.3.67c1.89-.21,3.79-.35,5.67-.6a33.2,33.2,0,0,1,13.3,1.09c1.78.48,3.58.93,5.36,1.41a.7.7,0,0,0,1-.41,29.17,29.17,0,0,1,8.7-9.33c.38-.27.51-.27.6.24a52.47,52.47,0,0,1,.66,7.79C198.81,34.82,198.64,39.49,197.29,44Z"/><path class="cls-2" d="M136.89,68.46a.28.28,0,0,1,0,.13l-1.44-.17A3.49,3.49,0,0,1,136.89,68.46Z"/><path class="cls-3" d="M165.06,68h0Z"/><path class="cls-3" d="M165.36,67.91h0v0Z"/><path class="cls-2" d="M165.49,68.49s0,0,0,0h0Z"/><path class="cls-2" d="M162.4,72h0v0Z"/><path class="cls-2" d="M165.06,68.06h0Z"/><path class="cls-2" d="M162.4,72l-.09.08V72h.1Z"/><path class="cls-2" d="M169.53,75.18a.68.68,0,0,0,0,.14s0,0,0,0,0-.08,0-.1Z"/><path class="cls-4" d="M143.76,35.88l0,0-.07,0,0-.05Z"/><path class="cls-2" d="M166.58,68.24c0,.09,0,.09-.09.1l-.07-.06A.5.5,0,0,1,166.58,68.24Z"/><path class="cls-1" d="M179.87,55.81c-.23.46-.8.41-1.26.37A3.73,3.73,0,0,1,175.4,54c-.28-.54-.51-1.11-.82-1.63-.46-.76-1-.86-1.68-.27s-1,1-1.44,1.54a2.25,2.25,0,0,1-2.43.7c-.31-.09-.66-.22-.7-.6s.27-.53.53-.68c.65-.37,1.33-.69,2-1.07,1.8-1.08,2.13-2.36,1.11-4.19a11.65,11.65,0,0,0-2-2.54c-.29-.29-.24-.42.08-.61a3.29,3.29,0,0,1,3.42,0,1.49,1.49,0,0,0,1.86-.13,1.53,1.53,0,0,1,1.79,0,5.07,5.07,0,0,1,1.44,1.15,7.66,7.66,0,0,0-2.47,3.44,3.36,3.36,0,0,0,.87,3.73,28.63,28.63,0,0,0,2.29,2C179.57,55,180.11,55.31,179.87,55.81Z"/><path class="cls-1" d="M167,43.63a1.22,1.22,0,0,1-.6-.53,5.24,5.24,0,0,0-5.76-1.88l-.76.17c-.18,0-.38.11-.5-.1s.06-.35.16-.5a3.67,3.67,0,0,1,3.58-1.25A5.82,5.82,0,0,1,167,43.12.6.6,0,0,1,167,43.63Z"/><path class="cls-1" d="M189.5,42c-2.84-.79-5-.13-6.63,2.18a4.26,4.26,0,0,1,2.59-3.4A3.81,3.81,0,0,1,189.5,42Z"/><path class="cls-1" d="M165.36,67.91h0a.24.24,0,0,1,0,.08.08.08,0,0,1,0,0c-.06,0-.13,0-.22,0h0v0c0-.18.11-.26.28-.14Z"/></svg>