<svg id="Vrstva_1" data-name="Vrstva 1" xmlns="http://www.w3.org/2000/svg" viewBox="0 0 50 50"><defs><style>.cls-1{fill:#050505;}.cls-2{fill:#bbefc2;}.cls-3{fill:#020302;}</style></defs><path class="cls-1" d="M35.49,7.77a12.38,12.38,0,0,1-3.32.16c-2.56-.14-5.13-.31-7.69-.48-.18,0-.32,0-.36-.24H21.38a30.34,30.34,0,0,1-5.54.72,11.43,11.43,0,0,0-7.33,4C6.9,13.75,6.92,16,6.66,18.22a12.47,12.47,0,0,1-.48,3.69v3.23c.56,1,.19,2.15.26,3.23.17,2.31.1,4.66.32,7A8.86,8.86,0,0,0,16,43.57c5.4,0,10.8,0,16.19.07,1.74,0,3.48.2,5.21.33,4.11.3,6.14-1.47,6.43-5.56.23-3.23.08-6.46.05-9.7a76.8,76.8,0,0,1,.45-12.77C45,11.39,40.05,6.89,35.49,7.77Zm-.24,33.94c-5.9-.31-11.79-.07-17.68-.15a11.27,11.27,0,0,1-6.92-2.72,5.56,5.56,0,0,1-1.71-4.65c.24-5.11-.23-10.2-.14-15.31A8.7,8.7,0,0,1,15,10.34a10.39,10.39,0,0,1,2.72-.18h8.84v-.08c3.28,0,6.56.05,9.84,0a4.14,4.14,0,0,1,4.16,2.52A9.81,9.81,0,0,1,41.39,20c-1.08,3.76-.61,7.57,0,11.35.18,1.15.36,2.29.48,3.45A6.28,6.28,0,0,1,35.25,41.71Z"/><path class="cls-2" d="M41.87,34.81c-.12-1.16-.3-2.3-.48-3.45-.61-3.78-1.08-7.59,0-11.35a9.81,9.81,0,0,0-.88-7.43,4.14,4.14,0,0,0-4.16-2.52c-3.28.07-6.56,0-9.84,0v.08H17.67a10.39,10.39,0,0,0-2.72.18A8.7,8.7,0,0,0,8.8,18.88c-.09,5.11.38,10.2.14,15.31a5.56,5.56,0,0,0,1.71,4.65,11.27,11.27,0,0,0,6.92,2.72c5.89.08,11.78-.16,17.68.15A6.28,6.28,0,0,0,41.87,34.81ZM40.51,16.22A3.32,3.32,0,0,1,40,18.28q-5.85,9.6-11.68,19.2c-1,1.68-1.33,1.74-3.1,1a11.09,11.09,0,0,1-3.84-2.91c-2.72-3-4.93-6.36-7.86-9.14a16.15,16.15,0,0,1-2.61-2.81c-.85-1.3-.78-1.85.37-2.89,1.74-1.6,1.83-1.59,3.85-.32a10.18,10.18,0,0,1,2.38,2.52q2.76,3.52,5.47,7.08c1.59,2.09,2.35,2.09,3.9-.09,2.48-3.47,4.68-7.14,7.44-10.42,1-1.2,2.13-2.32,3.12-3.53.78-.94,1.74-.8,2.74-.67C40.87,15.4,40.39,16,40.51,16.22Z"/><path class="cls-3" d="M40.51,16.22A3.14,3.14,0,0,1,40,18.27c-3.89,6.41-7.76,12.82-11.67,19.21-1,1.68-1.32,1.74-3.11,1a11,11,0,0,1-3.83-2.9c-2.72-3-4.93-6.36-7.86-9.14a16.61,16.61,0,0,1-2.62-2.81c-.84-1.3-.77-1.85.38-2.9,1.74-1.59,1.84-1.59,3.85-.31a10,10,0,0,1,2.37,2.52c1.85,2.34,3.67,4.71,5.48,7.08,1.59,2.09,2.35,2.09,3.9-.09,2.47-3.48,4.69-7.14,7.44-10.42,1-1.2,2.12-2.32,3.13-3.53.77-.94,1.73-.8,2.73-.67C40.87,15.4,40.39,16,40.51,16.22Z"/></svg>