<svg id="Vrstva_1" data-name="Vrstva 1" xmlns="http://www.w3.org/2000/svg" viewBox="0 0 50 50"><defs><style>.cls-1{fill:#050505;}.cls-2{fill:#bbefc2;}</style></defs><path class="cls-1" d="M22.08,7.21a6,6,0,0,0-1.38.19c-1.59.37-3.24.32-4.86.53a11.43,11.43,0,0,0-7.33,4C6.9,13.75,6.92,16,6.66,18.22a21.52,21.52,0,0,1-.28,3.1A6.52,6.52,0,0,0,6.18,23v1a9.78,9.78,0,0,0,.25,1.86,17.8,17.8,0,0,1,0,2.53c.17,2.31.1,4.66.32,7A8.86,8.86,0,0,0,16,43.57c5.4,0,10.8,0,16.19.07,1.74,0,3.48.2,5.21.33,4.11.3,6.14-1.47,6.43-5.56.23-3.23.08-6.46.05-9.7a76.8,76.8,0,0,1,.45-12.77c.69-4.55-4.25-9-8.81-8.17a12.38,12.38,0,0,1-3.32.16c-2.56-.14-5.13-.31-7.69-.48m11.87,2.61a4.14,4.14,0,0,1,4.16,2.52A9.81,9.81,0,0,1,41.39,20c-1.08,3.76-.61,7.57,0,11.35.18,1.15.36,2.29.48,3.45a6.28,6.28,0,0,1-6.62,6.9c-5.9-.31-11.79-.07-17.68-.15a11.27,11.27,0,0,1-6.92-2.72,5.56,5.56,0,0,1-1.71-4.65c.24-5.11-.23-10.2-.14-15.31A8.7,8.7,0,0,1,15,10.34a10.39,10.39,0,0,1,2.72-.18h8.84"/><path class="cls-2" d="M14.45,20a6,6,0,0,0-.73-.39A6.89,6.89,0,0,1,14.45,20ZM11,21l.22-.21a12.31,12.31,0,0,1,1.1-.94,10.5,10.5,0,0,0-1.1.93Zm-.58,1.91a5.08,5.08,0,0,0,.42.77c.09.14.18.27.28.4l-.27-.4A5.23,5.23,0,0,1,10.44,22.86Zm.22-1.52a1.32,1.32,0,0,0-.22,1.52A1.34,1.34,0,0,1,10.66,21.34Z"/></svg>