<svg id="Vrstva_1" data-name="Vrstva 1" xmlns="http://www.w3.org/2000/svg" viewBox="0 0 50 50"><path d="M36.85,23.13A16.62,16.62,0,0,1,36.79,19a2.31,2.31,0,0,0-.23-1.36,6.21,6.21,0,0,0-5-3.68A35.77,35.77,0,0,0,28,13.62,5.12,5.12,0,0,1,29.74,13a43.63,43.63,0,0,0,5.62-1.65A1.28,1.28,0,0,0,36,9.49a4.9,4.9,0,0,1-.48-2.2A1.07,1.07,0,0,0,34.64,6a3.78,3.78,0,0,0-1.86,0c-.88.24-1.76.46-2.64.68l-16.21,4a6,6,0,0,1-1,.24c-1.14.07-1.32.25-1.42,1.4-.12,1.35.53,2.58.65,3.9a.71.71,0,0,0,.44.6c.86.23.64.77.45,1.34a2.66,2.66,0,0,0-.11,1.45,3.29,3.29,0,0,1,0,1.17,77.22,77.22,0,0,0-.38,13c.12,1.85.53,3.68.48,5.55a4.81,4.81,0,0,0,.51,2.09c.79,1.7,2.27,2.48,4.58,2.29a15.71,15.71,0,0,1,3,0c3.52.38,7-.18,10.54,0a1.84,1.84,0,0,0,.41-.06,5.34,5.34,0,0,0,4.48-5.15A107.42,107.42,0,0,0,36.85,23.13ZM13.24,14.72A14.34,14.34,0,0,0,12.83,13c0-.47.2-.65.64-.77,2.69-.74,5.45-1.23,8.17-1.86q5.53-1.28,11-2.87c1.13-.33,1.36-.18,1.63,1,.07.27.13.54.19.81.18.76.07,1-.67,1.12-6.58,1.33-13,3.28-19.49,4.93C13.63,15.53,13.34,15.44,13.24,14.72Zm22,23.22a5.54,5.54,0,0,1-2.12,3.87,3.43,3.43,0,0,1-2.89.39A32.15,32.15,0,0,0,22.07,42c-1.5.09-3,.44-4.51,0a4.24,4.24,0,0,1-3.13-4.14c.06-3.12.2-6.23,0-10.47V19.75A5.6,5.6,0,0,1,14.55,18a2.44,2.44,0,0,1,1.81-1.8c4.63-1.32,9.36-1.09,14.08-1a6.47,6.47,0,0,1,1.84.37,3.11,3.11,0,0,1,2.1,2,12.72,12.72,0,0,1,.83,5c-.16,3.37.07,6.75.18,10.12A35.08,35.08,0,0,1,35.22,37.94Z"/><path d="M26.34,38.24c0,.25.05.54-.15.74s-.54.71-1,.57-.53-.58-.52-1q.08-8.18.14-16.35a3.34,3.34,0,0,1,.44-1.31.55.55,0,0,1,.64-.3.63.63,0,0,1,.55.56,5.38,5.38,0,0,1,0,.9c0,2.66,0,5.31,0,8h-.12Z"/><path d="M21.32,38.64a.7.7,0,0,1-.78.54c-.42-.06-.55-.38-.55-.76,0-1.8-.11-3.58-.24-5.37-.28-3.62-.54-7.24-.8-10.86,0-.28-.05-.56-.05-.83,0-.53.84-1.3,1.35-1.21s.61.46.63.93c.09,3.16.18,6.33.31,9.49.1,2.28,0,4.56.24,6.76A4,4,0,0,1,21.32,38.64Z"/><path d="M32,21.21c0,.68-.07,1.35-.14,2a127.34,127.34,0,0,0-.24,15.13c0,.51.05,1-.65,1.08a1.26,1.26,0,0,1-1.33-1.15c.13-2.72.27-5.44.44-8.66.06-2.17-.05-4.85.05-7.53,0-.69.48-1.06.81-1.54a.5.5,0,0,1,.64-.09A.73.73,0,0,1,32,21.21Z"/></svg>