<svg id="Vrstva_1" data-name="Vrstva 1" xmlns="http://www.w3.org/2000/svg" viewBox="0 0 50 50"><path d="M40.49,22.6a20.07,20.07,0,0,1-.08-5,2.85,2.85,0,0,0-.28-1.66c-1.14-2.7-3.37-4-6.09-4.5A42.72,42.72,0,0,0,29.66,11a5.74,5.74,0,0,1,2.14-.77,55.17,55.17,0,0,0,6.87-2,1.56,1.56,0,0,0,.8-2.25,6.11,6.11,0,0,1-.59-2.7,1.29,1.29,0,0,0-1.09-1.55,4.52,4.52,0,0,0-2.28,0c-1.07.29-2.15.57-3.23.83L12.47,7.44a7.72,7.72,0,0,1-1.24.3c-1.39.08-1.62.3-1.74,1.7-.14,1.66.65,3.16.79,4.77a.88.88,0,0,0,.54.73c1,.29.79.94.55,1.64a3.24,3.24,0,0,0-.12,1.77,4.35,4.35,0,0,1,0,1.44,95.47,95.47,0,0,0-.46,15.86c.15,2.27.65,4.5.59,6.79A5.77,5.77,0,0,0,12,45c1,2.08,2.77,3,5.6,2.8a18.65,18.65,0,0,1,3.66,0c4.29.46,8.58-.23,12.87,0a2.26,2.26,0,0,0,.51-.08c3.19-.62,5.15-2.86,5.47-6.29A131.93,131.93,0,0,0,40.49,22.6ZM11.64,12.33a18.22,18.22,0,0,0-.51-2.06c0-.58.25-.8.78-.95,3.29-.91,6.66-1.51,10-2.28q6.78-1.55,13.46-3.5c1.38-.4,1.67-.21,2,1.19.08.33.15.66.23,1,.21.92.08,1.18-.83,1.37-8,1.62-15.88,4-23.82,6C12.11,13.31,11.76,13.21,11.64,12.33ZM38.49,40.71a6.74,6.74,0,0,1-2.59,4.72,4.2,4.2,0,0,1-3.53.48,39.47,39.47,0,0,0-9.95-.22c-1.83.1-3.66.54-5.5,0a5.19,5.19,0,0,1-3.84-5.06c.08-3.81.25-7.62-.05-12.79,0-2.2,0-5.76,0-9.31a6.86,6.86,0,0,1,.21-2.12,3,3,0,0,1,2.2-2.2C21.1,12.55,26.88,12.83,32.65,13a8,8,0,0,1,2.25.45,3.81,3.81,0,0,1,2.56,2.41,15.5,15.5,0,0,1,1,6.13c-.18,4.12.1,8.25.23,12.37A44.13,44.13,0,0,1,38.49,40.71Z"/><path d="M27.64,41.07c0,.31.06.66-.18.9s-.66.87-1.26.7-.65-.71-.64-1.25q.09-10,.17-20a4.17,4.17,0,0,1,.54-1.59.68.68,0,0,1,.79-.38.81.81,0,0,1,.67.69,6.83,6.83,0,0,1,.05,1.11V31h-.14Z"/><path d="M21.51,41.56c-.19.47-.47.72-1,.65s-.67-.45-.67-.93c0-2.19-.13-4.37-.3-6.55q-.49-6.64-1-13.27c0-.34-.06-.68-.06-1A1.86,1.86,0,0,1,20.19,19c.63.1.76.57.78,1.14.11,3.86.21,7.73.38,11.6.11,2.78,0,5.57.29,8.26A4.63,4.63,0,0,1,21.51,41.56Z"/><path d="M34.61,20.26c-.06.83-.09,1.65-.18,2.47-.64,6.15-.38,12.32-.29,18.49,0,.62.06,1.26-.79,1.32a1.55,1.55,0,0,1-1.63-1.42c.15-3.32.34-6.64.54-10.58.07-2.65-.07-5.92.06-9.19,0-.84.59-1.3,1-1.88a.61.61,0,0,1,.79-.11A.9.9,0,0,1,34.61,20.26Z"/></svg>