<svg id="Vrstva_1" data-name="Vrstva 1" xmlns="http://www.w3.org/2000/svg" viewBox="0 0 286 100"><defs><style>.cls-1{fill:#fefefe;}.cls-2{fill:#f2f2f2;}.cls-3{fill:#080706;}.cls-4{fill:#f2ac8a;}.cls-5{fill:#060505;}.cls-6{fill:#fbfbfb;}.cls-7{fill:#050505;}.cls-8,.cls-9{fill:none;stroke:#080808;stroke-linecap:round;stroke-linejoin:round;stroke-width:2.42px;}.cls-9{stroke-dasharray:9.98 9.98;}</style></defs><path class="cls-1" d="M202.76,62.87a.06.06,0,0,0,0,0h0v0Z"/><path class="cls-2" d="M203.12,67.1h0Z"/><path class="cls-2" d="M203.79,69h0l0,0Z"/><path class="cls-2" d="M203.79,69v0l0,0Z"/><path class="cls-3" d="M271.28,43.75c-2.12-2.26-2.87-2.13-4,.67-.94,2.23-1.9,4.45-3.07,6.6-3,5.52-4.83,11.48-6.58,17.47-.13.44-.51,1,0,1.32s.89-.23,1.26-.48a6.21,6.21,0,0,0,.79-.75q5.86-5.86,11.71-11.77A23.06,23.06,0,0,0,276,51V49.91A26.77,26.77,0,0,0,271.28,43.75Zm1.3,6.91a.7.7,0,0,1-.07.22,1,1,0,0,1-.12.22l-.17.24a2.24,2.24,0,0,1-.33.38l-.48.51-.37.36-.48.46c-.31.31-.64.61-.95.89l-.93.85-.92.81c-1.52,1.34-3,2.54-4.08,3.53.08-.18.16-.38.25-.57.16-.39.33-.81.51-1.23.27-.64.54-1.31.84-2l.14-.32.47-1.1c.62-1.45,1.3-3,2-4.49.25-.52.49-1,.75-1.53a2.31,2.31,0,0,1,.21-.35h0a.8.8,0,0,1,.21-.26,1.57,1.57,0,0,1,.21-.17.43.43,0,0,1,.4,0,.24.24,0,0,1,.09.06.8.8,0,0,1,.2.15l.1.11a2.43,2.43,0,0,1,.22.29,2.09,2.09,0,0,0,.24.28c.09.09.19.16.28.24s.21.2.31.3.42.38.59.55l.23.24a1.9,1.9,0,0,1,.2.22,1.84,1.84,0,0,1,.19.25.87.87,0,0,1,.14.24.65.65,0,0,1,.08.17v0a.08.08,0,0,1,0,0A.65.65,0,0,1,272.58,50.66Z"/><path class="cls-3" d="M254.73,68.49c-.31-7.64-.67-15.32-1-23a58.21,58.21,0,0,0-.4-11.12c-.42-2.51-1.05-2.75-3-1.17-2.55,2.09-5,4.29-7.52,6.4-2.3,2-2.95,1.78-3.93-1a26.31,26.31,0,0,0-2.07-4.87A54.46,54.46,0,0,1,232.3,24a40.65,40.65,0,0,0-4.07-8.55c-.34-.55-.7-1.26-1.51-1.15s-.94.89-1.15,1.48A22.86,22.86,0,0,1,221.7,23a26.3,26.3,0,0,0-4.55,8.26C216,34.57,214.81,35,211.88,33c-.65-.45-1.28-1-1.88-1.44a42.08,42.08,0,0,0-4.56-3.67c-2.38-1.44-3.62-.89-4.12,1.8,0,.29-.06.61-.08.9a233.26,233.26,0,0,0-1.65,28.8,22.65,22.65,0,0,1-.15,2.74c-.08.92-.37,1.3-1.19.44a10.89,10.89,0,0,0-3.11-2.2c-1.3-.64-2.07-.23-2.4,1.16a8.87,8.87,0,0,0-.11,3.44c.44,3.39,1.15,6.73,1.42,10.14.35,4.5,3.28,7.53,6.52,10a47.39,47.39,0,0,0,9,5.12,32.55,32.55,0,0,0,16.78,3.51,47.63,47.63,0,0,1,10.94.3,8.35,8.35,0,0,0,6.29-1.3c5.29-3.92,9.37-8.68,10.6-15.39A39.83,39.83,0,0,0,254.73,68.49Zm-4-27.38c0,10.48,0,21-.09,31.44a35.33,35.33,0,0,1-.39,4.92,9.35,9.35,0,0,1-2.7,5.47c-1.92,1.88-3.91,3.68-5.79,5.58a9.42,9.42,0,0,1-7.67,2.68c-4.78-.26-9.6-.46-14.4-.63a21.25,21.25,0,0,1-11.24-3.87A28.49,28.49,0,0,0,206.09,85c-5.23-2.84-7.84-7.46-9.07-13-.55-2.54-1.09-5.06-1.64-7.59a3,3,0,0,0,.37-.17c1,.8,1.94,1.63,3,2.34,1.74,1.19,2.95.77,3.7-1.19a14.88,14.88,0,0,0,.61-6.67,94.87,94.87,0,0,1,1.25-24.89c.38-2.12.82-2.24,2.68-1.2A72.77,72.77,0,0,1,213.66,37c2.42,1.71,4.17,1.33,5.39-1.41,1.52-3.38,2.78-6.87,4.23-10.28a26.7,26.7,0,0,1,2.14-4c1-1.56,1.56-1.51,2.22.22,1.4,3.62,2.67,7.29,4.08,10.93a53.76,53.76,0,0,0,4.1,8.93c2.06,3.32,3.76,3.63,6.74,1.23,2-1.59,3.93-3.28,5.9-4.91a4.64,4.64,0,0,1,2.28-1.36Z"/><path class="cls-3" d="M252.93,16.57A42.6,42.6,0,0,0,244.61,14c-1-.1-1.83.15-2,1.36-.48,5-1.78,9.93-.78,15,.16.65,0,1.55.63,1.8.8.33,1.3-.48,1.74-1,2.93-3.57,5.81-7.17,8.69-10.78a6.07,6.07,0,0,0,.86-1.39A1.58,1.58,0,0,0,252.93,16.57Zm-2.48,2.08a.53.53,0,0,1,0,.12.23.23,0,0,1,0,.11,1.21,1.21,0,0,1-.09.2,1.4,1.4,0,0,1-.16.26l-.1.14a.91.91,0,0,1-.13.16,2.11,2.11,0,0,1-.19.23c-.39.44-.87.87-1.23,1.31l-.13.18c-.29.39-.58.77-.88,1.15-.57.76-1.16,1.52-1.76,2.27-.3.38-.59.76-.9,1.14-.1-.05-.21-.08-.33-.13l.63-6.53c0-.3,0-.59.08-.89a2.51,2.51,0,0,1,0-.27,1.59,1.59,0,0,1,.37-.9.21.21,0,0,1,.08-.06.41.41,0,0,1,.2-.12l.08,0a1.31,1.31,0,0,1,.59,0,2.57,2.57,0,0,1,.42.14,3.54,3.54,0,0,0,1,.25,4.87,4.87,0,0,0,.55.06,7.3,7.3,0,0,1,1,.13,1.36,1.36,0,0,1,.42.11.7.7,0,0,1,.17.09.38.38,0,0,1,.13.09.55.55,0,0,1,.19.29A1,1,0,0,1,250.45,18.65Z"/><path class="cls-3" d="M194.49,53.55c-2.38-5.54-6.4-10-9.87-14.82a1.6,1.6,0,0,0-2.51-.4c-1,.8-2,1.61-2.92,2.49-2.62,2.38-2.59,3.37.33,5.28,4.47,2.94,9,5.72,13.55,8.55a5.63,5.63,0,0,0,1.32.61c.47.17.64-.1.62-.61C194.85,54.3,194.65,53.93,194.49,53.55Zm-6-5.39-.31.42s0,0,0,.06h0c-1.88-1.23-3.76-2.45-5.63-3.69l-1.87-1.24-.05,0a.86.86,0,0,1-.07-.1c-.08-.11-.13-.27-.11-.28l.59-.49c.2-.17.39-.33.59-.48s.4-.32.6-.46.42-.3.64-.44l.18-.08.16,0h0l.14,0,.07,0,.09.05a.7.7,0,0,1,.1.08,1.31,1.31,0,0,1,.11.12l.11.13h0c.06.09.12.19.18.27s.07.09.09.13c.74,1,1.49,2,2.21,3l2.2,3Z"/><path class="cls-3" d="M214.87,16.57c-.25-1.77-.67-2.07-2.42-1.59-1,.29-2,.59-3,.95-2,.69-2.47,1.37-2,3.42a16.63,16.63,0,0,0,3.7,7.65c1.26,1.34,1.86,1.26,2.51-.52a30.31,30.31,0,0,0,1.21-7.61A8.74,8.74,0,0,0,214.87,16.57ZM212.54,20c0,.76-.14,1.58-.24,2.52,0,.2-.05.42-.06.64,0,0,0,.08,0,.11a.56.56,0,0,1-.1-.15c-.1-.15-.18-.29-.26-.42-.23-.39-.45-.74-.67-1.09-.1-.17-.21-.33-.3-.49-.39-.65-.76-1.25-1.1-1.84a1.34,1.34,0,0,1-.24-.73.59.59,0,0,1,.09-.32h0a.67.67,0,0,1,.25-.25,2.86,2.86,0,0,1,.82-.33l.49-.14c.38-.1.73-.13,1,.13a.38.38,0,0,1,.09.12.85.85,0,0,1,.15.36,1.63,1.63,0,0,1,.07.26A8,8,0,0,1,212.54,20Z"/><path class="cls-4" d="M270.83,48.22c-.09-.08-.19-.15-.28-.24l.28.24c.11.1.22.2.31.3C271,48.42,270.93,48.33,270.83,48.22Z"/><path class="cls-4" d="M271,52.59l.37-.36-.37.37-.48.45Z"/><path class="cls-4" d="M271.41,52.23l.48-.51C271.76,51.87,271.59,52,271.41,52.23Z"/><path class="cls-4" d="M244.49,25.79c.12.05.23.08.33.13h0Z"/><path class="cls-4" d="M180.61,43.7l1.87,1.24-1.87-1.23-.05,0Z"/><path class="cls-4" d="M212.22,23.29v0a1,1,0,0,1-.1-.17A.56.56,0,0,0,212.22,23.29Z"/><path class="cls-5" d="M240.21,62.33c-1.18.52-2.31,1.11-3.46,1.67-2.71,1.34-2.71,1.34-4-1.38-2.49-5.25-6-9.85-9.4-14.53-.51-.69-1.15-1.33-2.14-1s-1,1.17-1.06,1.94c-.06,1.95,0,3.89,0,5.83h-.24c0,1.64,0,3.29,0,4.94a17.81,17.81,0,0,1-.25,2.17c-.27,2-.39,2.09-2.26,1.44a18,18,0,0,0-9-1.1c-2.71.44-3.61,1.67-2.94,4.32s1.67,5.33,2.32,8a9.42,9.42,0,0,0,5.62,6.5A97.87,97.87,0,0,0,229.85,87c4.31,1.13,6.38,0,8-4.13,1.65-4.31,2.91-8.76,4.14-13.21a25.16,25.16,0,0,0,1.09-5.35C243.15,62,242.29,61.39,240.21,62.33Zm.39,4.75a11,11,0,0,1-.54,1.32c-.56,1.32-1.12,2.65-1.65,4-.17.44-.35.88-.52,1.33-.53,1.34-1,2.7-1.47,4.07-.14.42-.28.83-.41,1.26s-.21.68-.32,1q-.23.75-.42,1.5a5.05,5.05,0,0,1-.18.55,3,3,0,0,1-1.7,1.78,2.72,2.72,0,0,1-.51.13,4.22,4.22,0,0,1-.64,0h-.15l-.31-.07h0l-.68-.16c-1-.24-2-.47-3-.77s-2.24-.69-3.35-1.06-2.22-.72-3.33-1.1-2.22-.76-3.31-1.16-2.2-.82-3.29-1.24c-.32-.12-.62-.25-.9-.38a7.11,7.11,0,0,1-.82-.44l-.55-.37c-.17-.14-.34-.27-.49-.42a2,2,0,0,1-.29-.3,3.61,3.61,0,0,1-.25-.3,3.66,3.66,0,0,1-.41-.66c0-.07-.07-.14-.1-.22a3.91,3.91,0,0,1-.25-.73c0-.14-.07-.29-.1-.45a8,8,0,0,1-.08-1.14c0-.27,0-.54,0-.82s0-.41-.05-.62,0-.46-.07-.69c-.14-1.16-.37-2.33-.55-3.47s.15-1.83,1-2.06a2.5,2.5,0,0,1,.76-.1h.15l.56,0c.35,0,.68.06,1,.11a20,20,0,0,1,3,.63c.54.14,1.08.29,1.61.46.34.1.67.19,1,.31h0l1,.29.55.17.5.11a3.83,3.83,0,0,0,.43.07l.35,0a1.28,1.28,0,0,0,.72-.18.35.35,0,0,0,.1-.08l0,0a.35.35,0,0,0,.08-.1,2.27,2.27,0,0,0,.23-1.41,2.45,2.45,0,0,0,0-.27c0-.11,0-.24,0-.36s0-.25,0-.37c0-.3-.09-.59-.13-.89-.12-.79-.2-1.59-.28-2.37,0-.27-.06-.52-.07-.79s-.06-.59-.07-.89,0-.46,0-.69l0-.78c0-.5,0-1,0-1.51s0-.76.06-1.13.06-.76.1-1.14a1.85,1.85,0,0,0,0-.24c0-.08,0-.17,0-.26s0-.33,0-.49a1.15,1.15,0,0,1,.08-.28.66.66,0,0,1,.28-.36h0a.67.67,0,0,1,.24-.1h0l.2,0h.14l.1,0,.08,0a.78.78,0,0,1,.31.29.71.71,0,0,1,.1.14,1.29,1.29,0,0,1,.09.16c.08.14.15.29.22.43l.1.2c1,1.71,1.94,3.43,2.9,5.15.5.87,1,1.73,1.47,2.59s1,1.71,1.48,2.56c.17.28.33.54.5.78a7.92,7.92,0,0,0,.85,1.1,3.11,3.11,0,0,0,.35.37,3.7,3.7,0,0,0,.74.56l.36.19a3.52,3.52,0,0,0,.42.15l.41.08.44,0a8.37,8.37,0,0,0,3.63-1.16c.76-.4,1.65-1.34,2.44-.65A1.08,1.08,0,0,1,240.6,67.08Z"/><path class="cls-6" d="M214.76,78.51c1.09.42,2.18.84,3.29,1.24-1.1-.4-2.19-.81-3.29-1.23-.32-.13-.62-.25-.9-.39C214.14,78.26,214.44,78.39,214.76,78.51Z"/><path class="cls-6" d="M222.31,54.57c0,.38-.08.76-.1,1.14,0-.38.06-.76.09-1.14a1.79,1.79,0,0,0,0-.24A1.85,1.85,0,0,1,222.31,54.57Z"/><path class="cls-6" d="M222.76,64.76c0-.3-.09-.59-.12-.89,0,.3.09.59.13.89,0,.12,0,.24,0,.37Z"/><path class="cls-6" d="M224.33,54.12c1,1.71,1.93,3.43,2.89,5.15-1-1.72-1.92-3.44-2.9-5.15l-.1-.2C224.26,54,224.29,54.05,224.33,54.12Z"/><path class="cls-6" d="M230.18,64.42c.17.28.33.54.49.78-.17-.24-.33-.5-.5-.78-.5-.85-1-1.7-1.48-2.56C229.18,62.72,229.68,63.57,230.18,64.42Z"/><path class="cls-6" d="M232.09,84.07h0l-1-.24Z"/><path class="cls-6" d="M232.23,84.07a3.34,3.34,0,0,0,.65,0,4.22,4.22,0,0,1-.64,0Z"/><path class="cls-7" d="M146.05,28.28c-.82,1.35-1.81.95-2.86.32-2.16-1.33-4.35-2.61-6.49-4-.81-.51-1.17-.35-1.58.5-.92,1.91-2,3.75-2.93,5.67a17.47,17.47,0,0,1-2.42,3.09,1.33,1.33,0,0,1-1.92.23,1.48,1.48,0,0,1-.45-2c.72-1.45,1.49-2.87,2.24-4.31.85-1.61,1.66-3.25,2.57-4.84.44-.75.28-1.13-.39-1.57-2.19-1.39-4.33-2.84-6.49-4.24-.88-.58-1.64-1.25-1-2.35s1.67-.87,2.63-.33c2.12,1.21,4.28,2.34,6.35,3.61.89.54,1.28.54,1.79-.46,1.19-2.35,2.53-4.63,3.8-6.94a1.63,1.63,0,0,1,1.88-1,1.31,1.31,0,0,1,1.05,1.21,2.79,2.79,0,0,1-.31,1.56,53.86,53.86,0,0,1-3.39,6.8c-.48.92-.42,1.35.54,1.88,2.27,1.24,4.46,2.61,6.67,4C146.77,26,146.92,26.8,146.05,28.28Z"/><path class="cls-7" d="M152.07,27.34c-.58-2.55-1.46-5-2.25-7.49a62.88,62.88,0,0,1-2.65-10c-.54-3.67-5.4-6-8.71-4.23a10.73,10.73,0,0,1-2.52.91c-2,.49-4,1-6.05,1.44-.14,0-.25,0-.33-.1l-2.11.64a24.42,24.42,0,0,1-4.1,1.86,9.18,9.18,0,0,0-4.71,4.79,6,6,0,0,0-.27,3.61c.1.56.22,1.12.32,1.68a9.93,9.93,0,0,1,.5,3L120,26c.67.67.65,1.62,1,2.43.67,1.75,1.17,3.57,1.88,5.29a7.14,7.14,0,0,0,9,4.19c4.17-1.23,8.32-2.53,12.5-3.75,1.34-.4,2.72-.67,4.09-1C151.66,32.4,152.81,30.56,152.07,27.34Zm-5.82,4.55c-4.62,1.15-9.1,2.72-13.66,4a9.1,9.1,0,0,1-6-.46,4.49,4.49,0,0,1-2.41-3.19c-1-4-2.58-7.81-3.72-11.76a7,7,0,0,1,2.74-8,8.07,8.07,0,0,1,2-.77l6.82-2.08,0-.07c2.53-.77,5.07-1.5,7.58-2.33a3.35,3.35,0,0,1,3.8,1,7.91,7.91,0,0,1,2.43,5.52c.05,3.15,1.31,6,2.66,8.75.41.85.82,1.68,1.19,2.55A5.05,5.05,0,0,1,146.25,31.89Z"/><path class="cls-8" d="M45.5,43.5c.77-.6,2.19-1.67,4-3"/><path class="cls-9" d="M57.63,34.71a103.72,103.72,0,0,1,12.05-7.33,94,94,0,0,1,39.4-9.3"/><path class="cls-8" d="M114.07,18.24A21.81,21.81,0,0,1,119,19"/><path d="M58.47,81.28l-.8-1.55c-1.93-3.75-3-5.71-3.52-6.56-1.33-2-.07-.31-8.63-15.41a27.91,27.91,0,0,0-3.42-4.85,28.2,28.2,0,0,0-3.38-3.2C35.79,47.35,25.43,39,21.24,41.93c-2.19,1.53-1.87,5.57-1.45,7.44,1.52,6.72,9.71,8.71,10.1,8.79,4.89,1.11,5.8-1.51,9-.23,2.88,1.13,3.83,3.86,5.91,8.74-1.58,1.75-3.69,5.9-7.71,11-1.16,1.48-2.25,2.73-3.09,3.75-.3.38-.58.73-.81,1-1.68-.1-3.53,0-4.33,1.23a3,3,0,0,0-.34,2.35,1.79,1.79,0,0,1,.55-.28,1.55,1.55,0,0,1,1.7.48,1.44,1.44,0,0,1-.19,1.65,37.6,37.6,0,0,0,6-.26c.91,0,1.93-.1,3.05-.11a119.38,119.38,0,0,1,12.13.14,11.84,11.84,0,0,1,1.87.32A4.79,4.79,0,0,0,57,87.91a5.05,5.05,0,0,0,2-1.73h0a2.53,2.53,0,0,0,.26-.52s0,0,0,0a.24.24,0,0,0,.05-.1.88.88,0,0,0,.12-.15C60,84.35,59.31,82.91,58.47,81.28Zm-5.17,2a113.46,113.46,0,0,1-16.18-.36c1.5-1.62,2.3-4.22,4.86-7.87,1.59-2.28,3.17-4,4.24-5.29.82,1.79,1.8,3.78,3.06,6,2.21,4,2,2.94,3.44,5.67.29.57.54,1.1.77,1.57l.12.26Z"/><path d="M67.85,82.05c-2-3.17-6.4-3.5-9.26-2.65a7.77,7.77,0,0,0-.92.33A10.3,10.3,0,0,0,53.49,83l-.19.26a7.14,7.14,0,0,0-1.46,4.41,4.07,4.07,0,0,0,.13,1c1.14,4.44,8.71,7.12,13.24,4C68.3,90.48,70.1,85.52,67.85,82.05Zm-6,5.65a2,2,0,0,1-2.91-.87,1.2,1.2,0,0,1,0-.65h0a1.28,1.28,0,0,1,.26-.52s0,0,0,0a2.25,2.25,0,0,1,1.15-.83,1.63,1.63,0,0,1,1.45,2.91Z"/><path d="M36,83.2a5,5,0,0,0-2-1.77,7.91,7.91,0,0,0-5.61-.4C25,82,22.26,85.68,23,88.62c.93,3.64,7.14,5.84,10.85,3.26a7.34,7.34,0,0,0,2.8-4.24A5.64,5.64,0,0,0,36,83.2Zm-5.7,5a1.69,1.69,0,0,1-2.42-.73,1.44,1.44,0,0,1,.66-1.4h0a1.79,1.79,0,0,1,.55-.28,1.55,1.55,0,0,1,1.7.48,1.44,1.44,0,0,1-.19,1.65A1.37,1.37,0,0,1,30.33,88.19Z"/></svg>