<svg id="Vrstva_1" data-name="Vrstva 1" xmlns="http://www.w3.org/2000/svg" viewBox="0 0 75 50"><defs><style>.cls-1{fill:#010101;}.cls-2{fill:#7188d8;}.cls-3{fill:#010102;}.cls-4{fill:#fdfdfd;}</style></defs><path class="cls-1" d="M62.4,36c-.22-1.86-.44-3.72-.69-5.58A42.91,42.91,0,0,0,60.2,23c-.56-1.75-1.12-3.49-1.83-5.18a17.34,17.34,0,0,0-3.12-4.73,13.27,13.27,0,0,0-3.7-3,8.06,8.06,0,0,0-3-1,8.69,8.69,0,0,0-2.28.11c-1.28.21-2.54.51-3.81.71a32.24,32.24,0,0,1-4.28.37c-1.72,0-3.45-.08-5.17-.12-1.16,0-2.33-.05-3.49-.09L25.1,9.94a9,9,0,0,0-3.49.42A7.34,7.34,0,0,0,18.2,13a10.37,10.37,0,0,0-1.83,3.76c-.16.73-.24,1.47-.34,2.2a29.31,29.31,0,0,1-1.81,7,9.7,9.7,0,0,0-.65,4.26,12,12,0,0,0,.86,4.1,7.65,7.65,0,0,0,3,3.61,45.62,45.62,0,0,0,7.62,3.9,8.23,8.23,0,0,0,2.13.54s0,0,0,0h.42l0,0a1,1,0,0,0,.89-.54c.32-.49.62-1,1-1.46A3.33,3.33,0,0,0,30,38.85a3,3,0,0,1,.14-.73.82.82,0,0,1,.92-.58,16.3,16.3,0,0,1,3.09.71A29.34,29.34,0,0,0,39,39.32a9.91,9.91,0,0,0,5.79-1,4.2,4.2,0,0,1,1-.37.85.85,0,0,1,1.09.62,12.06,12.06,0,0,0,1.28,2.72,2.12,2.12,0,0,0,2.14,1.05,17,17,0,0,0,3-.6c1.91-.49,3.83-.9,5.76-1.26a15.43,15.43,0,0,0,1.66-.4,2.5,2.5,0,0,0,1.72-2c0-.08,0-.16.07-.22V36.62A3,3,0,0,1,62.4,36Zm-3.24,1.32c-.66.22-1.35.33-2,.5a16.63,16.63,0,0,0-4.2,1.76,8.74,8.74,0,0,1-1.09.58,1.11,1.11,0,0,1-1.61-.57,2.12,2.12,0,0,1,.23-2.45c.58-.65,1.16-1.29,1.8-1.88a1.31,1.31,0,0,0,.56-1.09,1.77,1.77,0,0,0-.37-1,1,1,0,0,0-1.29-.34,5.24,5.24,0,0,0-1.16.75,18.61,18.61,0,0,1-2.45,1.77c-1,.55-2,1.11-3.08,1.58a8.82,8.82,0,0,1-3.55.74,22.74,22.74,0,0,1-7.46-1.08,15.38,15.38,0,0,1-5-2.8A13.24,13.24,0,0,0,25.84,32,5.5,5.5,0,0,0,24,31.4a1.19,1.19,0,0,0-1,.43.51.51,0,0,0-.08.59,3.3,3.3,0,0,0,.47.7,18,18,0,0,0,2.44,2.18c.65.51,1.32,1,2,1.43a1.79,1.79,0,0,1,.68,2.47,2.19,2.19,0,0,1-1.53,1.44,1.73,1.73,0,0,1-1.2-.17A9.48,9.48,0,0,1,24,39.36a53.07,53.07,0,0,0-5.71-3.82l-1.35-.75a1.76,1.76,0,0,1-.85-1.14,19.57,19.57,0,0,1-.58-3.73A8.49,8.49,0,0,1,16,26.8c.45-1.48.94-2.95,1.35-4.45a16.92,16.92,0,0,0,.41-2.66,12.89,12.89,0,0,1,1.65-5.3,5.81,5.81,0,0,1,.89-1.09,3.5,3.5,0,0,1,2.74-1c1.75.1,3.49.18,5.23.13,1.49,0,3-.2,4.43-.38A20.15,20.15,0,0,1,34.75,12a41.42,41.42,0,0,1,4.59.16,14.26,14.26,0,0,0,4.59-.53,7.12,7.12,0,0,1,2.47-.28A8.93,8.93,0,0,1,49,12a31.2,31.2,0,0,1,4.26,2.2,9.29,9.29,0,0,1,3.66,4.34,29.74,29.74,0,0,1,1.45,4.33c.43,1.65.88,3.3,1.23,5a15.35,15.35,0,0,1,.21,2,27.67,27.67,0,0,0,.39,2.86,23.66,23.66,0,0,1,.41,2.38.68.68,0,0,1,0,.12A1.89,1.89,0,0,1,59.16,37.27Z"/><path class="cls-2" d="M60.59,35.12a23.66,23.66,0,0,0-.41-2.38,27.67,27.67,0,0,1-.39-2.86,15.35,15.35,0,0,0-.21-2c-.35-1.67-.8-3.32-1.23-5a29.74,29.74,0,0,0-1.45-4.33,9.29,9.29,0,0,0-3.66-4.34A31.2,31.2,0,0,0,49,12a8.93,8.93,0,0,0-2.58-.67,7.12,7.12,0,0,0-2.47.28,14.26,14.26,0,0,1-4.59.53A41.42,41.42,0,0,0,34.75,12a20.15,20.15,0,0,0-2.06.11c-1.47.18-2.94.34-4.43.38-1.74,0-3.48,0-5.23-.13a3.5,3.5,0,0,0-2.74,1,5.81,5.81,0,0,0-.89,1.09,12.89,12.89,0,0,0-1.65,5.3,16.92,16.92,0,0,1-.41,2.66c-.41,1.5-.9,3-1.35,4.45a8.49,8.49,0,0,0-.48,3.12,19.57,19.57,0,0,0,.58,3.73,1.76,1.76,0,0,0,.85,1.14l1.35.75A53.07,53.07,0,0,1,24,39.36a9.48,9.48,0,0,0,1.69,1.11,1.73,1.73,0,0,0,1.2.17,2.19,2.19,0,0,0,1.53-1.44,1.79,1.79,0,0,0-.68-2.47c-.68-.45-1.35-.92-2-1.43a18,18,0,0,1-2.44-2.18,3.3,3.3,0,0,1-.47-.7.51.51,0,0,1,.08-.59,1.19,1.19,0,0,1,1-.43,5.5,5.5,0,0,1,1.89.56,13.24,13.24,0,0,1,2.64,1.8,15.38,15.38,0,0,0,5,2.8,22.74,22.74,0,0,0,7.46,1.08,8.82,8.82,0,0,0,3.55-.74c1.06-.47,2.07-1,3.08-1.58A18.61,18.61,0,0,0,50,33.55a5.24,5.24,0,0,1,1.16-.75,1,1,0,0,1,1.29.34,1.77,1.77,0,0,1,.37,1,1.31,1.31,0,0,1-.56,1.09c-.64.59-1.22,1.23-1.8,1.88a2.12,2.12,0,0,0-.23,2.45,1.11,1.11,0,0,0,1.61.57,8.74,8.74,0,0,0,1.09-.58,16.63,16.63,0,0,1,4.2-1.76c.67-.17,1.36-.28,2-.5a1.89,1.89,0,0,0,1.44-2A.68.68,0,0,0,60.59,35.12ZM33.75,27.8l-.44.08a5,5,0,0,1-.86,0,6.4,6.4,0,0,1-1.69-.19,2.66,2.66,0,0,1-2.08-3.15,4.88,4.88,0,0,1,2.13-3.41,2.4,2.4,0,0,1,3.42.45,6.45,6.45,0,0,1,1.48,3.6A2.27,2.27,0,0,1,33.75,27.8Zm11.78.5a2.59,2.59,0,0,1-2.89-.47,5.59,5.59,0,0,1-1.35-2.33,8.09,8.09,0,0,1-.4-2.34,4.29,4.29,0,0,1,.19-1.46,1.4,1.4,0,0,1,1.91-1,5.27,5.27,0,0,1,2.26,1.42,6.3,6.3,0,0,1,1.68,2.94,3.29,3.29,0,0,1,.11.8A2.4,2.4,0,0,1,45.53,28.3Z"/><path class="cls-1" d="M46.93,25.06a6.3,6.3,0,0,0-1.68-2.94A5.27,5.27,0,0,0,43,20.7a1.4,1.4,0,0,0-1.91,1,4.29,4.29,0,0,0-.19,1.46,8.09,8.09,0,0,0,.4,2.34,5.59,5.59,0,0,0,1.35,2.33,2.59,2.59,0,0,0,2.89.47A2.4,2.4,0,0,0,47,25.86,3.29,3.29,0,0,0,46.93,25.06ZM44.56,27.2a.79.79,0,0,1-1.23,0,4.46,4.46,0,0,1-.88-1.5,8.61,8.61,0,0,1-.62-2.16,1.6,1.6,0,0,1,0-.49.5.5,0,0,1,.57-.49,2.22,2.22,0,0,1,1,.22,3.29,3.29,0,0,1,1.82,1.64,1.78,1.78,0,0,1,.18.85A2.66,2.66,0,0,1,44.56,27.2Z"/><path class="cls-3" d="M35.71,25.21a6.45,6.45,0,0,0-1.48-3.6,2.4,2.4,0,0,0-3.42-.45,4.88,4.88,0,0,0-2.13,3.41,2.66,2.66,0,0,0,2.08,3.15,6.4,6.4,0,0,0,1.69.19,5,5,0,0,0,.86,0l.44-.08A2.27,2.27,0,0,0,35.71,25.21Zm-1.61.85a2.9,2.9,0,0,1-1.78.58,2.75,2.75,0,0,1-2.61-2A1.46,1.46,0,0,1,30,23.42a5.11,5.11,0,0,1,1-1,12,12,0,0,1,1-.76.88.88,0,0,1,1.27.1,6.2,6.2,0,0,1,1.51,2.72A1.43,1.43,0,0,1,34.1,26.06Z"/><path class="cls-4" d="M45.42,25.23a2.66,2.66,0,0,1-.86,2,.79.79,0,0,1-1.23,0,4.46,4.46,0,0,1-.88-1.5,8.61,8.61,0,0,1-.62-2.16,1.6,1.6,0,0,1,0-.49.5.5,0,0,1,.57-.49,2.22,2.22,0,0,1,1,.22,3.29,3.29,0,0,1,1.82,1.64A1.78,1.78,0,0,1,45.42,25.23Z"/><path class="cls-4" d="M32.32,26.64a2.75,2.75,0,0,1-2.61-2A1.46,1.46,0,0,1,30,23.42a5.11,5.11,0,0,1,1-1,12,12,0,0,1,1-.76.88.88,0,0,1,1.27.1,6.2,6.2,0,0,1,1.51,2.72,1.43,1.43,0,0,1-.64,1.55A2.9,2.9,0,0,1,32.32,26.64Z"/></svg>