<svg id="Vrstva_1" data-name="Vrstva 1" xmlns="http://www.w3.org/2000/svg" viewBox="0 0 50 50">
    <defs>
        <style>
            :root.dark{
            --cls-1-color:#D8D8D8;
            }
            :root{
            --cls-1-color:#040404;
            }
            .cls-1{fill:var(--cls-1-color);}
        </style>
    </defs>
    <path class="cls-1"
          d="M36,24.31a2,2,0,0,0,.18,2.91A13.32,13.32,0,0,0,38.57,29,7.12,7.12,0,0,1,40,30.11a2,2,0,0,1-1.08,3.13,1,1,0,0,1-1.25-.65c-.35-.75-.65-1.53-1-2.28a3.34,3.34,0,0,0-3.3-2.26A4.36,4.36,0,0,0,29,31a5.07,5.07,0,0,0,.16,2.32c.15.65.35,1.3.44,2,.13.91-.3,1.36-1.21,1.4a2.42,2.42,0,0,1-2.67-2.84c0-.35.11-.7.14-1a3,3,0,0,0-2.1-3.39,5.36,5.36,0,0,0-3.09-.34,3.26,3.26,0,0,0-2.58,2.18c-.28.76-.52,1.53-.8,2.28a1.43,1.43,0,0,1-1.47,1,2.19,2.19,0,0,1-1.95-1.09c-.39-.69-.05-1.25.37-1.77s.87-.95,1.29-1.45a2.22,2.22,0,0,0-.24-3.52A11.89,11.89,0,0,0,12.35,25c-.74-.37-1.51-.71-2.22-1.13-1.39-.82-1.7-1.74-1-2.84A2.63,2.63,0,0,1,12.72,20a9.48,9.48,0,0,1,1.85,1.67A16.29,16.29,0,0,0,25,27a11,11,0,0,0,9.27-3,11.58,11.58,0,0,0,2-3.3,3,3,0,0,1,3.55-1.86c.51.08,1.06.19,1.24.75s-.25.95-.66,1.26c-1,.71-1.93,1.38-2.89,2.07A7.08,7.08,0,0,0,36,24.31Z"/>
</svg>