<svg id="Vrstva_1" data-name="Vrstva 1" xmlns="http://www.w3.org/2000/svg" viewBox="0 0 50 50"><defs><style>.cls-1{fill:#050505;}.cls-2{fill:#010101;}</style></defs><path class="cls-1" d="M39.79,19.6A30.87,30.87,0,0,0,32,13.88c-3.9-2-7.91-2.61-12-.66A22.79,22.79,0,0,0,9.81,23.35a4.39,4.39,0,0,0,0,4.22c3,6,7.91,9,14.51,9.4a13.58,13.58,0,0,0,3.82-.49,20.16,20.16,0,0,0,12.6-10.31A5.07,5.07,0,0,0,39.79,19.6Zm-1.3,6.94a19.81,19.81,0,0,1-11.92,7.93,11.92,11.92,0,0,1-2.73.26c-4.44,0-7.82-2.09-10.53-5.45a17.72,17.72,0,0,1-1.14-1.59,3.81,3.81,0,0,1,.3-4.66,53.68,53.68,0,0,1,7.14-6.92c2.76-2.3,5.92-2.51,9.24-1.46a20.27,20.27,0,0,1,9.46,6.29A4,4,0,0,1,38.49,26.54Z"/><path class="cls-2" d="M28.06,31.79a7.07,7.07,0,0,1-8.31-1.9,19.18,19.18,0,0,1-1.61-2.21,4.47,4.47,0,0,1-.84-2.61,13.11,13.11,0,0,1,1.42-5.84,6.05,6.05,0,0,1,5.89-3.5c3.13.11,5.76,1.05,7.33,4C34.28,24.18,32.45,30,28.06,31.79Z"/></svg>