<svg id="Vrstva_1" data-name="Vrstva 1" xmlns="http://www.w3.org/2000/svg" viewBox="0 0 50 50">
    <defs>
        <style>
            :root.dark{
            --cls-1-color:#bbefc2;
            }
            :root{
            --cls-1-color:#030303;
            }
            .cls-1{fill:var(--cls-1-color);}
        </style>
    </defs>
    <path class="cls-1"
          d="M38.82,15.72C35,22,31.19,28.24,27.4,34.52a1.72,1.72,0,0,1-2.45.81,11,11,0,0,1-4-2.9c-2.64-2.84-4.76-6.11-7.59-8.79A16.67,16.67,0,0,1,10.9,21a1.72,1.72,0,0,1,.32-2.58C13,16.8,13.14,16.76,15.06,18a6.52,6.52,0,0,1,1.51,1.5q3,3.88,6,7.77c1.36,1.76,2.14,1.76,3.43-.05,2.94-4.1,5.55-8.46,9-12.16.58-.61,1.18-1.2,1.78-1.78a1,1,0,0,1,.68-.28h.79a1,1,0,0,1,1,.75A2.78,2.78,0,0,1,38.82,15.72Z"/>
</svg>