<svg id="Vrstva_1" data-name="Vrstva 1" xmlns="http://www.w3.org/2000/svg" viewBox="0 0 286 100">
    <defs>
        <style>
            .cls-1{fill:#fefefe;}
            .cls-2{fill:#f2f2f2;}
            .cls-3{fill:#050505;}
            .cls-4,.cls-5{
            fill:none;stroke:#080808;
            stroke-linecap:round;
            stroke-linejoin:round;
            stroke-width:2.42px;}
            .cls-5{stroke-dasharray:9.98 9.98;}
        </style>
    </defs>
    <path class="cls-1" d="M202.76,62.87a.06.06,0,0,0,0,0h0v0Z"/>
    <path class="cls-2" d="M203.12,67.1h0Z"/>
    <path class="cls-2" d="M203.79,69h0l0,0Z"/>
    <path class="cls-2" d="M203.79,69v0l0,0Z"/>
    <path d="M214.39,83.82c.45,4.86,3.23,8,7.76,8.92a3.59,3.59,0,0,0,.72.11c6.08-.33,12.16.63,18.24,0a27.26,27.26,0,0,1,5.19,0c4,.33,6.56-1,7.93-4a8.07,8.07,0,0,0,.87-3.61c-.08-3.24.63-6.41.85-9.62a135.07,135.07,0,0,0-.66-22.48,6,6,0,0,1,0-2,4.57,4.57,0,0,0-.18-2.51c-.33-1-.71-1.92.78-2.33a1.24,1.24,0,0,0,.77-1c.2-2.28,1.32-4.4,1.12-6.75-.17-2-.49-2.3-2.47-2.42a10.22,10.22,0,0,1-1.76-.42L225.5,28.69c-1.53-.38-3.05-.77-4.57-1.18a6.43,6.43,0,0,0-3.23-.05,1.83,1.83,0,0,0-1.55,2.2,8.7,8.7,0,0,1-.84,3.83c-.55,1.4-.25,2.58,1.14,3.19,3.12,1.36,6.48,1.94,9.74,2.87a8.37,8.37,0,0,1,3,1.09c-2.07.19-4.18.22-6.21.61-3.86.73-7,2.56-8.63,6.38A4.15,4.15,0,0,0,214,50c.47,2.38,0,4.75-.11,7.11A187.65,187.65,0,0,0,214.39,83.82Zm38.53-40.18c-11.26-2.84-22.37-6.23-33.76-8.53-1.28-.26-1.47-.63-1.17-1.93l.33-1.41c.47-2,.87-2.25,2.84-1.68q9.47,2.76,19.06,5c4.72,1.09,9.48,1.94,14.15,3.23.75.21,1.15.52,1.11,1.34a24.88,24.88,0,0,0-.72,2.92C254.59,43.79,254.09,43.94,252.92,43.64ZM216.41,73.7c.18-5.85.58-11.7.31-17.54a21.89,21.89,0,0,1,1.44-8.69c.65-1.77.43-1,2.18-1.58,1-.33,5.16.64,6.08,1.22,13.6,8.56,14.59-1.22,23-2,1.83-.17,2.62,1.55,3.12,3.12a9.78,9.78,0,0,1,.29,3c0,5,0,10.09,0,13.2-.43,7.33-.2,12.73-.08,18.13a7.32,7.32,0,0,1-5.44,7.16c-2.61.84-5.2.22-7.8.08-4.7-.26-9.4-.62-14.1.31-1.67.32-3.51.49-5-.68a9.65,9.65,0,0,1-3.68-6.69A60.93,60.93,0,0,1,216.41,73.7Z"/>
    <path d="M232.08,83.27c0,.44-.09.93.25,1.28s.94,1.23,1.79,1,.91-1,.91-1.77q-.14-14.16-.25-28.31a5.81,5.81,0,0,0-.76-2.27,1,1,0,0,0-1.12-.53,1.12,1.12,0,0,0-1,1,10.32,10.32,0,0,0-.07,1.57V69h.2Z"/>
    <path d="M240.76,84c.27.66.67,1,1.36.92s1-.64.95-1.32c0-3.1.19-6.19.42-9.29.48-6.27.93-12.53,1.39-18.8,0-.48.07-1,.08-1.45a2.63,2.63,0,0,0-2.33-2.09c-.89.14-1.07.8-1.09,1.61-.16,5.48-.31,11-.54,16.44-.17,3.94,0,7.9-.41,11.71A6.73,6.73,0,0,0,240.76,84Z"/>
    <path d="M222.2,53.78c.08,1.17.13,2.34.25,3.5.92,8.72.54,17.46.41,26.2,0,.88-.08,1.79,1.13,1.88a2.21,2.21,0,0,0,2.31-2c-.22-4.71-.48-9.42-.77-15-.1-3.75.09-8.39-.08-13,0-1.2-.84-1.84-1.41-2.67a.85.85,0,0,0-1.11-.16A1.26,1.26,0,0,0,222.2,53.78Z"/>
    <path class="cls-3"
          d="M146.05,28.28c-.82,1.35-1.81.95-2.86.32-2.16-1.33-4.35-2.61-6.49-4-.81-.51-1.17-.35-1.58.5-.92,1.91-2,3.75-2.93,5.67a17.47,17.47,0,0,1-2.42,3.09,1.33,1.33,0,0,1-1.92.23,1.48,1.48,0,0,1-.45-2c.72-1.45,1.49-2.87,2.24-4.31.85-1.61,1.66-3.25,2.57-4.84.44-.75.28-1.13-.39-1.57-2.19-1.39-4.33-2.84-6.49-4.24-.88-.58-1.64-1.25-1-2.35s1.67-.87,2.63-.33c2.12,1.21,4.28,2.34,6.35,3.61.89.54,1.28.54,1.79-.46,1.19-2.35,2.53-4.63,3.8-6.94a1.63,1.63,0,0,1,1.88-1,1.31,1.31,0,0,1,1.05,1.21,2.79,2.79,0,0,1-.31,1.56,53.86,53.86,0,0,1-3.39,6.8c-.48.92-.42,1.35.54,1.88,2.27,1.24,4.46,2.61,6.67,4C146.77,26,146.92,26.8,146.05,28.28Z"/>
    <path class="cls-3"
          d="M152.07,27.34c-.58-2.55-1.46-5-2.25-7.49a62.88,62.88,0,0,1-2.65-10c-.54-3.67-5.4-6-8.71-4.23a10.73,10.73,0,0,1-2.52.91c-2,.49-4,1-6.05,1.44-.14,0-.25,0-.33-.1l-2.11.64a24.42,24.42,0,0,1-4.1,1.86,9.18,9.18,0,0,0-4.71,4.79,6,6,0,0,0-.27,3.61c.1.56.22,1.12.32,1.68a9.93,9.93,0,0,1,.5,3L120,26c.67.67.65,1.62,1,2.43.67,1.75,1.17,3.57,1.88,5.29a7.14,7.14,0,0,0,9,4.19c4.17-1.23,8.32-2.53,12.5-3.75,1.34-.4,2.72-.67,4.09-1C151.66,32.4,152.81,30.56,152.07,27.34Zm-5.82,4.55c-4.62,1.15-9.1,2.72-13.66,4a9.1,9.1,0,0,1-6-.46,4.49,4.49,0,0,1-2.41-3.19c-1-4-2.58-7.81-3.72-11.76a7,7,0,0,1,2.74-8,8.07,8.07,0,0,1,2-.77l6.82-2.08,0-.07c2.53-.77,5.07-1.5,7.58-2.33a3.35,3.35,0,0,1,3.8,1,7.91,7.91,0,0,1,2.43,5.52c.05,3.15,1.31,6,2.66,8.75.41.85.82,1.68,1.19,2.55A5.05,5.05,0,0,1,146.25,31.89Z"/>
    <path class="cls-4" d="M45.5,43.5c.77-.6,2.19-1.67,4-3"/>
    <path class="cls-5" d="M57.63,34.71a103.72,103.72,0,0,1,12.05-7.33,94,94,0,0,1,39.4-9.3"/>
    <path class="cls-4" d="M114.07,18.24A21.81,21.81,0,0,1,119,19"/>
    <path d="M58.47,81.28l-.8-1.55c-1.93-3.75-3-5.71-3.52-6.56-1.33-2-.07-.31-8.63-15.41a27.91,27.91,0,0,0-3.42-4.85,28.2,28.2,0,0,0-3.38-3.2C35.79,47.35,25.43,39,21.24,41.93c-2.19,1.53-1.87,5.57-1.45,7.44,1.52,6.72,9.71,8.71,10.1,8.79,4.89,1.11,5.8-1.51,9-.23,2.88,1.13,3.83,3.86,5.91,8.74-1.58,1.75-3.69,5.9-7.71,11-1.16,1.48-2.25,2.73-3.09,3.75-.3.38-.58.73-.81,1-1.68-.1-3.53,0-4.33,1.23a3,3,0,0,0-.34,2.35,1.79,1.79,0,0,1,.55-.28,1.55,1.55,0,0,1,1.7.48,1.44,1.44,0,0,1-.19,1.65,37.6,37.6,0,0,0,6-.26c.91,0,1.93-.1,3.05-.11a119.38,119.38,0,0,1,12.13.14,11.84,11.84,0,0,1,1.87.32A4.79,4.79,0,0,0,57,87.91a5.05,5.05,0,0,0,2-1.73h0a2.53,2.53,0,0,0,.26-.52s0,0,0,0a.24.24,0,0,0,.05-.1.88.88,0,0,0,.12-.15C60,84.35,59.31,82.91,58.47,81.28Zm-5.17,2a113.46,113.46,0,0,1-16.18-.36c1.5-1.62,2.3-4.22,4.86-7.87,1.59-2.28,3.17-4,4.24-5.29.82,1.79,1.8,3.78,3.06,6,2.21,4,2,2.94,3.44,5.67.29.57.54,1.1.77,1.57l.12.26Z"/>
    <path d="M67.85,82.05c-2-3.17-6.4-3.5-9.26-2.65a7.77,7.77,0,0,0-.92.33A10.3,10.3,0,0,0,53.49,83l-.19.26a7.14,7.14,0,0,0-1.46,4.41,4.07,4.07,0,0,0,.13,1c1.14,4.44,8.71,7.12,13.24,4C68.3,90.48,70.1,85.52,67.85,82.05Zm-6,5.65a2,2,0,0,1-2.91-.87,1.2,1.2,0,0,1,0-.65h0a1.28,1.28,0,0,1,.26-.52s0,0,0,0a2.25,2.25,0,0,1,1.15-.83,1.63,1.63,0,0,1,1.45,2.91Z"/>
    <path d="M36,83.2a5,5,0,0,0-2-1.77,7.91,7.91,0,0,0-5.61-.4C25,82,22.26,85.68,23,88.62c.93,3.64,7.14,5.84,10.85,3.26a7.34,7.34,0,0,0,2.8-4.24A5.64,5.64,0,0,0,36,83.2Zm-5.7,5a1.69,1.69,0,0,1-2.42-.73,1.44,1.44,0,0,1,.66-1.4h0a1.79,1.79,0,0,1,.55-.28,1.55,1.55,0,0,1,1.7.48,1.44,1.44,0,0,1-.19,1.65A1.37,1.37,0,0,1,30.33,88.19Z"/>
</svg>