<svg id="Vrstva_1" data-name="Vrstva 1" xmlns="http://www.w3.org/2000/svg" viewBox="0 0 50 50">
    <defs>
        <style>
            .light_on_cls-1{fill:#060606;}
            .light_on_cls-2{fill:#060606;}
            .light_on_cls-3{fill:#060606;}
        </style>
    </defs>
    <path class="light_on_cls-1"
          d="M31.88,6.94a22,22,0,0,0-6-1.9,7.2,7.2,0,0,0-5.7.85,13.52,13.52,0,0,0-6,10,21.24,21.24,0,0,0,.91,7.29C15.91,26.63,17,30,18,33.32c.12.39.41.78.18,1.22-.58,1.11-.34,2.3-.4,3.47-.08,1.6,1.07,2.22,2.36,2.29a49.19,49.19,0,0,0,5.43.05c.79,0,1.58,0,2.37,0,1.47-.12,3,.15,4.41-.31.59-.19,1-.54,1-1.2a25.66,25.66,0,0,1,0-3.72A1,1,0,0,0,32.57,34c-.55-.14-.52-.42-.4-.86.59-2.15,1.17-4.3,1.72-6.46a73.39,73.39,0,0,0,2.34-11.75C36.57,11.15,35.23,8.7,31.88,6.94ZM33,25.61c-.67,2.47-1.41,4.92-2.07,7.38a.81.81,0,0,1-.95.72c-1.64,0-3.29,0-4.94,0v-.1c-1.58,0-3.16,0-4.74,0-.48,0-.78-.06-.93-.6-1.4-4.79-3-9.5-3.85-14.44a11.72,11.72,0,0,1,5.58-11.8,8.2,8.2,0,0,1,5.88-.41,12.76,12.76,0,0,1,6,3.12A6.57,6.57,0,0,1,35,14.82,47.11,47.11,0,0,1,33,25.61Z"/>
    <path class="light_on_cls-2"
          d="M30,45.28a1,1,0,0,1-1,.69l-4.62.2c-.88-.06-2-.07-3-.23-.74-.11-1.33-.48-1.23-1.44s0-1.84.1-2.75a1.06,1.06,0,0,1,1.39-1.09,33.83,33.83,0,0,0,7,.07c1,0,1.63.21,1.68,1.14A8.39,8.39,0,0,1,30,45.28Z"/>
    <path class="light_on_cls-3"
          d="M30.63,23.19c-.69-.72-1.68-.42-2.52-.16a7.39,7.39,0,0,1-4.6.26,6.85,6.85,0,0,0-1.76-.22c-2-.15-2.77.68-2.41,2.63a34.44,34.44,0,0,0,1.93,5.67c.15.4.43.93,1,.67s.26-.74.14-1.13c-.49-1.53-1.05-3-1.52-4.57-.68-2.24-.33-2.57,2-2,.06,0,.11.06.23.14-1.37,1-1.37,1.28,0,2.27a5.36,5.36,0,0,0,.49.34c1.31.77,3.58-.49,3.54-2,0-.58.1-.84.68-.87.33,0,.65-.1,1-.16.79-.15.93.26.78.9a13.58,13.58,0,0,1-.71,2,36.88,36.88,0,0,0-1.76,4.15c-.09.34-.09.68.31.82s.62-.09.76-.43c.79-2,1.61-3.93,2.36-5.91C30.84,24.83,31.33,23.91,30.63,23.19ZM25.13,26a1.37,1.37,0,0,1-1.3-.13,2.75,2.75,0,0,1,1.06-.61c.29-.14.66-.12.76.14S25.38,25.85,25.13,26Z"/>
</svg>