<svg id="Vrstva_1" data-name="Vrstva 1" xmlns="http://www.w3.org/2000/svg" viewBox="0 0 50 50">
    <defs>
        <style>
            .light_off_cls-1{fill:#fff;}
        </style>
    </defs>
    <path class="light_off_cls-1"
          d="M32.28,30.88c1.27-5.39,2.81-10.74,3.13-16.31.19-3.38-.45-6.42-3.72-8.29a19.69,19.69,0,0,0-6.11-2.1,8.55,8.55,0,0,0-4.11.2c-2.7.78-3.94,2.3-3.76,4.65.15,2,1.7,3.42,3.69,2.79,1.47-.46,2.94-.93,4.42-1.36,1.18-.34,1.31-.21,1.05.95A25.3,25.3,0,0,1,25,16.27a46.9,46.9,0,0,1-3.88,7.22A2,2,0,0,1,21,22.37c.1-2.26.65-4.5.24-6.78-.2-1.17-.92-1.49-1.88-.79A16.53,16.53,0,0,0,18,16c-.45.42-.68.33-.89-.23a15,15,0,0,1-.89-3.32c-.11-.9-.75-.89-1.32-1s-.58.53-.69.87a13.51,13.51,0,0,0,.08,7.3c.92,4.17,2.56,8.12,3.76,12.21.21.7.36,1.27-.35,1.79a1.13,1.13,0,0,0-.34,1c0,1.08,0,2.16,0,3.24a1.13,1.13,0,0,0,.87,1.33,8.15,8.15,0,0,0,2.82.34c3.17-.16,6.33-.11,9.49,0,1.66,0,2-.22,2.29-1.88a26,26,0,0,0,0-3.64.62.62,0,0,0-.37-.65c-.72-.18-.56-.65-.44-1.13S32.17,31.33,32.28,30.88Zm-1.46-.34c-.18.76-.06,1.79-.66,2.18s-1.46.08-2.22.09c-2.53,0-5.06,0-7.6.09a.86.86,0,0,1-1-.69A91.27,91.27,0,0,1,15.43,17.4c-.08-.48-.1-1-.15-1.46-.29-.62,0-1.26,0-1.9l.27,2a2.27,2.27,0,0,0,.28,1.14,1,1,0,0,0,1.57.65,15.05,15.05,0,0,0,2.15-1.37c.18-.12.38-.34.62-.22s.12.41.11.62c-.13,2-.28,3.93-.41,5.9,0,.55,0,1.11,0,1.67s.05.9.54,1.06.86-.2,1.13-.58a20.24,20.24,0,0,0,1.18-1.82A69.64,69.64,0,0,0,28.07,11.9c.65-1.93.12-3-2.31-2.73a32.86,32.86,0,0,0-5.14,1.32c-.73.19-1.23.07-1.46-.67s-1-1.36.06-2.28c4.93-4.34,12.05-1.2,14.26,2.37,1.15,1.84.79,3.81.55,5.75A128,128,0,0,1,30.82,30.54Z"/>
    <path class="light_off_cls-1"
          d="M30.06,43.16c0,1.24-.33,1.7-1.55,2a12.35,12.35,0,0,1-3.32.24c-1-.06-2.38-.12-3.76-.22A1.71,1.71,0,0,1,20,43.58,19.74,19.74,0,0,0,19.91,41c-.08-.81.37-1.24,1.2-1.15A56.94,56.94,0,0,0,28.5,40a1.41,1.41,0,0,1,1.57,1.64C30,42.11,30.05,42.64,30.06,43.16Z"/>
    <path class="light_off_cls-1" d="M15.55,16l-.27-.06c-.29-.62,0-1.26,0-1.9Z"/>
    <path class="light_off_cls-1"
          d="M25.55,26.47a.94.94,0,0,1-.74.82c-.58.1-1.18.09-1.77.14s-1.62-.14-1.9.4.68.92,1.06,1.39.59.71.85,1.08a.48.48,0,0,1-.05.64c-.17.16-.42.28-.62.08a19.62,19.62,0,0,1-3-3.11.76.76,0,0,1-.09-.32.93.93,0,0,1,.77-1.12,19.48,19.48,0,0,1,5-.48A.43.43,0,0,1,25.55,26.47Z"/>
    <path class="light_off_cls-1"
          d="M29.63,26.07a26,26,0,0,1-1.06,4.57c-.11.42-.33.67-.77.53s-.73-.44-.54-1c.29-.86.54-1.74.91-2.57a3.61,3.61,0,0,0-1.08-4.48,10.16,10.16,0,0,1-1-1.09.54.54,0,0,1,0-.65.5.5,0,0,1,.63-.12C28,21.77,29.77,24.5,29.63,26.07Z"/>
</svg>