<svg id="Vrstva_1" data-name="Vrstva 1" xmlns="http://www.w3.org/2000/svg" viewBox="0 0 50 50"><defs><style>.cls-1{fill:#b88505;}</style></defs><path class="cls-1" d="M34.28,34.66c-1.11,1.13-2,.51-2.85-.35C29.63,32.52,27.8,30.77,26,29c-.67-.68-1.06-.61-1.65.12-1.34,1.65-2.82,3.19-4.17,4.84a17.12,17.12,0,0,1-3.07,2.45,1.34,1.34,0,0,1-1.92-.22,1.49,1.49,0,0,1,0-2.08c1-1.25,2.12-2.45,3.18-3.68s2.37-2.78,3.62-4.11c.6-.63.54-1,0-1.62C20.23,22.8,18.48,20.9,16.7,19c-.72-.76-1.31-1.59-.46-2.52s1.83-.46,2.64.29c1.78,1.66,3.62,3.26,5.34,5,.74.73,1.12.82,1.85,0,1.7-2,3.53-3.92,5.3-5.87a1.64,1.64,0,0,1,2.05-.5,1.3,1.3,0,0,1,.74,1.42,2.71,2.71,0,0,1-.66,1.45,53.34,53.34,0,0,1-4.87,5.83c-.68.78-.72,1.22.09,1.95,1.92,1.73,3.74,3.58,5.57,5.41C35.5,32.64,35.47,33.43,34.28,34.66Z"/></svg>