<svg id="Vrstva_1" data-name="Vrstva 1" xmlns="http://www.w3.org/2000/svg" viewBox="0 0 50 50"><defs><style>.cls-1{fill:#ba890e;}.cls-2{fill:#b9870a;}.cls-3{fill:#b88607;}</style></defs><path class="cls-1" d="M25.74,33.57c4.37,0,8.73,0,13.1,0,1.06,0,2.26-.11,2.31,1.5,0,1.34-.68,2-2.28,2-8.63-.17-17.25-.06-25.88,0A4.75,4.75,0,0,1,11.8,37c-.87-.24-1.5-.79-1.36-1.75a1.55,1.55,0,0,1,1.75-1.35c1.83,0,3.65-.06,5.48-.07"/><path class="cls-2" d="M40,14c0,1.38-.43,1.78-2.18,1.79-8.42,0-16.83-.15-25.24.41-1.17.07-2.19-.08-2.33-1.52a2.4,2.4,0,0,1,2.32-2.21c1.66-.05,3.34,0,5,.06h4c5.37.13,10.74-.19,16.1-.45C39.16,12,39.94,12.66,40,14Z"/><path class="cls-3" d="M21.2,26.74H13.14a4.23,4.23,0,0,1-1.92-.35,1.39,1.39,0,0,1-.87-1.46,1.36,1.36,0,0,1,1.19-1.38,13.81,13.81,0,0,1,1.81-.15l24.15-.72c1.51-.05,2.11.54,2.18,1.91s-.87,1.75-2.07,1.74"/></svg>