<svg id="Vrstva_1" data-name="Vrstva 1" xmlns="http://www.w3.org/2000/svg" viewBox="0 0 75 50"><defs><style>.cls-1{fill:#060706;}.cls-2{fill:#c0e7b3;}.cls-3{fill:#f7f7f7;}</style></defs><path class="cls-1" d="M47.66,22.24c0-1,0-3,0-5,0-.58.19-1.4-.46-1.63s-1.06.48-1.45.93a45.66,45.66,0,0,0-3.61,5.14c-.25.39-.38,1.1-.94,1s-.43-.8-.48-1.27c-.3-2.45-.45-4.91-.92-7.33A27.18,27.18,0,0,0,38,7.83c-.13-.29-.28-.69-.67-.67s-.49.43-.58.74c-1.2,4.18-3.44,7.89-5.41,11.71-.81,1.57-1,2.49-3,.62-1-.92-1.54-.69-1.76.59a54.38,54.38,0,0,0-.7,14.63c.27,2.63.63,5.27,3.65,6.48a7,7,0,0,0,2.82.86c2.43-.07,4.86-.27,7.3-.23A3.24,3.24,0,0,0,42.3,41.3a21,21,0,0,1,2.57-2.59,6.55,6.55,0,0,0,2.25-4.33A72.06,72.06,0,0,0,47.66,22.24ZM45.47,35.06A4,4,0,0,1,44,37.77a27,27,0,0,1-3.65,2.74,5.08,5.08,0,0,1-2.67.82,20.91,20.91,0,0,1-5.19-.18c-1.74-.43-4.65-2.6-4.58-5.14.12-4.1,0-8.21,0-12.33,0-.38.08-.76.13-1.25a18.09,18.09,0,0,0,2.33,1.39c1.19.54,2,.38,2.24-1.22a19.79,19.79,0,0,1,1.7-5.18c.86-2,1.88-4,2.91-6,.34,2.72.83,5.39,1.38,8a36.1,36.1,0,0,0,1.41,4.9c.39,1.11,1.15,1.22,1.91.33,1.12-1.33,1.91-2.89,2.9-4.32.43-.62.75-1.37,1.54-1.68a6.42,6.42,0,0,1,.13,2.14C46.57,25.62,45.86,30.33,45.47,35.06Z"/><path class="cls-2" d="M46.27,18.71c-.79.31-1.11,1.06-1.54,1.68-1,1.43-1.78,3-2.9,4.32-.76.89-1.52.78-1.91-.33a36.1,36.1,0,0,1-1.41-4.9c-.55-2.65-1-5.32-1.38-8-1,2-2.05,4-2.91,6a19.79,19.79,0,0,0-1.7,5.18c-.2,1.6-1.05,1.76-2.24,1.22A18.09,18.09,0,0,1,28,22.43c-.05.49-.13.87-.13,1.25,0,4.12.16,8.23,0,12.33-.07,2.54,2.84,4.71,4.58,5.14a20.91,20.91,0,0,0,5.19.18,5.08,5.08,0,0,0,2.67-.82A27,27,0,0,0,44,37.77a4,4,0,0,0,1.52-2.71c.39-4.73,1.1-9.44.93-14.21A6.42,6.42,0,0,0,46.27,18.71ZM38.58,37.66a.85.85,0,0,1-1.18.67c-1.18-.4-2.36-.81-3.51-1.29A1.58,1.58,0,0,1,33,35.23a15,15,0,0,1,3.27-7.79c.57-.65,1-.6,1.39.17a10.68,10.68,0,0,1,.85,3.52c.18,1.45.27,2.91.4,4.31A10.62,10.62,0,0,1,38.58,37.66Z"/><path class="cls-1" d="M38.46,31.13a10.68,10.68,0,0,0-.85-3.52c-.39-.77-.82-.82-1.39-.17A15,15,0,0,0,33,35.23,1.58,1.58,0,0,0,33.89,37c1.15.48,2.33.89,3.51,1.29a.85.85,0,0,0,1.18-.67,10.62,10.62,0,0,0,.28-2.22C38.73,34,38.64,32.58,38.46,31.13Zm-1,4.8a1,1,0,0,1-1.17.86A3.9,3.9,0,0,1,35,36.45c-1-.47-1.31-1.1-.83-2.12a35.94,35.94,0,0,1,2.34-4.2c.12-.19.23-.5.52-.42s.28.38.31.61c.1.9.19,1.81.27,2.62A14,14,0,0,1,37.43,35.93Z"/><path class="cls-3" d="M37.56,32.94a14,14,0,0,1-.13,3,1,1,0,0,1-1.17.86A3.9,3.9,0,0,1,35,36.45c-1-.47-1.31-1.1-.83-2.12a35.94,35.94,0,0,1,2.34-4.2c.12-.19.23-.5.52-.42s.28.38.31.61C37.39,31.22,37.48,32.13,37.56,32.94Z"/></svg>