<svg id="Vrstva_1" data-name="Vrstva 1" xmlns="http://www.w3.org/2000/svg" viewBox="0 0 75 50">
    <defs>
        <style>
            :root.dark{
            --cls-1-color:#fbecbe;
            --cls-2-color:#fbecbe;
            --cls-3-color:#fbecbe80;
            --cls-4-color:#fbecbe;
            --cls-5-color:#c0e6b200;
            }
            :root{
            --cls-1-color:#070706;
            --cls-2-color:#090909;
            --cls-3-color:#fcedbf;
            --cls-4-color:#050504;
            --cls-5-color:#f9f9f9;
            }
            .cls-1{fill:var(--cls-1-color);}
            .cls-2{fill:var(--cls-2-color);}
            .cls-3{fill:var(--cls-3-color);}
            .cls-4{fill:var(--cls-4-color);}
            .cls-5{fill:var(--cls-5-color);}
        </style>
    </defs>
    <path class="cls-1"
          d="M50,22.28a9.12,9.12,0,0,0-.15-3.45c-.51-1.48-1.19-1.66-2.31-.57S45.23,20.53,44,21.61c-.67.61-1.06.51-1.37-.33-1.2-3.22-2.88-6.22-4.17-9.39A18.8,18.8,0,0,0,36.31,8c-.21-.3-.4-.74-.88-.63s-.55.51-.66.89c-.15.59-.3,1.18-.43,1.77a38.46,38.46,0,0,1-1,4.52c-.32.91-.63,1-1.57.83-.76-.17-1.51-.35-2.27-.51-1.08-.22-1.47,0-1.7,1-.64,2.91-1.91,5.67-1.91,8.73,0,.83-.46,1-1.14.48-.51-.39-.94-.87-1.45-1.24s-.93-.25-1.09.42A5.4,5.4,0,0,0,22,25.35a37.4,37.4,0,0,0,.3,3.8,19.76,19.76,0,0,0,5,11.52c2,2.31,4.39,3.63,7.62,3a19.67,19.67,0,0,1,5.63-.36,3,3,0,0,0,2.71-1.12c1.63-1.81,3.18-3.69,4.7-5.6a4.42,4.42,0,0,0,1-2.85,29.65,29.65,0,0,1,.14-3.4c.31-2.36,1.1-4.66.78-6.89C49.93,23,50,22.61,50,22.28Zm-1.69.56c-.24,2.51-.55,5-.6,7.54,0,1.47-.38,2.91-.37,4.39a2.44,2.44,0,0,1-.86,1.75,43.15,43.15,0,0,0-3.34,3.81A4.56,4.56,0,0,1,39.48,42a55.34,55.34,0,0,0-5.9.26,3.62,3.62,0,0,1-2.16-.43,11,11,0,0,1-5.72-6.49c-.85-2.78-1.48-5.62-2.1-8.45-.06-.08-.08-.15,0-.21l.09.1a6,6,0,0,0,2.16.78c1,.05,1.59-.37,1.48-1.33-.37-3.18,1.15-6,1.58-9,.09-.64.43-.81,1-.44a4.38,4.38,0,0,0,3.45.45,1.38,1.38,0,0,0,1.12-1.16c.45-2,1-3.92,1.52-6a20.54,20.54,0,0,1,1.46,4,27.3,27.3,0,0,0,3.89,8.56,2.28,2.28,0,0,0,3.48.45,14.38,14.38,0,0,0,2.28-2.53,6.9,6.9,0,0,1,1.17-1.28A10,10,0,0,1,48.28,22.84Z"/>
    <path class="cls-2"
          d="M45.88,11.12c-.57-.21-1.13-.44-1.71-.63-.83-.27-1.09-.09-1.18.8a15.39,15.39,0,0,0,.15,3.39,8.32,8.32,0,0,0,.53,2.42c.2.48.48.7.91.21a10,10,0,0,0,2.09-4.76C46.69,11.75,46.45,11.33,45.88,11.12Zm-.29,1.57c-.34.8-.81,1.55-1.22,2.32a9.39,9.39,0,0,1-.23-2.71c.06-.47.22-.66.69-.49S45.89,12,45.59,12.69Z"/>
    <path class="cls-3"
          d="M48.33,19.3a6.9,6.9,0,0,0-1.17,1.28,14.38,14.38,0,0,1-2.28,2.53,2.28,2.28,0,0,1-3.48-.45,27.3,27.3,0,0,1-3.89-8.56,20.54,20.54,0,0,0-1.46-4c-.54,2.1-1.07,4-1.52,6a1.38,1.38,0,0,1-1.12,1.16A4.38,4.38,0,0,1,30,16.79c-.61-.37-.95-.2-1,.44-.43,3-2,5.84-1.58,9,.11,1-.49,1.38-1.48,1.33a6,6,0,0,1-2.16-.78l-.1.11c.62,2.83,1.25,5.67,2.1,8.45a11,11,0,0,0,5.72,6.49,3.62,3.62,0,0,0,2.16.43,55.34,55.34,0,0,1,5.9-.26,4.56,4.56,0,0,0,3.63-1.69,43.15,43.15,0,0,1,3.34-3.81,2.44,2.44,0,0,0,.86-1.75c0-1.48.35-2.92.37-4.39,0-2.53.36-5,.6-7.54A10,10,0,0,0,48.33,19.3ZM41,34a58.73,58.73,0,0,0-4.43,5.39c-.72,1-1.54.87-2.09-.25a6.56,6.56,0,0,0-2.66-2.88,2.59,2.59,0,0,1-1.33-2.52,34.87,34.87,0,0,1,1.66-6.39,3.92,3.92,0,0,0,.32-1.85c-.06-.79.32-1,1.08-.75A3.15,3.15,0,0,1,35.49,27,11.55,11.55,0,0,0,36.9,30.2a3.81,3.81,0,0,0,3.39,2c.44,0,.89,0,1.09.57A1.11,1.11,0,0,1,41,34Z"/>
    <path class="cls-3" d="M23.6,26.91c-.06-.08-.08-.15,0-.21l.09.1Z"/>
    <path class="cls-3"
          d="M44.37,15a9.39,9.39,0,0,1-.23-2.71c.06-.47.22-.66.69-.49s1.06.2.76.88S44.78,14.24,44.37,15Z"/>
    <path class="cls-4"
          d="M41.38,32.81c-.2-.52-.65-.57-1.09-.57a3.81,3.81,0,0,1-3.39-2A11.55,11.55,0,0,1,35.49,27a3.15,3.15,0,0,0-1.9-2.26c-.76-.29-1.14,0-1.08.75a3.92,3.92,0,0,1-.32,1.85,34.87,34.87,0,0,0-1.66,6.39,2.59,2.59,0,0,0,1.33,2.52,6.56,6.56,0,0,1,2.66,2.88c.55,1.12,1.37,1.25,2.09.25A58.73,58.73,0,0,1,41,34,1.11,1.11,0,0,0,41.38,32.81ZM39,34.09a36.74,36.74,0,0,0-2.89,3,.81.81,0,0,1-.68.3,1.53,1.53,0,0,1-.53-.2c-1.72-1.44-3-2.88-2.23-5a14.35,14.35,0,0,0,.71-3.91c0-.26,0-.62.29-.71s.5.27.66.51A21.53,21.53,0,0,1,36,31.4c.52,1.26,1.23,2.16,2.75,2,.16,0,.36,0,.43.17S39.12,34,39,34.09Z"/>
    <path class="cls-5"
          d="M35.4,37.35a1.53,1.53,0,0,1-.53-.2c-1.72-1.44-3-2.88-2.23-5a14.35,14.35,0,0,0,.71-3.91c0-.26,0-.62.29-.71s.5.27.66.51A21.53,21.53,0,0,1,36,31.4c.52,1.26,1.23,2.16,2.75,2,.16,0,.36,0,.43.17s-.05.37-.2.51a36.74,36.74,0,0,0-2.89,3A.81.81,0,0,1,35.4,37.35Z"/>
</svg>