<svg id="Vrstva_1" data-name="Vrstva 1" xmlns="http://www.w3.org/2000/svg" viewBox="0 0 75 50">
    <defs>
        <style>
            :root.dark{
            --cls-1-color:#fbecbe;
            --cls-2-color:#fbecbe;
            --cls-3-color:#fbecbe80;
            --cls-4-color:#fbecbe80;
            --cls-5-color:#fbecbe80;
            }
            :root{
            --cls-1-color:#080807;
            --cls-2-color:#090908;
            --cls-3-color:#fcedbe;
            --cls-4-color:#f7e9bb;
            --cls-5-color:#faecbe;
            }
            .cls-1{fill:var(--cls-1-color);}
            .cls-2{fill:var(--cls-2-color);}
            .cls-3{fill:var(--cls-3-color);}
            .cls-4{fill:var(--cls-4-color);}
            .cls-5{fill:var(--cls-5-color);}
        </style>
    </defs>
    <path class="cls-1"
          d="M48.88,6.66c-2.46-1-5-.92-7.59-1.12H38.86A5.45,5.45,0,0,0,33,11.37c0,1.49.14,3,.11,4.46A51,51,0,0,1,31.6,27c-.65,2.71-.17,3.37,2.55,3.62l.4,0c4,.35,4.45.09,6.09-3.58a13.57,13.57,0,0,1,3-4.66A56.27,56.27,0,0,0,51,13.87C53.5,10.41,52.8,8.31,48.88,6.66Zm.38,5.91a116,116,0,0,0-8.35,11.49c-.76,1.12-1.44,2.29-2.16,3.44a3.57,3.57,0,0,1-4.15,1.76c-1.28-.34-1.73-1.05-1.34-2.34a32.65,32.65,0,0,0,1.58-10.28c0-1.05-.12-2.1-.24-3.14A8.56,8.56,0,0,1,35,9.3c.76-1.93,1.78-2.83,4-2.41l5.91.43a7.87,7.87,0,0,1,3.62,1.21C50.41,9.67,50.69,10.92,49.26,12.57Z"/>
    <path class="cls-2"
          d="M25,12.53a16.84,16.84,0,0,0-.19-2.93c-.26-1.51-1.18-1.9-2.49-1.07A4.68,4.68,0,0,0,20,13.41c.25,2.15.46,4.31.61,6.47.19,2.63.8,5.22.67,7.88,0,.58,0,1.15,0,1.73,0,1.33.58,2.05,1.65,2.17A2.29,2.29,0,0,0,25.56,30a7.38,7.38,0,0,0,.19-1.81C25.52,22.94,25,17.75,25,12.53ZM23.39,30.19c-.54.39-.91.27-1-.38a9.47,9.47,0,0,1,0-1.92,30.66,30.66,0,0,0-1.11-9.62,13.63,13.63,0,0,1-.36-4.72,6,6,0,0,1,1.65-3.4c.18-.2.4-.46.68-.37s.3.41.34.68A26.73,26.73,0,0,1,23.75,15c0,1.35,0,2.7,0,4.06,0,2.06,0,4.13,0,6.19a16.33,16.33,0,0,0,.3,3.12A1.7,1.7,0,0,1,23.39,30.19Z"/>
    <path class="cls-2"
          d="M56,15.24a2,2,0,0,0-2.75.75,15.1,15.1,0,0,0-1.18,2.12c-2.22,4.61-3.53,9.55-5.22,14.35a1.62,1.62,0,0,0-.08.49c0,.87.3,1.2,1.15,1a5.05,5.05,0,0,0,2.63-1.23,22.4,22.4,0,0,0,4.78-6.13c1-2.15,1.94-4.37,2.9-6.56a2.55,2.55,0,0,0,.31-1.17A4.59,4.59,0,0,0,56,15.24Zm.76,5c-1.67,2.92-3,6.06-5.07,8.75a6.67,6.67,0,0,1-2.49,2.17c-.52.23-.88.14-.78-.71a8.15,8.15,0,0,1,.22-.81,116.48,116.48,0,0,1,4.6-11.37C54.4,16,54.86,15.93,56.52,18A1.79,1.79,0,0,1,56.75,20.28Z"/>
    <path class="cls-2"
          d="M38.89,33.71a6.21,6.21,0,0,0-6.37-1.46,6.75,6.75,0,0,0-4,6.53,6,6,0,0,0,1.94,3.75,3.75,3.75,0,0,0,4.56.86,9.11,9.11,0,0,0,4.75-6A3.65,3.65,0,0,0,38.89,33.71Zm-.21,3.17a12.26,12.26,0,0,1-4.14,5,2,2,0,0,1-2.45-.17,4.76,4.76,0,0,1-2-5.14,4.84,4.84,0,0,1,4.47-3.18,5.58,5.58,0,0,1,3.62,1.28A1.73,1.73,0,0,1,38.68,36.88Z"/>
    <path class="cls-2"
          d="M26,38.73a8.1,8.1,0,0,0-1.16-3.42,1.33,1.33,0,0,0-2.06-.5A4.77,4.77,0,0,0,21,36.61c-1.38,2.38-.18,4.52,2.59,4.61C25.25,41.28,26.13,40.39,26,38.73Zm-2.58.79A15.39,15.39,0,0,0,21.74,39c-.25-.07-.44-.13-.42-.45,0-.52,1.41-2.13,1.83-2.13a1.88,1.88,0,0,1,1.62,2.09C24.75,39.75,24.47,39.94,23.37,39.52Z"/>
    <path class="cls-2"
          d="M47.45,36c-.06-.71-.45-.83-1.05-.58a6,6,0,0,0-2.63,2.31c-1.42,2.14-.58,4.14,1.94,4.73,1.68.39,2.12,0,2.1-1.62V40C47.7,38.79,47.58,37.41,47.45,36Zm-1.37,5.11c-.66.15-1.7-1.13-1.72-2a2.09,2.09,0,0,1,.11-.7c.28-.79.73-1.7,1.58-1.63s.65,1.1.76,1.77c0,.23,0,.47.06.65C46.75,40,47.09,40.93,46.08,41.15Z"/>
    <path class="cls-3"
          d="M39,6.89l5.91.43a7.87,7.87,0,0,1,3.62,1.21c1.9,1.14,2.18,2.39.75,4a116,116,0,0,0-8.35,11.49c-.76,1.12-1.44,2.29-2.16,3.44a3.57,3.57,0,0,1-4.15,1.76c-1.28-.34-1.73-1.05-1.34-2.34a32.65,32.65,0,0,0,1.58-10.28c0-1.05-.12-2.1-.24-3.14A8.56,8.56,0,0,1,35,9.3C35.74,7.37,36.76,6.47,39,6.89Z"/>
    <path class="cls-4"
          d="M23.75,19.08c0,2.06,0,4.13,0,6.19a16.33,16.33,0,0,0,.3,3.12,1.7,1.7,0,0,1-.65,1.8c-.54.39-.91.27-1-.38a9.47,9.47,0,0,1,0-1.92,30.66,30.66,0,0,0-1.11-9.62,13.63,13.63,0,0,1-.36-4.72,6,6,0,0,1,1.65-3.4c.18-.2.4-.46.68-.37s.3.41.34.68A26.73,26.73,0,0,1,23.75,15C23.76,16.37,23.75,17.72,23.75,19.08Z"/>
    <path class="cls-5"
          d="M48.41,30.49a8.15,8.15,0,0,1,.22-.81,116.48,116.48,0,0,1,4.6-11.37C54.4,16,54.86,15.93,56.52,18a1.79,1.79,0,0,1,.23,2.29c-1.67,2.92-3,6.06-5.07,8.75a6.67,6.67,0,0,1-2.49,2.17C48.67,31.43,48.31,31.34,48.41,30.49Z"/>
    <path class="cls-5"
          d="M34.55,33.43a5.58,5.58,0,0,1,3.62,1.28,1.73,1.73,0,0,1,.51,2.17,12.26,12.26,0,0,1-4.14,5,2,2,0,0,1-2.45-.17,4.76,4.76,0,0,1-2-5.14A4.84,4.84,0,0,1,34.55,33.43Z"/>
    <path class="cls-4"
          d="M24.77,38.52c0,1.23-.3,1.42-1.4,1A15.39,15.39,0,0,0,21.74,39c-.25-.07-.44-.13-.42-.45,0-.52,1.41-2.13,1.83-2.13A1.88,1.88,0,0,1,24.77,38.52Z"/>
    <path class="cls-4"
          d="M46.87,39.25c-.12.75.22,1.68-.79,1.9-.66.15-1.7-1.13-1.72-2a2.09,2.09,0,0,1,.11-.7c.28-.79.73-1.7,1.58-1.63s.65,1.1.76,1.77C46.84,38.83,46.85,39.07,46.87,39.25Z"/>
</svg>