<svg id="Vrstva_1" data-name="Vrstva 1" xmlns="http://www.w3.org/2000/svg" viewBox="0 0 75 50"><defs><style>.cls-1{fill:#060605;}.cls-2{fill:#f8b18e;}.cls-3{fill:#fdfdfd;}.cls-4{fill:#fab28f;}.cls-5{fill:#040202;}.cls-6{fill:#040302;}</style></defs><path class="cls-1" d="M55.56,27.69c-.47-2.24-2.56-4.06-4.86-2.89-.54.28-.55-.1-.71-.37a3.55,3.55,0,0,0-2.64-1.77A4.25,4.25,0,0,0,42.21,26a2.58,2.58,0,0,1-2,2.1c-1.32.36-2.62.8-3.94,1.19a1.09,1.09,0,0,1-1,0c-1.61-1-3.36-1.77-4.26-3.79-1-2.24-3.45-2.17-4.82-.07a1.22,1.22,0,0,1-.65.59,4.56,4.56,0,0,0-1.95,6.95l.27.23a.38.38,0,0,1-.44,0c-.54-.1-1.08-.24-1.62-.3-2.29-.22-3.78,1-3.43,3.2a10,10,0,0,1,0,3.66c-.38,2,1.48,4.78,3.36,5.58a2.49,2.49,0,0,0,3.65-1.66,9.77,9.77,0,0,0,.34-1.71A3.81,3.81,0,0,1,28,38.73a51.3,51.3,0,0,1,7.15-2.87.78.78,0,0,1,.77.1c2.87,2,6,3.76,8.21,6.64a8.41,8.41,0,0,0,1.47,1.45,2.91,2.91,0,0,0,4.29-.45A3.16,3.16,0,0,0,49.72,39a.84.84,0,0,1-.33-.86,3.73,3.73,0,0,0-5.22-4.07c-1.13.41-1.13.41-2.14-.46a31.07,31.07,0,0,1,5.23-1.25A39.32,39.32,0,0,0,53,31.79,3.19,3.19,0,0,0,55.56,27.69ZM52,30.1c-1.57.18-3.15.3-4.72.4a14.77,14.77,0,0,0-3,.53c-2.11.6-4.19,1.25-6.53,1.95A40.74,40.74,0,0,0,42.24,36a2.25,2.25,0,0,0,1.9.06,10.38,10.38,0,0,1,1.06-.39,1.8,1.8,0,0,1,2.07.76,1.56,1.56,0,0,1-.12,2.07c-.89,1.18-.84,1.34.55,1.63.57.12,1.15.26,1.18.93A1.81,1.81,0,0,1,48,42.75c-.59.39-1,0-1.48-.32a4.58,4.58,0,0,1-.73-.73c-2.55-3.37-6.17-5.41-9.56-7.74a1,1,0,0,0-.95-.13,66.14,66.14,0,0,0-8,3.11A5.64,5.64,0,0,0,24,41.75a.46.46,0,0,1,0,.2c-.21.58.06,1.48-.73,1.67s-1.24-.47-1.71-1A5.07,5.07,0,0,1,20.4,40.8a1.65,1.65,0,0,1,.66-2.15c1-.66,1-.76,0-1.49a2,2,0,0,1-.67-.76c-.5-1.08-.05-1.78,1.13-1.74a1.84,1.84,0,0,1,.41,0c2.35.91,4.5.19,6.65-.75,1.5-.66,3.06-1.2,4.75-1.86-.78-.42-1.41-.76-2-1.12a4.75,4.75,0,0,0-5.25.14c-.33.21-.69.58-1.12.31s-.35-.85-.31-1.32a3.74,3.74,0,0,1,.5-1.45c.4-.73.94-1.2,1.84-.79.59.27.84.08.78-.56a1.49,1.49,0,0,1,.15-1c.44-.74,1-.78,1.53-.09a.24.24,0,0,1,.06.08c.84,2.77,3.45,3.54,5.54,4.91a1.09,1.09,0,0,0,1,.1l4.84-1.44A4.17,4.17,0,0,0,44,26.6a2.34,2.34,0,0,1,2.38-2.15,2.1,2.1,0,0,1,2.37,1.93c.39,1.7.7,1.8,2,.66.53-.44,1.07-1,1.82-.6a2.33,2.33,0,0,1,1.2,2.25C53.72,29.73,52.88,30,52,30.1Z"/><path class="cls-1" d="M47.5,7.2c-2.23-2.54-5.22-3.26-8.44-3.32a15.07,15.07,0,0,0-9.89,3.51,7,7,0,0,0-2.59,6.49,9.73,9.73,0,0,0,4.38,7,1.4,1.4,0,0,1,.75,1.76,2.72,2.72,0,0,0,1.41,3.14,5.4,5.4,0,0,0,3.08.6c2.88-.09,5.62-1.82,6.33-4.16a1.6,1.6,0,0,1,1.64-1.32,5,5,0,0,0,4.14-2.51A10.1,10.1,0,0,0,47.5,7.2ZM46.34,17.7A3.2,3.2,0,0,1,43.85,19a3.08,3.08,0,0,0-3.18,2.53,2.66,2.66,0,0,1-1.31,1.71c-.18-.45-.35-.85-.49-1.26s-.21-.56-.56-.42-.28.42-.16.7a5.49,5.49,0,0,0,.24.68c.34.65.11.94-.55,1.17s-.76-.27-.91-.7-.25-.86-.41-1.27c-.09-.22-.22-.47-.53-.34s-.29.37-.23.61c.13.42.3.84.41,1.27,0,.22.41.54,0,.69a2.12,2.12,0,0,1-1.12,0c-.41-.1-.15-.47-.13-.69,0-.48.15-.95.22-1.43,0-.24,0-.5-.29-.55s-.38.21-.45.45A9.51,9.51,0,0,1,34,23.9c-.49-.34-.36-.8-.25-1.22a2.66,2.66,0,0,0-1.29-3.18,8.33,8.33,0,0,1-3.78-5.29,5.07,5.07,0,0,1,1.56-5.06C33.41,6,39.54,5,43.62,6.8S49,14.25,46.34,17.7Z"/><path class="cls-2" d="M33.32,32.09c-.78-.42-1.41-.76-2-1.12a4.75,4.75,0,0,0-5.25.14c-.33.21-.69.58-1.12.31s-.35-.85-.31-1.32a3.74,3.74,0,0,1,.5-1.45c.4-.73.94-1.2,1.84-.79.59.27.84.08.78-.56a1.49,1.49,0,0,1,.15-1c.44-.74,1-.78,1.53-.09a.24.24,0,0,1,.06.08c.84,2.77,3.45,3.54,5.54,4.91a1.09,1.09,0,0,0,1,.1l4.84-1.44A4.17,4.17,0,0,0,44,26.6a2.34,2.34,0,0,1,2.38-2.15,2.1,2.1,0,0,1,2.37,1.93c.39,1.7.7,1.8,2,.66.53-.44,1.07-1,1.82-.6a2.33,2.33,0,0,1,1.2,2.25c-.07,1-.91,1.32-1.75,1.41-1.57.18-3.15.3-4.72.4a14.77,14.77,0,0,0-3,.53c-2.11.6-4.19,1.25-6.53,1.95A40.74,40.74,0,0,0,42.24,36a2.25,2.25,0,0,0,1.9.06,10.38,10.38,0,0,1,1.06-.39,1.8,1.8,0,0,1,2.07.76,1.56,1.56,0,0,1-.12,2.07c-.89,1.18-.84,1.34.55,1.63.57.12,1.15.26,1.18.93A1.81,1.81,0,0,1,48,42.75c-.59.39-1,0-1.48-.32a4.58,4.58,0,0,1-.73-.73c-2.55-3.37-6.17-5.41-9.56-7.74a1,1,0,0,0-.95-.13,66.14,66.14,0,0,0-8,3.11A5.64,5.64,0,0,0,24,41.75a.46.46,0,0,1,0,.2c-.21.58.06,1.48-.73,1.67s-1.24-.47-1.71-1A5.07,5.07,0,0,1,20.4,40.8a1.65,1.65,0,0,1,.66-2.15c1-.66,1-.76,0-1.49a2,2,0,0,1-.67-.76c-.5-1.08-.05-1.78,1.13-1.74a1.84,1.84,0,0,1,.41,0c2.35.91,4.5.19,6.65-.75C30.07,33.29,31.63,32.75,33.32,32.09Z"/><path class="cls-3" d="M23.91,33.14a.38.38,0,0,1-.44,0l.17-.21Z"/><path class="cls-4" d="M43.62,6.8C39.54,5,33.41,6,30.23,9.15a5.07,5.07,0,0,0-1.56,5.06,8.33,8.33,0,0,0,3.78,5.29,2.66,2.66,0,0,1,1.29,3.18c-.11.42-.24.88.25,1.22a9.51,9.51,0,0,0,.43-1.79c.07-.24.13-.49.45-.45s.33.31.29.55c-.07.48-.18.95-.22,1.43,0,.22-.28.59.13.69a2.12,2.12,0,0,0,1.12,0c.39-.15,0-.47,0-.69-.11-.43-.28-.85-.41-1.27-.06-.24-.06-.5.23-.61s.44.12.53.34c.16.41.28.84.41,1.27s.14,1,.91.7.89-.52.55-1.17a5.49,5.49,0,0,1-.24-.68c-.12-.28-.17-.56.16-.7s.46.15.56.42.31.81.49,1.26a2.66,2.66,0,0,0,1.31-1.71A3.08,3.08,0,0,1,43.85,19a3.2,3.2,0,0,0,2.49-1.25C49,14.25,47.56,8.55,43.62,6.8Zm-10,9.93a3.2,3.2,0,0,1-2.81-2,4,4,0,0,1,.51-4,.93.93,0,0,1,1.52-.16,8.66,8.66,0,0,1,2.63,4.77C35.65,16.31,35.06,16.76,33.63,16.73Zm2,2.61c-.56.1-.75-.18-.66-.56.12-.58-.06-1.43.88-1.48a1.2,1.2,0,0,1,1.32,1.26C37.19,19.81,36,18.83,35.63,19.34ZM41.9,15c-.1.4-.28.68-.76.68a16.59,16.59,0,0,0-3.57.43c-.71.16-1-.17-1.08-.85a8.31,8.31,0,0,1,.64-3.41c.29-.74,1-.63,1.57-.75A3.58,3.58,0,0,1,41.9,15Z"/><path class="cls-5" d="M33.63,16.73a3.2,3.2,0,0,1-2.81-2,4,4,0,0,1,.51-4,.93.93,0,0,1,1.52-.16,8.66,8.66,0,0,1,2.63,4.77C35.65,16.31,35.06,16.76,33.63,16.73Z"/><path class="cls-6" d="M38.7,11.13A3.58,3.58,0,0,1,41.9,15c-.1.4-.28.68-.76.68a16.59,16.59,0,0,0-3.57.43c-.71.16-1-.17-1.08-.85a8.31,8.31,0,0,1,.64-3.41C37.42,11.14,38.18,11.25,38.7,11.13Z"/><path class="cls-1" d="M35.63,19.34c-.56.1-.75-.18-.66-.56.12-.58-.06-1.43.88-1.48a1.2,1.2,0,0,1,1.32,1.26C37.19,19.81,36,18.83,35.63,19.34Z"/></svg>