<svg id="Vrstva_1" data-name="Vrstva 1" xmlns="http://www.w3.org/2000/svg" viewBox="0 0 75 50">
    <defs>
        <style>
            :root.dark{
            --cls-1-color:#c3e4f6;
            --cls-2-color:#c3e4f6;
            --cls-3-color:#c3e4f680;
            --cls-4-color:#c3e4f680;
            }
            :root{
            --cls-1-color:#070707;
            --cls-2-color:#070707;
            --cls-3-color:#c3e4f6;
            --cls-4-color:#c3e4f6;
            }
            .cls-1{fill:var(--cls-1-color);}
            .cls-2{fill:var(--cls-2-color);}
            .cls-3{fill:var(--cls-3-color);}
            .cls-4{fill:var(--cls-4-color);}
        </style>
    </defs>
    <path class="cls-1"
          d="M42.17,11a5.29,5.29,0,0,0-2.88-1.67c-1.91-.43-3,.27-3.39,2.17a7.55,7.55,0,0,0-.13.83c-.24,2.13-.16,4.28-.19,5.84,0,3.17.26,5.75.42,8.34.09,1.38.18,2.75.26,4.13A1.58,1.58,0,0,0,37,32.1c.62.3,1.06-.2,1.49-.55a5.67,5.67,0,0,0,1.75-2,23.64,23.64,0,0,0,2.3-7.47c.27-3.08.27-6.18.38-9.28A2.6,2.6,0,0,0,42.17,11Zm-.64,3.87c-.23,2.35-.18,4.73-.51,7.07-.25,1.72-.64,3.43-1,5.14a6.33,6.33,0,0,1-1.41,2.85c-.19.22-.4.54-.74.47s-.46-.5-.5-.82a19.78,19.78,0,0,1-.23-2.43c0-2.12,0-4.23,0-6.34a44.83,44.83,0,0,1,.15-9.12c.24-1.41.63-1.63,1.87-1C42.06,12.24,41.78,12.11,41.53,14.82Z"/>
    <path class="cls-2"
          d="M40,35.86a6.74,6.74,0,0,0-2.32-1.78c-1.94-1-2.94-.35-2.92,1.83v.58c.08.71.12,1.67.29,2.6s.69,1.19,1.54.79a15.45,15.45,0,0,0,3.27-2.22A1.18,1.18,0,0,0,40,35.86ZM39,37a3.82,3.82,0,0,1-1.2,1.39c-.86.58-1.44.35-1.63-.66-.05-.27-.06-.56-.1-.85s0-.55.09-.82c.14-1.07.38-1.18,1.34-.69a5.35,5.35,0,0,0,1.07.47C39.22,36.07,39.26,36.48,39,37Z"/>
    <path class="cls-3"
          d="M37.14,20.76a44.83,44.83,0,0,1,.15-9.12c.24-1.41.63-1.63,1.87-1,2.9,1.56,2.62,1.43,2.37,4.14-.23,2.35-.18,4.73-.51,7.07-.25,1.72-.64,3.43-1,5.14a6.33,6.33,0,0,1-1.41,2.85c-.19.22-.4.54-.74.47s-.46-.5-.5-.82a19.78,19.78,0,0,1-.23-2.43C37.12,25,37.14,22.87,37.14,20.76Z"/>
    <path class="cls-4"
          d="M36,36.9c0-.27,0-.55.09-.82.14-1.07.38-1.18,1.34-.69a5.35,5.35,0,0,0,1.07.47c.69.21.73.62.43,1.16a3.82,3.82,0,0,1-1.2,1.39c-.86.58-1.44.35-1.63-.66C36.08,37.48,36.07,37.19,36,36.9Z"/>
</svg>