<svg id="Vrstva_1" data-name="Vrstva 1" xmlns="http://www.w3.org/2000/svg" viewBox="0 0 75 50">
    <defs>
        <style>
            :root.dark{
            --cls-1-color:#c0e7b2;
            --cls-2-color:#c0e7b2;
            --cls-3-color:#c0e7b280;
            --cls-4-color:#c0e7b280;
            --cls-5-color:#c0e7b280;
            }
            :root{
            --cls-1-color:#070706;
            --cls-2-color:#090a09;
            --cls-3-color:#c0e7b2;
            --cls-4-color:#bce2af;
            --cls-5-color:#bfe5b1;
            }
            .cls-1{fill:var(--cls-1-color);}
            .cls-2{fill:var(--cls-2-color);}
            .cls-3{fill:var(--cls-3-color);}
            .cls-4{fill:var(--cls-4-color);}
            .cls-5{fill:var(--cls-5-color);}
        </style>
    </defs>
    <path class="cls-1"
          d="M40.34,10.24a39.76,39.76,0,0,0-6.92-3.5c-1.39-.54-2.13-.23-2.83,1.1a15.23,15.23,0,0,0-1.5,4.81c-.5,3.28-.44,6.62-.84,9.91-.5,4.18,1.33,7.22,4.45,9.69a4,4,0,0,0,2.22.87c2.14,0,3.33-1,3.67-2.87a17.27,17.27,0,0,0,.1-3.52,28.75,28.75,0,0,1,.57-7.11,33.2,33.2,0,0,1,2.1-5.47C42.16,12.33,41.88,11.22,40.34,10.24Zm-.09,2.61a11.33,11.33,0,0,1-.56,1.23,27.77,27.77,0,0,0-2.88,12c0,.93.15,1.86.17,2.79,0,1.91-1.28,2.79-3.07,2.09a8,8,0,0,1-4.6-7.24c.17-2.48.74-5.23,1.15-8a53.06,53.06,0,0,1,1-5.61,5.16,5.16,0,0,1,.4-1.1.82.82,0,0,1,1.21-.41,56.4,56.4,0,0,0,6.46,2.57A1.12,1.12,0,0,1,40.25,12.85Z"/>
    <path class="cls-2"
          d="M45.46,17.13c-.59-.28-.77-.19-1,.43a66.37,66.37,0,0,1-3.21,8.6,3.25,3.25,0,0,0-.37,1.57A5.29,5.29,0,0,0,42.23,31a1.06,1.06,0,0,0,1.83-.07c.31-.4.55-.86.82-1.29,1.38-2.27,1.89-4.87,2.79-7.31C48.78,19.3,48.4,18.5,45.46,17.13Zm1.4,4.41a65.43,65.43,0,0,0-2.8,6.84c0,.08-.06.17-.1.25-.29.46-.32,1.4-.86,1.32s-.68-1-.79-1.59c0-.18,0-.36-.05-.44a12.36,12.36,0,0,1,1.21-3.86c.73-1.75,1.73-3.39,1.83-5.35,0-.46.27-.52.66-.27A2.26,2.26,0,0,1,46.86,21.54Z"/>
    <path class="cls-2"
          d="M35.82,35.1a2.55,2.55,0,0,0-3.12.18,5.37,5.37,0,0,0-2.12,4.84,2.81,2.81,0,0,0,2.17,2.59A6.53,6.53,0,0,0,37,42.36a2.43,2.43,0,0,0,1.61-2.42A7,7,0,0,0,35.82,35.1ZM37,40.32a3.38,3.38,0,0,1-2.47,1.17A3.25,3.25,0,0,1,31.9,40a1.5,1.5,0,0,1-.3-1.28,5.85,5.85,0,0,1,2.69-3.14c.37-.23.78,0,1.08.28a8.21,8.21,0,0,1,1.93,2.59A1.61,1.61,0,0,1,37,40.32Z"/>
    <path class="cls-2"
          d="M42.37,31.93a1.61,1.61,0,0,0-1.91-.37,1.48,1.48,0,0,0-.92,1.52,3.84,3.84,0,0,0,2.19,3.2.94.94,0,0,0,1.45-.69,4.34,4.34,0,0,0,.11-.8A4.13,4.13,0,0,0,42.37,31.93Zm-.3,3a1.73,1.73,0,0,1-1.32-1.43c0-.49.15-1,.69-1.15s.56.46.69.8a8.66,8.66,0,0,1,.32,1C42.54,34.81,42.47,35,42.07,35Z"/>
    <path class="cls-3"
          d="M29.31,23.75c.17-2.48.74-5.23,1.15-8a53.06,53.06,0,0,1,1-5.61,5.16,5.16,0,0,1,.4-1.1.82.82,0,0,1,1.21-.41,56.4,56.4,0,0,0,6.46,2.57,1.12,1.12,0,0,1,.74,1.65,11.33,11.33,0,0,1-.56,1.23,27.77,27.77,0,0,0-2.88,12c0,.93.15,1.86.17,2.79,0,1.91-1.28,2.79-3.07,2.09A8,8,0,0,1,29.31,23.75Z"/>
    <path class="cls-4"
          d="M42.26,27.92a12.36,12.36,0,0,1,1.21-3.86c.73-1.75,1.73-3.39,1.83-5.35,0-.46.27-.52.66-.27a2.26,2.26,0,0,1,.9,3.1,65.43,65.43,0,0,0-2.8,6.84c0,.08-.06.17-.1.25-.29.46-.32,1.4-.86,1.32s-.68-1-.79-1.59C42.28,28.18,42.27,28,42.26,27.92Z"/>
    <path class="cls-5"
          d="M34.56,41.49A3.25,3.25,0,0,1,31.9,40a1.5,1.5,0,0,1-.3-1.28,5.85,5.85,0,0,1,2.69-3.14c.37-.23.78,0,1.08.28a8.21,8.21,0,0,1,1.93,2.59A1.61,1.61,0,0,1,37,40.32,3.38,3.38,0,0,1,34.56,41.49Z"/>
    <path class="cls-4"
          d="M42.45,34.22c.09.59,0,.8-.38.74a1.73,1.73,0,0,1-1.32-1.43c0-.49.15-1,.69-1.15s.56.46.69.8A8.66,8.66,0,0,1,42.45,34.22Z"/>
</svg>