<svg id="Vrstva_1" data-name="Vrstva 1" xmlns="http://www.w3.org/2000/svg" viewBox="0 0 75 50"><defs><style>.cls-1{fill:#080807;}.cls-2{fill:#0a0a0a;}.cls-3{fill:#fbecbe;}.cls-4{fill:#f9eabc;}.cls-5{fill:#efe1b5;}</style></defs><path class="cls-1" d="M50.69,23.34a41.4,41.4,0,0,0-6.37-.9,2.27,2.27,0,0,1-2.26-1.88,11.69,11.69,0,0,1-.1-4,10.08,10.08,0,0,0,.21-3.42c-.25-1-.38-2.13-1.53-2.51s-1.83.51-2.59,1.13a26.34,26.34,0,0,0-4.7,5.76,3.55,3.55,0,0,1-3.42,1.67,54.77,54.77,0,0,0-6.78,0c-2.66.12-3.26,1-2.21,3.48A9.19,9.19,0,0,0,21.63,24a12.38,12.38,0,0,0,4.87,4.43c1.57.85,1.74,1.7.7,3.16a14.86,14.86,0,0,1-2.78,2.88A3.68,3.68,0,0,0,23.14,38,1.64,1.64,0,0,0,24.6,39.6c2.81.29,5.61.3,8.15-1.21,1.8-1.07,2.29-1,3.77.41.36.35.7.71,1.06,1.05a9.46,9.46,0,0,0,6.5,2.75c.32,0,.63,0,.93,0,2.12-.22,2.73-.89,2.64-3.05a9.65,9.65,0,0,0-2.2-5.45c-.9-1.19-.74-1.84.51-2.63.39-.25.81-.45,1.19-.7a12.38,12.38,0,0,0,4.68-4.95C52.5,24.4,52.16,23.69,50.69,23.34Zm-1.63,2.79a11.89,11.89,0,0,1-4.83,3.61c-2.14.9-2.41,1.65-1.23,3.68a39.41,39.41,0,0,1,2.93,6c.17.46.55,1,0,1.5s-1,.16-1.42,0a15,15,0,0,1-6.41-3.46c-1.74-1.64-3.44-2.15-5.69-.9a12.2,12.2,0,0,1-5.8,1.24c-1.37,0-1.57-.37-1-1.59A15.67,15.67,0,0,1,28.24,33a10.51,10.51,0,0,0,1-1.37,2.27,2.27,0,0,0-.51-3,37.05,37.05,0,0,1-4.83-6c-.37-.55-1.07-1.19-.66-1.82s1.21-.21,1.84-.18q2.86.15,5.73.38A3.38,3.38,0,0,0,34,19.48c1.34-1.81,2.67-3.64,4-5.45.29-.37.57-1,1.13-.85s.67.78.84,1.28a9.94,9.94,0,0,1,.25,4.73,31.65,31.65,0,0,0,.14,3.72c.28,1.45,1,1.93,2.43,1.73a17,17,0,0,1,5.6-.17C49.7,24.72,49.86,25.11,49.06,26.13Z"/><path class="cls-1" d="M58.31,12.53a6.75,6.75,0,0,0-3.16-3.65,2.77,2.77,0,0,0-4.09.91,56.62,56.62,0,0,0-3.71,5.93,3.49,3.49,0,0,0-.36.84c-.32,1-.07,1.39,1,1.52l4.34.5a3.69,3.69,0,0,0,3.19-.94c.63-.5,1.26-1,1.87-1.53A2.82,2.82,0,0,0,58.31,12.53Zm-2.67,2.58A14.36,14.36,0,0,1,51,16.44c-1.56,0-1.85-.4-1.26-1.51a22.49,22.49,0,0,1,2.63-4,1.32,1.32,0,0,1,2.17-.12,10.26,10.26,0,0,1,1.74,2C56.92,13.81,56.76,14.53,55.64,15.11Z"/><path class="cls-2" d="M23.61,27.68c-.15-.33-.47-.21-.71-.18a20.44,20.44,0,0,1-4.69-.1,1.3,1.3,0,0,0-1.56,1.16,17.9,17.9,0,0,0-.2,2.7A10.64,10.64,0,0,0,16.66,34c.27.82.77,1,1.33.34,1.71-2.06,3.55-4,5.38-6A.68.68,0,0,0,23.61,27.68ZM20,30.42a5.92,5.92,0,0,1-1.71,1.71,21.89,21.89,0,0,0-.11-2.23c-.11-.73.26-1,.87-1,.45,0,1-.12,1.27.31S20.27,30.06,20,30.42Z"/><path class="cls-1" d="M31.09,9.94C31,9.19,30.68,8.81,30,9.49a12.45,12.45,0,0,1-3.72,2.63c-.66.31-.84.87-.3,1.37a13.55,13.55,0,0,0,4.62,2.91c.67.25,1.11-.11,1.08-.69C31.48,13.66,31.3,11.8,31.09,9.94Zm-1.48,4.61c-.6-.12-1.32-.43-1.26-.93s.78-.77,1.26-1.21Z"/><path class="cls-3" d="M48.42,24.47a17,17,0,0,0-5.6.17c-1.46.2-2.15-.28-2.43-1.73a31.65,31.65,0,0,1-.14-3.72A9.94,9.94,0,0,0,40,14.46c-.17-.5-.24-1.16-.84-1.28s-.84.48-1.13.85c-1.36,1.81-2.69,3.64-4,5.45A3.38,3.38,0,0,1,30.85,21q-2.87-.22-5.73-.38c-.63,0-1.49-.37-1.84.18s.29,1.27.66,1.82a37.05,37.05,0,0,0,4.83,6,2.27,2.27,0,0,1,.51,3,10.51,10.51,0,0,1-1,1.37,15.67,15.67,0,0,0-2.58,3.21c-.59,1.22-.39,1.6,1,1.59a12.2,12.2,0,0,0,5.8-1.24c2.25-1.25,4-.74,5.69.9a15,15,0,0,0,6.41,3.46c.47.13,1,.35,1.42,0s.14-1,0-1.5a39.41,39.41,0,0,0-2.93-6c-1.18-2-.91-2.78,1.23-3.68a11.89,11.89,0,0,0,4.83-3.61C49.86,25.11,49.7,24.72,48.42,24.47Zm-17,2.37c-.45,0-.84-.19-.85-.73s.47-.7.88-.8c.53.08,1,.22,1,.82S31.89,26.87,31.38,26.84Zm7.55,3.25c-.36.59-.92.76-1.83.75a2.4,2.4,0,0,1-2.25-1.45c-.09-.22-.23-.45,0-.61s.37.06.5.26c1,1.41,1.55,1.52,3.16.62a.5.5,0,0,1,.41,0C39.19,29.75,39,29.94,38.93,30.09Zm1.65-1.79c-.45,0-.86-.2-.83-.74s.52-.78,1.06-.75a.89.89,0,0,1,.83.74A.92.92,0,0,1,40.58,28.3Z"/><path class="cls-4" d="M51,16.44c-1.56,0-1.85-.4-1.26-1.51a22.49,22.49,0,0,1,2.63-4,1.32,1.32,0,0,1,2.17-.12,10.26,10.26,0,0,1,1.74,2c.68,1.05.52,1.77-.6,2.35A14.36,14.36,0,0,1,51,16.44Z"/><path class="cls-5" d="M18.32,32.13a21.89,21.89,0,0,0-.11-2.23c-.11-.73.26-1,.87-1,.45,0,1-.12,1.27.31s-.08.86-.32,1.22A5.92,5.92,0,0,1,18.32,32.13Z"/><path class="cls-5" d="M29.61,12.41v2.14c-.6-.12-1.32-.43-1.26-.93S29.13,12.85,29.61,12.41Z"/><path class="cls-2" d="M37.1,30.84a2.4,2.4,0,0,1-2.25-1.45c-.09-.22-.23-.45,0-.61s.37.06.5.26c1,1.41,1.55,1.52,3.16.62a.5.5,0,0,1,.41,0c.25.13.08.32,0,.47C38.57,30.68,38,30.85,37.1,30.84Z"/><path class="cls-2" d="M41.64,27.55a.92.92,0,0,1-1.06.75c-.45,0-.86-.2-.83-.74s.52-.78,1.06-.75A.89.89,0,0,1,41.64,27.55Z"/><path class="cls-2" d="M31.41,25.31c.53.08,1,.22,1,.82s-.49.74-1,.71-.84-.19-.85-.73S31,25.41,31.41,25.31Z"/></svg>