<svg id="Vrstva_1" data-name="Vrstva 1" xmlns="http://www.w3.org/2000/svg" viewBox="0 0 75 50">
    <defs>
        <style>
            :root.dark{
            --cls-1-color:#fcb490;
            --cls-2-color:#fcb490;
            --cls-3-color:#fcb49080;
            --cls-4-color:#fcb49080;
            --cls-5-color:#fcb49080;
            }
            :root{
            --cls-1-color:#070606;
            --cls-2-color:#090808;
            --cls-3-color:#fcb490;
            --cls-4-color:#f8b18e;
            --cls-5-color:#f7b08d;
            }
            .cls-1{fill:var(--cls-1-color);}
            .cls-2{fill:var(--cls-2-color);}
            .cls-3{fill:var(--cls-3-color);}
            .cls-4{fill:var(--cls-4-color);}
            .cls-5{fill:var(--cls-5-color);}
        </style>
    </defs>
    <path class="cls-1"
          d="M54.34,18.39a12.56,12.56,0,0,0-6.35.42c-2.14.66-2.57.47-3.57-1.49a18.3,18.3,0,0,0-2.92-4.6,1.73,1.73,0,0,0-2.88.07c-.56.62-1,1.31-1.63,1.9a3.82,3.82,0,0,1-3.72,1.23,33.33,33.33,0,0,0-5.16-.59c-2.49,0-3.73.56-4.75,2a2.67,2.67,0,0,0,.3,3.87,35.6,35.6,0,0,0,4.92,4c1.44,1,1.48,1.67.18,2.86a10.38,10.38,0,0,0-2.88,4.13c-.59,1.58-.26,2.6,1.33,3.1,2.8.88,5.55.88,8-1.11a2.36,2.36,0,0,1,3.15-.11,10.45,10.45,0,0,1,1.7,1.69,6.16,6.16,0,0,0,4.36,2.34c2.48.15,4.06-1.12,4.32-3.58a5.37,5.37,0,0,0-1-3.69c-.78-1.13-.58-1.93.62-2.6.56-.31,1.16-.55,1.74-.8a11.23,11.23,0,0,0,6-5.68C56.89,19.94,56.31,18.82,54.34,18.39Zm-1,4.15a9.16,9.16,0,0,1-3,2.31,14.84,14.84,0,0,0-1.52.82c-2.55,1.54-2.81,3.9-2.36,6.54.15.85.23,1.71.32,2.57a1.13,1.13,0,0,1-1.1,1.38,6.05,6.05,0,0,1-3.36-.54,15.32,15.32,0,0,1-4.47-3.1c-1.17-1.09-2-1.13-3.19-.07a7.68,7.68,0,0,1-4.14,1.83,2.06,2.06,0,0,1-2.11-.6,2.17,2.17,0,0,1-.05-2.37,18.15,18.15,0,0,1,2.2-2.9c.55-.71,1.12-1.4,1.68-2.1a1,1,0,0,0-.3-1.7,9.84,9.84,0,0,0-1.74-.81A17.43,17.43,0,0,1,25,20.7c-1.4-1.22-1.31-2.19.25-3.19a6,6,0,0,1,3.18-.93,7.27,7.27,0,0,1,2.61.56c.72.26,1.44.54,2.18.73a4.31,4.31,0,0,0,4.64-1.52c.42-.49.75-1,1.12-1.57.9-1.3,1.56-1.29,2.42.08a25.33,25.33,0,0,1,1.46,3.23A10.76,10.76,0,0,0,44,20.28a2,2,0,0,0,3.05.5,5.64,5.64,0,0,1,5.74-.61C54.15,20.75,54.27,21.47,53.32,22.54Z"/>
    <path class="cls-1"
          d="M55.82,9a35.28,35.28,0,0,0-3.93-1.5,3.5,3.5,0,0,0-3.5.76,7.43,7.43,0,0,0-2.52,5.3c0,1.72.94,2.48,2.62,2.05a21.47,21.47,0,0,0,2.89-1,15.11,15.11,0,0,0,4.84-2.86C57.39,10.65,57.26,9.68,55.82,9Zm-1.29,2.73c-2.2.78-4.38,1.61-6.51,2.56-.4.18-.79.16-.7-.77A11.75,11.75,0,0,1,49.41,9.2a1.2,1.2,0,0,1,1.41-.31,24.23,24.23,0,0,1,3.8,2C55.14,11.25,55.1,11.56,54.53,11.76Z"/>
    <path class="cls-1"
          d="M38,37.21c-1.08-1.62-2.37-1.68-3.54-.13a21.55,21.55,0,0,0-3.4,6.49,5.14,5.14,0,0,0-.3,1.69c0,1.18.52,1.63,1.69,1.48a20.31,20.31,0,0,0,3.59-1c2.32-.76,3.2-2,3.2-4.39A7.38,7.38,0,0,0,38,37.21Zm-1.39,6.6a26.75,26.75,0,0,1-3.87.66c-.68.07-1-.14-.55-.84q1.85-2.81,3.45-5.76c.42-.76.73-.75,1.09,0A14.71,14.71,0,0,1,37.79,42C37.8,43,37.47,43.59,36.61,43.81Z"/>
    <path class="cls-2"
          d="M20.68,23.4a25.89,25.89,0,0,1-6,.8c-.47,0-.65.41-.56.83a3.64,3.64,0,0,0,.43,1.06c1.1,1.91,2.11,3.87,3.09,5.85.63,1.28,1.49,1.52,2.6.62A13.6,13.6,0,0,0,24,28C25,25.9,23.31,23.39,20.68,23.4Zm1.38,4.67c-.77,1-1.51,2.06-2.25,3.1-.38.54-.71.75-1.07,0a28.74,28.74,0,0,0-3-4.78c-.47-.61-.26-1,.42-1.2a19.72,19.72,0,0,1,3.45-.52,4.8,4.8,0,0,1,1.54.32C23.06,25.74,23.26,26.45,22.06,28.07Z"/>
    <path class="cls-2"
          d="M32.59,5.93a1.86,1.86,0,0,0-2-1.46,4.86,4.86,0,0,0-4.07,2.14,1.84,1.84,0,0,0-.15,1.91c.84,2,1.94,3.58,4.32,3.82a12.7,12.7,0,0,1,1.65.46c1,.24,1.28,0,1.27-1.13A45.6,45.6,0,0,0,32.59,5.93Zm-1.54,5a10.31,10.31,0,0,1-2.91-2.16c-.71-.75-.63-1.36.24-1.89,2.76-1.65,3-1.14,3.47,1.38.12.63.21,1.26.28,1.67C32.17,11.12,31.94,11.31,31.05,10.88Z"/>
    <path class="cls-1"
          d="M58.76,28.61c-1.08-.11-2.17-.15-3.25-.22v.06c-.87,0-1.73-.05-2.59,0-.7.06-1,.46-.69,1.2a14.27,14.27,0,0,1,.82,1.94,4.83,4.83,0,0,0,3.33,3.23c2,.77,3,.19,3.92-1.62a4.64,4.64,0,0,0,.5-2.41A2,2,0,0,0,58.76,28.61Zm-.3,4.77a.9.9,0,0,1-1.36.19,10,10,0,0,1-2.86-2.94c-.36-.57-.18-.86.48-1s1.21.06,1.78,0a18,18,0,0,1,2.13.25c.45.16.8.45.74.89A5.53,5.53,0,0,1,58.46,33.38Z"/>
    <path class="cls-3"
          d="M52.83,20.17a5.64,5.64,0,0,0-5.74.61,2,2,0,0,1-3.05-.5,10.76,10.76,0,0,1-1.18-2.19,25.33,25.33,0,0,0-1.46-3.23c-.86-1.37-1.52-1.38-2.42-.08-.37.53-.7,1.08-1.12,1.57a4.31,4.31,0,0,1-4.64,1.52c-.74-.19-1.46-.47-2.18-.73a7.27,7.27,0,0,0-2.61-.56,6,6,0,0,0-3.18.93c-1.56,1-1.65,2-.25,3.19a17.43,17.43,0,0,0,5.15,3.1,9.84,9.84,0,0,1,1.74.81,1,1,0,0,1,.3,1.7c-.56.7-1.13,1.39-1.68,2.1a18.15,18.15,0,0,0-2.2,2.9,2.17,2.17,0,0,0,.05,2.37,2.06,2.06,0,0,0,2.11.6,7.68,7.68,0,0,0,4.14-1.83c1.19-1.06,2-1,3.19.07a15.32,15.32,0,0,0,4.47,3.1,6.05,6.05,0,0,0,3.36.54,1.13,1.13,0,0,0,1.1-1.38c-.09-.86-.17-1.72-.32-2.57-.45-2.64-.19-5,2.36-6.54a14.84,14.84,0,0,1,1.52-.82,9.16,9.16,0,0,0,3-2.31C54.27,21.47,54.15,20.75,52.83,20.17Zm-17.7,2.88c-.37,0-.7-.14-.73-.59s.36-.6.7-.66.86.14.84.64S35.55,23.06,35.13,23.05Zm6.81,6.07a2.41,2.41,0,0,1-2.11.83,4.46,4.46,0,0,1-3.32-1.29c-.18-.16-.66-.32-.27-.73s.54-.08.78.14a3.86,3.86,0,0,0,2.86,1.11,1.71,1.71,0,0,0,1.45-.59.48.48,0,0,1,.73-.14C42.29,28.65,42.09,28.92,41.94,29.12Zm2.81-3.91c-.43,0-.82-.14-.84-.6s.33-.65.77-.66.78.17.79.65S45.13,25.19,44.75,25.21Z"/>
    <path class="cls-4"
          d="M47.32,13.55A11.75,11.75,0,0,1,49.41,9.2a1.2,1.2,0,0,1,1.41-.31,24.23,24.23,0,0,1,3.8,2c.52.34.48.65-.09.85-2.2.78-4.38,1.61-6.51,2.56C47.62,14.5,47.23,14.48,47.32,13.55Z"/>
    <path class="cls-5"
          d="M37.79,42c0,1-.32,1.62-1.18,1.84a26.75,26.75,0,0,1-3.87.66c-.68.07-1-.14-.55-.84q1.85-2.81,3.45-5.76c.42-.76.73-.75,1.09,0A14.71,14.71,0,0,1,37.79,42Z"/>
    <path class="cls-4"
          d="M19.63,24.66a4.8,4.8,0,0,1,1.54.32c1.89.76,2.09,1.47.89,3.09-.77,1-1.51,2.06-2.25,3.1-.38.54-.71.75-1.07,0a28.74,28.74,0,0,0-3-4.78c-.47-.61-.26-1,.42-1.2A19.72,19.72,0,0,1,19.63,24.66Z"/>
    <path class="cls-4"
          d="M32.13,9.88c0,1.24-.19,1.43-1.08,1a10.31,10.31,0,0,1-2.91-2.16c-.71-.75-.63-1.36.24-1.89,2.76-1.65,3-1.14,3.47,1.38C32,8.84,32.06,9.47,32.13,9.88Z"/>
    <path class="cls-5"
          d="M56.5,29.65a18,18,0,0,1,2.13.25c.45.16.8.45.74.89a5.53,5.53,0,0,1-.91,2.59.9.9,0,0,1-1.36.19,10,10,0,0,1-2.86-2.94c-.36-.57-.18-.86.48-1S55.93,29.71,56.5,29.65Z"/>
    <path class="cls-2"
          d="M39.83,30a4.46,4.46,0,0,1-3.32-1.29c-.18-.16-.66-.32-.27-.73s.54-.08.78.14a3.86,3.86,0,0,0,2.86,1.11,1.71,1.71,0,0,0,1.45-.59.48.48,0,0,1,.73-.14c.23.2,0,.47-.12.67A2.41,2.41,0,0,1,39.83,30Z"/>
    <path class="cls-2" d="M44.68,24c.43,0,.78.17.79.65s-.34.59-.72.61-.82-.14-.84-.6S44.24,24,44.68,24Z"/>
    <path class="cls-2" d="M35.1,21.8c.46,0,.86.14.84.64s-.39.62-.81.61-.7-.14-.73-.59S34.76,21.86,35.1,21.8Z"/>
</svg>