<svg id="Vrstva_1" data-name="Vrstva 1" xmlns="http://www.w3.org/2000/svg" viewBox="0 0 75 50"><defs><style>.cls-1{fill:#070707;}.cls-2{fill:#c3e4f6;}.cls-3{fill:#0d0f10;}.cls-4{fill:#08090a;}.cls-5{fill:#161a1c;}</style></defs><path class="cls-1" d="M48.89,23.65a24.83,24.83,0,0,0-5.14-1.5,5.17,5.17,0,0,1-4-3c-.57-1.14-1.11-2.28-1.56-3.46-.14-.37-.23-.85-.68-.9s-.65.39-.85.73a36.31,36.31,0,0,1-2.87,4.1,4.88,4.88,0,0,1-3.22,1.85,8.85,8.85,0,0,0-4.3,1.64A1.22,1.22,0,0,0,26,25,7.35,7.35,0,0,0,26.89,26a11.87,11.87,0,0,0,4.19,2.45c1.11.43,1.21,1,.43,1.88-.3.37-.65.7-1,1.07A6.87,6.87,0,0,0,29,35.16c0,1.25.48,1.77,1.61,1.78a6.88,6.88,0,0,0,4.32-1.51,3,3,0,0,1,3.45-.32,19.14,19.14,0,0,1,3.91,2.51,2.37,2.37,0,0,0,3.26,0c1.59-1.17,1.73-2.72,1.21-4.47a5.34,5.34,0,0,1,1.63-5.84l1-1C50.69,25.1,50.56,24.3,48.89,23.65Zm-3.4,3.85c-.18.16-.37.3-.56.45-1.78,1.42-1.81,1.74-.81,3.75.51,1,1.18,2.32.39,3.25s-1.93,0-2.87-.24A11.33,11.33,0,0,1,38.24,33a2.86,2.86,0,0,0-2.93-.34c-.63.25-1.26.5-1.88.77l-1.84.8a5,5,0,0,1,1.48-2.83c1.79-2.36,1.78-2.46-.84-3.89a13.94,13.94,0,0,1-2.59-1.7c-1-.86-1-1.37.15-2.12a4.32,4.32,0,0,1,2.58-.81A2.8,2.8,0,0,0,35,21.34c.77-1.32,1.56-2.63,2.44-4.11.53,1.51,1,2.77,1.43,4.06a3.84,3.84,0,0,0,4.18,3,3.09,3.09,0,0,1,2.56,1.07A1.36,1.36,0,0,1,45.49,27.5Z"/><path class="cls-2" d="M45.61,25.33a3.09,3.09,0,0,0-2.56-1.07,3.84,3.84,0,0,1-4.18-3c-.4-1.29-.9-2.55-1.43-4.06C36.56,18.71,35.77,20,35,21.34a2.8,2.8,0,0,1-2.63,1.54,4.32,4.32,0,0,0-2.58.81c-1.11.75-1.15,1.26-.15,2.12a13.94,13.94,0,0,0,2.59,1.7c2.62,1.43,2.63,1.53.84,3.89a5,5,0,0,0-1.48,2.83l1.84-.8c.62-.27,1.25-.52,1.88-.77a2.86,2.86,0,0,1,2.93.34,11.33,11.33,0,0,0,3.4,1.71c.94.28,2.15,1.1,2.87.24s.12-2.22-.39-3.25c-1-2-1-2.33.81-3.75.19-.15.38-.29.56-.45A1.36,1.36,0,0,0,45.61,25.33Zm-11,1.48c-.54-.09-1.06-.24-1-.91s.55-.91,1.15-.89,1,.26,1,.9S35.19,26.74,34.62,26.81Zm5,2.61a1.57,1.57,0,0,1-2.17-.73c1.06.49,2,.84,2.58-.69C40.34,28.79,40.23,29.11,39.63,29.42Zm2.14-2.22c-.67,0-1.22-.17-1.21-.89s.53-.85,1.1-.85,1.05.18,1.08.85S42.3,27.17,41.77,27.2Z"/><path class="cls-3" d="M34.62,26.81c-.54-.09-1.06-.24-1-.91s.55-.91,1.15-.89,1,.26,1,.9S35.19,26.74,34.62,26.81Z"/><path class="cls-4" d="M41.77,27.2c-.67,0-1.22-.17-1.21-.89s.53-.85,1.1-.85,1.05.18,1.08.85S42.3,27.17,41.77,27.2Z"/><path class="cls-5" d="M37.46,28.69c1.06.49,2,.84,2.58-.69.3.79.19,1.11-.41,1.42A1.57,1.57,0,0,1,37.46,28.69Z"/></svg>