<svg id="Vrstva_1" data-name="Vrstva 1" xmlns="http://www.w3.org/2000/svg" viewBox="0 0 75 50">
    <defs>
        <style>
            :root.dark{
            --cls-1-color:#c0e6b2;
            --cls-2-color:#c0e6b2;
            --cls-3-color:#c0e6b280;
            --cls-4-color:#c0e6b280;
            --cls-5-color:#c0e6b2;
            }
            :root{
            --cls-1-color:#060706;
            --cls-2-color:#090a09;
            --cls-3-color:#c0e6b2;
            --cls-4-color:#bae0ad;
            --cls-5-color:#10130f;
            }
            .cls-1{fill:var(--cls-1-color);}
            .cls-2{fill:var(--cls-2-color);}
            .cls-3{fill:var(--cls-3-color);}
            .cls-4{fill:var(--cls-4-color);}
            .cls-5{fill:var(--cls-5-color);}
        </style>
    </defs>
    <path class="cls-1"
          d="M50.8,21.33a26.43,26.43,0,0,0-6.65.18c-1.62.15-2.18-.06-2.81-1.55-.76-1.74-1.36-3.55-2.12-5.29a3.26,3.26,0,0,0-5.41-1,9.42,9.42,0,0,0-2,2.83c-1,2.32-2.82,2.8-5.07,2.56a13.36,13.36,0,0,1-2.33-.47A1.82,1.82,0,0,0,22,19.81a4.31,4.31,0,0,0,1.08,5A19.45,19.45,0,0,0,28,28.16c3.07,1.47,2.93,2.09.88,4.62A6.87,6.87,0,0,0,27,37.42c0,2.17,1,3.18,3.15,3A11.66,11.66,0,0,0,36.7,38c1.7-1.32,2.33-1.27,3.88.26a11.3,11.3,0,0,0,3.61,2.48c2.83,1.16,4.94-.28,4.77-3.3A10.89,10.89,0,0,0,47,31.74c-1.32-1.91-1.22-2.5.75-3.79.44-.28.87-.55,1.29-.86A8.24,8.24,0,0,0,52,23.4C52.5,22.13,52.13,21.54,50.8,21.33Zm-1.93,4.1a28.86,28.86,0,0,1-3.79,2.69c-1.71,1.08-1.84,1.82-.73,3.5a13.48,13.48,0,0,1,2.12,4.5c.26,1.15-.08,1.65-1.26,1.78a6,6,0,0,1-4.2-1,5,5,0,0,0-5-.56c-1.73.67-3.56,1.11-5.36,1.61-.43.12-1,.37-1.33-.09s0-1,.16-1.46a2.87,2.87,0,0,1,1.09-1.07,5.73,5.73,0,0,0,2.3-4,2.8,2.8,0,0,0-1.38-3,21.93,21.93,0,0,1-6.41-5.8c-.4-.52-1.1-1.11-.8-1.72s1.15-.34,2-.36a9,9,0,0,1,2.95.59c1.66.49,2.34.15,2.93-1.45a15.54,15.54,0,0,1,2-4c1-1.38,1.81-1.37,2.77,0a15.38,15.38,0,0,1,2.47,5.76c.46,2.45,1.37,3.07,3.85,2.48a8.47,8.47,0,0,1,5.27.1C49.71,24.38,49.78,24.61,48.87,25.43Z"/>
    <path class="cls-2"
          d="M50.56,12.41c-1.25-.76-2.55-1.47-3.86-2.12s-1.64-.37-1.94.93a47.73,47.73,0,0,0-.89,6.15c0,1.35.42,1.79,1.56,1.32a14.63,14.63,0,0,0,5.54-4C51.77,13.74,51.63,13.07,50.56,12.41ZM48,15.21a6.3,6.3,0,0,1-1.81,1.35c-1,.51-1.14.44-1.11-.68.11-.83.23-1.66.31-2.49.1-1.07.73-1.32,1.66-1.1.75.17,1.55.4,1.8,1.19S48.5,14.72,48,15.21Z"/>
    <path class="cls-3"
          d="M48.57,23.91a8.47,8.47,0,0,0-5.27-.1c-2.48.59-3.39,0-3.85-2.48A15.38,15.38,0,0,0,37,15.57c-1-1.4-1.73-1.41-2.77,0a15.54,15.54,0,0,0-2,4c-.59,1.6-1.27,1.94-2.93,1.45a9,9,0,0,0-2.95-.59c-.83,0-1.7-.2-2,.36s.4,1.2.8,1.72a21.93,21.93,0,0,0,6.41,5.8,2.8,2.8,0,0,1,1.38,3,5.73,5.73,0,0,1-2.3,4,2.87,2.87,0,0,0-1.09,1.07c-.18.46-.53,1-.16,1.46s.9.21,1.33.09c1.8-.5,3.63-.94,5.36-1.61a5,5,0,0,1,5,.56,6,6,0,0,0,4.2,1c1.18-.13,1.52-.63,1.26-1.78a13.48,13.48,0,0,0-2.12-4.5c-1.11-1.68-1-2.42.73-3.5a28.86,28.86,0,0,0,3.79-2.69C49.78,24.61,49.71,24.38,48.57,23.91ZM33.84,25.79c-.51,0-1-.26-1-.83s.52-.86,1.08-.84.93.22,1,.75C34.87,25.61,34.39,25.79,33.84,25.79Zm5.8,4.28a2,2,0,0,1-1.49.85,3,3,0,0,1-2.33-1.19c-.2-.19-.27-.39,0-.59s.36,0,.49.14c.91,1,1.85,1.53,3,.27a.29.29,0,0,1,.42,0C39.89,29.72,39.75,29.93,39.64,30.07Zm.79-2.68c-.57,0-1.08-.16-1.09-.81s.52-.85,1.07-.86a.93.93,0,0,1,1,.83A.89.89,0,0,1,40.43,27.39Z"/>
    <path class="cls-4"
          d="M45.12,15.88c.11-.83.23-1.66.31-2.49.1-1.07.73-1.32,1.66-1.1.75.17,1.55.4,1.8,1.19s-.39,1.24-.85,1.73a6.3,6.3,0,0,1-1.81,1.35C45.2,17.07,45.09,17,45.12,15.88Z"/>
    <path class="cls-5"
          d="M38.15,30.92a3,3,0,0,1-2.33-1.19c-.2-.19-.27-.39,0-.59s.36,0,.49.14c.91,1,1.85,1.53,3,.27a.29.29,0,0,1,.42,0c.21.17.07.38,0,.52A2,2,0,0,1,38.15,30.92Z"/>
    <path class="cls-5" d="M34.93,24.87c-.06.74-.54.92-1.09.92s-1-.26-1-.83.52-.86,1.08-.84S34.86,24.34,34.93,24.87Z"/>
    <path class="cls-5"
          d="M41.4,26.55a.89.89,0,0,1-1,.84c-.57,0-1.08-.16-1.09-.81s.52-.85,1.07-.86A.93.93,0,0,1,41.4,26.55Z"/>
</svg>