<svg id="Vrstva_1" data-name="Vrstva 1" xmlns="http://www.w3.org/2000/svg" viewBox="0 0 75 50">
    <defs>
        <style>
            :root.dark{
            --cls-1-color:#fcb490;
            --cls-2-color:#fcb490;
            --cls-3-color:#fcb49080;
            --cls-4-color:#fcb490;
            --cls-5-color:#c0e6b200;
            }
            :root{
            --cls-1-color:#080706;
            --cls-2-color:#f2ac8a;
            --cls-3-color:#fcb490;
            --cls-4-color:#060505;
            --cls-5-color:#fbfbfb;
            }
            .cls-1{fill:var(--cls-1-color);}
            .cls-2{fill:var(--cls-2-color);}
            .cls-3{fill:var(--cls-3-color);}
            .cls-4{fill:var(--cls-4-color);}
            .cls-5{fill:var(--cls-5-color);}

        </style>
    </defs>
    <path class="cls-1"
          d="M58.75,19.62c-1-1.08-1.38-1-1.94.32a34.74,34.74,0,0,1-1.47,3.16,42.13,42.13,0,0,0-3.15,8.36c-.06.21-.24.47,0,.63s.42-.11.6-.23a3.24,3.24,0,0,0,.38-.36q2.81-2.8,5.6-5.63A10.94,10.94,0,0,0,61,23.09v-.52A12.87,12.87,0,0,0,58.75,19.62Zm-.12,4.23C57.39,25.07,56,26.17,55.11,27c.61-1.43,1.41-3.44,2.39-5.38.23-.45.46-.57.78-.09a1.48,1.48,0,0,0,.25.25C59.62,22.77,59.68,22.83,58.63,23.85Z"/>
    <path class="cls-1"
          d="M50.83,31.46c-.15-3.66-.32-7.33-.49-11a27.81,27.81,0,0,0-.19-5.32c-.2-1.2-.5-1.32-1.44-.56-1.22,1-2.4,2.05-3.6,3.06s-1.41.85-1.88-.47a12.65,12.65,0,0,0-1-2.33,25.92,25.92,0,0,1-2.14-4.67,19.43,19.43,0,0,0-2-4.09c-.16-.26-.33-.6-.72-.55s-.45.43-.55.71A10.91,10.91,0,0,1,35,9.69a12.53,12.53,0,0,0-2.18,4c-.54,1.59-1.12,1.79-2.52.85-.31-.21-.61-.45-.9-.69a20.37,20.37,0,0,0-2.18-1.75c-1.14-.69-1.73-.43-2,.86,0,.14,0,.29,0,.43a111.48,111.48,0,0,0-.79,13.78,11.38,11.38,0,0,1-.07,1.31c0,.44-.18.62-.57.21a5.08,5.08,0,0,0-1.49-1.05c-.62-.31-1-.11-1.15.55a4.37,4.37,0,0,0-.05,1.65c.21,1.62.55,3.22.68,4.85.17,2.15,1.57,3.6,3.12,4.8a22.62,22.62,0,0,0,4.32,2.45,15.53,15.53,0,0,0,8,1.68,22.86,22.86,0,0,1,5.23.14,4,4,0,0,0,3-.62C48,41.22,50,38.94,50.58,35.73A19.08,19.08,0,0,0,50.83,31.46Zm-1.91-13.1c0,5,0,10,0,15a16.8,16.8,0,0,1-.19,2.35,4.48,4.48,0,0,1-1.29,2.62c-.92.9-1.87,1.76-2.77,2.67A4.5,4.5,0,0,1,41,42.32q-3.43-.18-6.89-.3a10.18,10.18,0,0,1-5.38-1.85,13,13,0,0,0-1.13-.82,8.75,8.75,0,0,1-4.34-6.24l-.78-3.63.17-.08c.48.38.93.78,1.42,1.12.83.57,1.41.37,1.77-.57a7,7,0,0,0,.29-3.19,45.29,45.29,0,0,1,.6-11.91c.18-1,.39-1.07,1.28-.57a34.23,34.23,0,0,1,3.21,2.12c1.16.82,2,.64,2.58-.67.73-1.62,1.33-3.29,2-4.92a12.65,12.65,0,0,1,1-1.92c.48-.75.74-.73,1.06.1.67,1.73,1.28,3.49,2,5.23a25.75,25.75,0,0,0,2,4.27c1,1.59,1.8,1.74,3.23.59,1-.76,1.88-1.57,2.82-2.35a2.2,2.2,0,0,1,1.09-.65Z"/>
    <path class="cls-1"
          d="M50,6.62A20.36,20.36,0,0,0,46,5.4c-.5-.05-.88.07-.94.65-.23,2.39-.85,4.75-.37,7.18.07.31,0,.74.3.86s.62-.23.83-.5c1.4-1.71,2.78-3.43,4.16-5.16a3,3,0,0,0,.41-.66A.76.76,0,0,0,50,6.62ZM47.78,8.91c-.55.74-1.12,1.46-1.69,2.18L45.93,11c.12-1.18.23-2.37.34-3.55.06-.52.24-.84.85-.58s1.52,0,1.65.48S48.15,8.4,47.78,8.91Z"/>
    <path class="cls-1"
          d="M22,24.31c-1.14-2.65-3.06-4.78-4.72-7.09a.76.76,0,0,0-1.2-.19c-.48.38-.95.77-1.4,1.19-1.25,1.14-1.24,1.61.16,2.53,2.14,1.4,4.32,2.73,6.48,4.09a3,3,0,0,0,.63.29c.23.08.31-.05.3-.29S22.09,24.49,22,24.31ZM19,22,15.37,19.6a.34.34,0,0,1-.11-.2,9.92,9.92,0,0,1,1.16-.89c.31-.18.46.16.6.35.72.95,1.41,1.91,2.11,2.87C19.07,21.81,19,21.88,19,22Z"/>
    <path class="cls-1"
          d="M31.76,6.62c-.12-.85-.32-1-1.16-.76-.48.14-1,.28-1.42.45C28.24,6.64,28,7,28.24,8A7.93,7.93,0,0,0,30,11.61c.6.64.89.6,1.2-.25a14.37,14.37,0,0,0,.58-3.64A4.21,4.21,0,0,0,31.76,6.62ZM30.49,9.84c-.48-.78-.83-1.35-1.16-1.92s0-.66.44-.78.74-.26.84.35A9.36,9.36,0,0,1,30.49,9.84Z"/>
    <path class="cls-2"
          d="M55.11,27c.61-1.43,1.41-3.44,2.39-5.38.23-.45.46-.57.78-.09a1.48,1.48,0,0,0,.25.25c1.09,1,1.15,1.07.1,2.09C57.39,25.07,56,26.17,55.11,27Z"/>
    <path class="cls-3"
          d="M47.83,16.73c-.94.78-1.86,1.59-2.82,2.35-1.43,1.15-2.24,1-3.23-.59a25.75,25.75,0,0,1-2-4.27c-.67-1.74-1.28-3.5-2-5.23-.32-.83-.58-.85-1.06-.1a12.65,12.65,0,0,0-1,1.92c-.69,1.63-1.29,3.3-2,4.92-.58,1.31-1.42,1.49-2.58.67A34.23,34.23,0,0,0,28,14.28c-.89-.5-1.1-.44-1.28.57a45.29,45.29,0,0,0-.6,11.91A7,7,0,0,1,25.8,30c-.36.94-.94,1.14-1.77.57-.49-.34-.94-.74-1.42-1.12l-.17.08.78,3.63a8.75,8.75,0,0,0,4.34,6.24,13,13,0,0,1,1.13.82A10.18,10.18,0,0,0,34.07,42q3.45.12,6.89.3A4.5,4.5,0,0,0,44.63,41c.9-.91,1.85-1.77,2.77-2.67a4.48,4.48,0,0,0,1.29-2.62,16.8,16.8,0,0,0,.19-2.35c0-5,0-10,0-15V16.08A2.2,2.2,0,0,0,47.83,16.73ZM44.72,32c-.59,2.13-1.19,4.26-2,6.32s-1.75,2.52-3.81,2a47.09,47.09,0,0,1-7.88-2.81,4.49,4.49,0,0,1-2.69-3.11c-.31-1.3-.78-2.56-1.11-3.85s.11-1.86,1.41-2.07a8.57,8.57,0,0,1,4.28.53c.89.31,1,.28,1.08-.69a9.2,9.2,0,0,0,.12-1c0-.79,0-1.58,0-2.36h.12c0-.93,0-1.86,0-2.79,0-.37,0-.8.51-.93s.78.17,1,.5a45.1,45.1,0,0,1,4.5,7c.62,1.3.62,1.3,1.92.66.55-.27,1.09-.55,1.65-.8,1-.45,1.41-.17,1.36.95A11.75,11.75,0,0,1,44.72,32Z"/>
    <path class="cls-2"
          d="M45.93,11c.12-1.18.23-2.37.34-3.55.06-.52.24-.84.85-.58s1.52,0,1.65.48-.62,1-1,1.53c-.55.74-1.12,1.46-1.69,2.18Z"/>
    <path class="cls-2"
          d="M19,22,15.37,19.6a.34.34,0,0,1-.11-.2,9.92,9.92,0,0,1,1.16-.89c.31-.18.46.16.6.35.72.95,1.41,1.91,2.11,2.87Z"/>
    <path class="cls-2"
          d="M30.49,9.84c-.48-.78-.83-1.35-1.16-1.92s0-.66.44-.78.74-.26.84.35A9.36,9.36,0,0,1,30.49,9.84Z"/>
    <path class="cls-4"
          d="M43.88,28.51c-.56.25-1.1.53-1.65.8-1.3.64-1.3.64-1.92-.66a45.1,45.1,0,0,0-4.5-6.95c-.24-.33-.55-.64-1-.5s-.5.56-.51.93c0,.93,0,1.86,0,2.79h-.12c0,.78,0,1.57,0,2.36a9.2,9.2,0,0,1-.12,1c-.13,1-.19,1-1.08.69a8.57,8.57,0,0,0-4.28-.53c-1.3.21-1.73.8-1.41,2.07s.8,2.55,1.11,3.85a4.49,4.49,0,0,0,2.69,3.11,47.09,47.09,0,0,0,7.88,2.81c2.06.54,3,0,3.81-2s1.39-4.19,2-6.32a11.75,11.75,0,0,0,.52-2.56C45.29,28.34,44.88,28.06,43.88,28.51Zm-.07,2.9a49,49,0,0,0-2.29,6.31A1.4,1.4,0,0,1,40,38.91c-.65-.15-1.31-.28-1.94-.48-2.14-.66-4.26-1.36-6.35-2.18a2.59,2.59,0,0,1-2-2.58A16.34,16.34,0,0,0,29.35,31c-.11-.73.2-1.05.9-1a15.42,15.42,0,0,1,3.9.88c1.3.4,1.58.19,1.39-1.16a18.94,18.94,0,0,1-.22-4.87c0-.29,0-.75.32-.83s.49.35.64.61c.94,1.64,1.84,3.3,2.8,4.93s1.86,1.94,3.68,1c.37-.19.79-.64,1.17-.31S44,31,43.81,31.41Z"/>
    <path class="cls-5"
          d="M40,38.91c-.65-.15-1.31-.28-1.94-.48-2.14-.66-4.26-1.36-6.35-2.18a2.59,2.59,0,0,1-2-2.58A16.34,16.34,0,0,0,29.35,31c-.11-.73.2-1.05.9-1a15.42,15.42,0,0,1,3.9.88c1.3.4,1.58.19,1.39-1.16a18.94,18.94,0,0,1-.22-4.87c0-.29,0-.75.32-.83s.49.35.64.61c.94,1.64,1.84,3.3,2.8,4.93s1.86,1.94,3.68,1c.37-.19.79-.64,1.17-.31s0,.82-.12,1.21a49,49,0,0,0-2.29,6.31A1.4,1.4,0,0,1,40,38.91Z"/>
</svg>