<svg id="Vrstva_1" data-name="Vrstva 1" xmlns="http://www.w3.org/2000/svg" viewBox="0 0 75 50">
    <defs>
        <style>
            :root.dark{
            --cls-1-color:#c3e4f6;
            --cls-2-color:#c3e4f680;
            --cls-3-color:#c3e4f6;
            --cls-4-color:#c0e6b200;
            }
            :root{
            --cls-1-color:#070707;
            --cls-2-color:#c3e4f6;
            --cls-3-color:#0d0f10;
            --cls-4-color:#f7f7f7;
            }
            .cls-1{fill:var(--cls-1-color);}
            .cls-2{fill:var(--cls-2-color);}
            .cls-3{fill:var(--cls-3-color);}
            .cls-4{fill:var(--cls-4-color);}
        </style>
    </defs>
    <path class="cls-1"
          d="M47.34,20.91c-.57,0-1.15.07-1.72.12-2.17.18-2.4,0-3.31-2a28.35,28.35,0,0,0-2.41-4.76c-.77-1.06-1.41-1.05-2.09.06-.9,1.47-1.72,3-2.56,4.47a24.41,24.41,0,0,1-1.79,2.93c-.54.71-1.13,1-1.94.3a3.77,3.77,0,0,0-2.16-.76c-.85-.08-1.38.23-1.45,1.14-.06.73-.13,1.47-.2,2.21A32.1,32.1,0,0,0,28,28.2a30,30,0,0,1,.23,3.53c-.23,3.51,1.4,6.06,4,8.16.32.25.62.52.94.77a1.75,1.75,0,0,0,1,.39c3.55.06,7-.21,9.42-3.33a2.45,2.45,0,0,1,.36-.36,7.79,7.79,0,0,0,2.7-5.86c.11-2.51.16-5.06,1.44-7.37a5.93,5.93,0,0,0,.48-1.85C48.76,21.25,48.37,20.85,47.34,20.91Zm-1,3.16c-.24.77-.55,1.52-.82,2.28A9.3,9.3,0,0,0,44.82,30a20.31,20.31,0,0,1-.28,3c-.26,2.75-2.33,3.86-4.45,4.86A34.68,34.68,0,0,1,36.74,39a2.06,2.06,0,0,1-1.67-.08c-2.15-1.19-4.37-2.32-4.89-5.12a17.24,17.24,0,0,1-.4-5.11,14.28,14.28,0,0,0-.15-4.23c-.18-1-.05-1.11,1-.75l.47.19a3.35,3.35,0,0,0,4.78-2c.66-1.62,1.26-3.27,1.92-4.89a4.21,4.21,0,0,1,1-1.44c.68,1.49,1.37,2.87,2,4.29a3.94,3.94,0,0,0,4.52,2.7C46.51,22.46,46.7,22.77,46.3,24.07Z"/>
    <path class="cls-2"
          d="M45.21,22.61a3.94,3.94,0,0,1-4.52-2.7c-.59-1.42-1.28-2.8-2-4.29a4.21,4.21,0,0,0-1,1.44c-.66,1.62-1.26,3.27-1.92,4.89a3.35,3.35,0,0,1-4.78,2l-.47-.19c-1-.36-1.15-.28-1,.75a14.28,14.28,0,0,1,.15,4.23,17.24,17.24,0,0,0,.4,5.11c.52,2.8,2.74,3.93,4.89,5.12a2.06,2.06,0,0,0,1.67.08,34.68,34.68,0,0,0,3.35-1.13c2.12-1,4.19-2.11,4.45-4.86a20.31,20.31,0,0,0,.28-3,9.3,9.3,0,0,1,.66-3.65c.27-.76.58-1.51.82-2.28C46.7,22.77,46.51,22.46,45.21,22.61Zm-6,11.53c0,.48-.36.62-.79.53a19.28,19.28,0,0,1-3.17-1,.74.74,0,0,1-.37-1.28c1.26-1.62,2.55-3.21,3.84-4.8.12-.16.29-.33.51-.27s.29.34.31.57c0,.77.1,1.54.16,2.31C39.72,31.57,39.22,32.83,39.17,34.14Z"/>
    <path class="cls-3"
          d="M39.5,27.94c0-.23,0-.5-.31-.57s-.39.11-.51.27c-1.29,1.59-2.58,3.18-3.84,4.8a.74.74,0,0,0,.37,1.28,19.28,19.28,0,0,0,3.17,1c.43.09.77-.05.79-.53,0-1.31.55-2.57.49-3.89C39.6,29.48,39.55,28.71,39.5,27.94Zm-1.24,5c-.06.59-.39.66-.92.54-1.65-.39-1.65-.37-.59-1.72.54-.68,1.06-1.37,1.59-2.05l.2.06C38.45,30.83,38.36,31.89,38.26,32.94Z"/>
    <path class="cls-4"
          d="M38.54,29.77c-.09,1.06-.18,2.12-.28,3.17-.06.59-.39.66-.92.54-1.65-.39-1.65-.37-.59-1.72.54-.68,1.06-1.37,1.59-2.05Z"/>
</svg>