<svg width="257" height="245" viewBox="0 0 257 245" fill="none" xmlns="http://www.w3.org/2000/svg">
<path d="M123.156 3.47216C125.383 -0.891348 131.617 -0.891349 133.844 3.47216L169.53 73.3986C170.402 75.1069 172.038 76.2955 173.932 76.5967L251.463 88.9274C256.301 89.6969 258.228 95.6266 254.766 99.0929L199.29 154.641C197.935 155.998 197.31 157.921 197.609 159.815L209.84 237.362C210.603 242.202 205.559 245.866 201.193 243.645L131.221 208.049C129.511 207.179 127.489 207.179 125.779 208.049L55.8074 243.645C51.441 245.866 46.3969 242.202 47.1601 237.362L59.3915 159.815C59.6903 157.921 59.0654 155.998 57.7101 154.641L2.23364 99.0929C-1.22817 95.6266 0.698524 89.6969 5.5366 88.9274L83.0681 76.5967C84.9622 76.2955 86.5981 75.1069 87.4699 73.3986L123.156 3.47216Z" fill="#D9D9D9"/>
</svg>
