<svg id="Vrstva_1" data-name="Vrstva 1" xmlns="http://www.w3.org/2000/svg" viewBox="0 0 50 50">
    <defs>
        <style>
            :root.dark{
            --cls-1-color:#D8D8D8;
            --cls-2-color:#D8D8D880;
            --cls-3-color:#D8D8D880;
            --cls-4-color:#D8D8D880;
            --cls-5-color:#D8D8D880;
            }
            :root{
            --cls-1-color:#070707;
            --cls-2-color:#929191;
            --cls-3-color:#b5b5b3;
            --cls-4-color:#c6c6c4;
            --cls-5-color:#fcfcfc;
            }
            .cls-1{fill:var(--cls-1-color);}
            .cls-2{fill:var(--cls-2-color);}
            .cls-3{fill:var(--cls-3-color);}
            .cls-4{fill:var(--cls-4-color);}
            .cls-5{fill:var(--cls-5-color);}
        </style>
    </defs>
    <path class="cls-1"
          d="M34,14.51a8.8,8.8,0,0,0-3.67-6.07A9,9,0,0,0,26.67,7,7.92,7.92,0,0,0,20.2,8.16a8.3,8.3,0,0,0-3.95,7.36,8.34,8.34,0,0,0,2.37,6,10.39,10.39,0,0,0,2.56,1.78c.14.07.33.08.25.37-.64,2.4-1.36,4.78-1.89,7.2-.18.84-.36,1.67-.52,2.51-.09.46.14.88.52.88s.64-.2.72-.65c.23-1.33.51-2.64.77-4,0-.11,0-.26.22-.32a2.42,2.42,0,0,1,0,1c-.1,2.3.27,4.58.38,6.88.1,2.1,0,4.2.18,6.3,0,.15,0,.34-.18.35a9.43,9.43,0,0,0-.9.29c-.2.27-.68.49-.46.85s.66.18,1,.11l1.38-.23.28-.27c0-.25.05-.5.07-.74,0-1.56.05-3.12.06-4.68,0-.89,0-1.79,0-2.68,0-.33.07-.41.36-.29a5.86,5.86,0,0,0,4.45-.16l.29-.12v1.44c0,2-.05,4.09-.19,6.14a2.1,2.1,0,0,1-.06.24l0,.72a.63.63,0,0,0,.59.53c.67.08,1.34.38,2,0l.06-.4-.46-.46a5.69,5.69,0,0,0-.68-.18c-.27,0-.33-.15-.31-.4.2-2.62.28-5.24.38-7.86A47.78,47.78,0,0,0,29.3,28c0-.14-.12-.4.08-.43s.18.23.22.37a28,28,0,0,1,1.09,5.44.49.49,0,0,0,.5.51c.33,0,.6-.1.64-.49a6.27,6.27,0,0,0,0-.75A12.37,12.37,0,0,0,31.41,30a32.05,32.05,0,0,0-1.81-5.81c-.3-.62-.29-.61.32-.92A6.29,6.29,0,0,0,32.56,21,9.57,9.57,0,0,0,34,14.51Zm-5.68,19.1a1.31,1.31,0,0,1-.07.55c0,.66-.07.87-.69,1a8.84,8.84,0,0,1-2.57.25,6.22,6.22,0,0,1-1.75-.53c-.31-.14-.23-.44-.21-.7a2.91,2.91,0,0,1-.15-1.43c-.09-2.69,0-5.38.09-8.07,0-.15,0-.3,0-.45S23,24,23.2,24a8.58,8.58,0,0,0,4.27,0c.26-.06.34,0,.34.27l0,.75A58,58,0,0,1,28.27,33.61Zm4.32-17.15a6.4,6.4,0,0,1-1.72,4.14,6.46,6.46,0,0,1-2.52,1.52,9.58,9.58,0,0,1-1,.29,4.1,4.1,0,0,1-2.31.28,8.24,8.24,0,0,1-4.86-1.81A6,6,0,0,1,18,16.57a7,7,0,0,1-.05-2.65A6.72,6.72,0,0,1,22,8.5a7.08,7.08,0,0,1,7,.77,9.22,9.22,0,0,1,1.88,1.58A7.63,7.63,0,0,1,32.59,16.46Z"/>
    <path class="cls-2"
          d="M31.32,44.89c-.28-.1-.52.06-.78.11-.66.4-1.33.1-2,0a.63.63,0,0,1-.59-.53c-.29.15-.58,0-.88,0,0-.11,0-.25-.13-.23-.44.11-.88-.35-1.3,0-.16-.18-.31,0-.47,0s-.23.15-.23.31a.75.75,0,0,0-.47-.27c-.14,0-.27.08-.42.28a.44.44,0,0,1-.63.08.61.61,0,0,0-.44-.07l-.28.27c.12.41.33.46.62.1.08.23-.15.37-.07.56h.16c0-.09,0-.22.13-.22s.17.12.21.23h.47c0-.11,0-.29.14-.28s.05.19.09.29l1.55,0a33.73,33.73,0,0,0,5.41-.22c0-.17,0-.34,0-.51Zm-5.64-.28s0,0,0,0h0Z"/>
    <path class="cls-3"
          d="M23.25,45.55l-3.55-.06v-.35c.29-.14.18-.22,0-.29a4.36,4.36,0,0,0-1.14-.05l-.55,0a.21.21,0,0,1,0-.27c.69-.11,1.37-.22,2.05-.31.24,0,.49,0,.74,0-.2.27-.68.49-.46.85s.66.18,1,.11l1.38-.23c.12.41.33.46.62.1C23.4,45.22,23.17,45.36,23.25,45.55Z"/>
    <path class="cls-3"
          d="M34.23,45.29l-2.82.11c0-.17,0-.34,0-.51.2,0,.47.15.58-.17l1.92.1C33.94,45,34.34,45,34.23,45.29Z"/>
    <path class="cls-4" d="M34.23,45.29c.11-.29-.29-.25-.3-.47a10.15,10.15,0,0,1,3,.2A18.31,18.31,0,0,1,34.23,45.29Z"/>
    <path class="cls-4"
          d="M32.22,44.2c.08.31-.29.29-.21.52-.11.32-.38.13-.58.17h-.11c-.06-.15.12-.3,0-.49-.15.43-.47.13-.7.2l-.46-.46C30.85,44,31.53,44.29,32.22,44.2Z"/>
    <path class="cls-4" d="M18,44.78H16a5.93,5.93,0,0,1,2-.27A.21.21,0,0,0,18,44.78Z"/>
    <path class="cls-4" d="M19.7,45.14v.35a3.63,3.63,0,0,1-1.35-.1A3,3,0,0,1,19.7,45.14Z"/>
    <path class="cls-3" d="M23.75,45.57a.44.44,0,0,1-.34,0c0-.09,0-.22.13-.22S23.71,45.46,23.75,45.57Z"/>
    <path class="cls-3" d="M24.45,45.59h-.23c0-.11,0-.29.14-.28S24.41,45.49,24.45,45.59Z"/>
    <path class="cls-5"
          d="M30.79,10.85a9.22,9.22,0,0,0-1.88-1.58A7.08,7.08,0,0,0,22,8.5a6.72,6.72,0,0,0-4.06,5.42c.46,0,.45.38.46.7a9.51,9.51,0,0,0,.82,3.61A6.42,6.42,0,0,0,23.9,22a11.05,11.05,0,0,0,2.69.31,1.59,1.59,0,0,1,.75.07,9.58,9.58,0,0,0,1-.29,6.46,6.46,0,0,0,2.52-1.52,6.4,6.4,0,0,0,1.72-4.14A7.63,7.63,0,0,0,30.79,10.85Zm-1.88,1a.92.92,0,0,1,.94.91.81.81,0,0,1-.93.81A1,1,0,0,1,28,12.6.91.91,0,0,1,28.91,11.8Zm-7.17-.08a.82.82,0,0,1,.79.8,1,1,0,0,1-.94.86.8.8,0,0,1-.82-.72A1,1,0,0,1,21.74,11.72ZM31,14.63c-1.63,1.36-3.55,1.79-6.24,1.77a8.65,8.65,0,0,1-5.13-1.66c-.24-.19-.55-.36-.28-.72s.59-.24.92.06a4.93,4.93,0,0,0,2.44,1.09,10.73,10.73,0,0,0,5.54,0,5,5,0,0,0,2.17-1.2.47.47,0,0,1,.8,0C31.47,14.29,31.22,14.44,31,14.63Z"/>
    <path class="cls-5"
          d="M27.84,25.07a58,58,0,0,1,.43,8.54,1.31,1.31,0,0,1-.07.55,7.52,7.52,0,0,1-2.53.57A4.39,4.39,0,0,1,23,34.16a2.91,2.91,0,0,1-.15-1.43c-.09-2.69,0-5.38.09-8.07a6,6,0,0,0,3.09.63C26.64,25.28,27.23,25.11,27.84,25.07Z"/>
    <path class="cls-4"
          d="M17.9,13.92c.46,0,.45.38.46.7a9.51,9.51,0,0,0,.82,3.61A6.42,6.42,0,0,0,23.9,22a11.05,11.05,0,0,0,2.69.31,1.59,1.59,0,0,1,.75.07,4.1,4.1,0,0,1-2.31.28,8.24,8.24,0,0,1-4.86-1.81A6,6,0,0,1,18,16.57,7,7,0,0,1,17.9,13.92Z"/>
    <path class="cls-3"
          d="M27.84,25.07c-.61,0-1.2.21-1.83.22a6,6,0,0,1-3.09-.63c0-.15,0-.3,0-.45S23,24,23.2,24a8.58,8.58,0,0,0,4.27,0c.26-.06.34,0,.34.27Z"/>
    <path class="cls-4"
          d="M23,34.16a4.39,4.39,0,0,0,2.69.57,7.52,7.52,0,0,0,2.53-.57c0,.66-.07.87-.69,1a8.84,8.84,0,0,1-2.57.25,6.22,6.22,0,0,1-1.75-.53C22.88,34.72,23,34.42,23,34.16Z"/>
    <path class="cls-3"
          d="M27.92,43.77c-1.62.07-3.25-.09-4.87.11,0,.24-.05.49-.07.74a.61.61,0,0,1,.44.07.44.44,0,0,0,.63-.08c.15-.2.28-.28.42-.28a.75.75,0,0,1,.47.27c0-.16,0-.32.23-.31s.31-.18.47,0c.42-.38.86.08,1.3,0,.09,0,.12.12.13.23.3,0,.59.15.88,0Zm-3.86.46c-.14,0-.17-.11-.26-.21.17,0,.29,0,.32.11S24.08,44.23,24.06,44.23Zm3,.26h0Z"/>
    <path class="cls-3" d="M30.6,44.6c.23-.07.55.23.7-.2.14.19,0,.34,0,.49-.28-.1-.52.06-.78.11Z"/>
    <path class="cls-3" d="M25.69,44.57h0l-.05,0Z"/>
    <path class="cls-3" d="M27.06,44.49l0,0,0,0Z"/>
    <path class="cls-3" d="M24.94,44.6l0,0,0,0Z"/>
    <path class="cls-1"
          d="M24.76,16.4a8.65,8.65,0,0,1-5.13-1.66c-.24-.19-.55-.36-.28-.72s.59-.24.92.06a4.93,4.93,0,0,0,2.44,1.09,10.73,10.73,0,0,0,5.54,0,5,5,0,0,0,2.17-1.2.47.47,0,0,1,.8,0c.25.31,0,.46-.22.65C29.37,16,27.45,16.42,24.76,16.4Z"/>
    <path class="cls-1" d="M28.92,13.52A1,1,0,0,1,28,12.6a.94.94,0,0,1,1.87.11A.81.81,0,0,1,28.92,13.52Z"/>
    <path class="cls-1" d="M20.77,12.66a1,1,0,0,1,1-.94.82.82,0,0,1,.79.8,1,1,0,0,1-.94.86A.8.8,0,0,1,20.77,12.66Z"/>
    <path class="cls-2" d="M23.8,44c.17,0,.29,0,.32.11s0,.1-.06.1S23.89,44.12,23.8,44Z"/>
</svg>