<svg id="Vrstva_1" data-name="Vrstva 1" xmlns="http://www.w3.org/2000/svg" viewBox="0 0 50 50">
    <defs>
        <style>
            :root.dark{
            --cls-1-color:#D8D8D8;
            --cls-2-color:#D8D8D8;
            }
            :root{
            --cls-1-color:#5b5b5b;
            --cls-2-color:#5b5b5b;
            }
            .cls-1{fill:var(--cls-1-color);}
            .cls-2{fill:var(--cls-2-color);}
        </style>
    </defs>
    <path class="cls-1"
          d="M27.18,6.67a12.72,12.72,0,0,0-2.3.23h0A35.21,35.21,0,0,0,15.51,10C9.13,13.53,4,19.63,6.77,28.56c2.19,7,6.49,12,13.81,13.92a17.69,17.69,0,0,0,9.08-.42c7-1.8,12.26-5.77,14.56-13,.26-.81.26-1.67.48-2.5a11,11,0,0,0,.3-2.74v-.39c0-.46-.2-.46-.24-.7C43.51,16,40.06,10.79,33.54,8a18,18,0,0,0-5.1-1.11M35,37.69a21.35,21.35,0,0,1-6.37,2.43c-6.73,1.17-12.51-.75-17-5.87s-4.18-14.1.26-19.15a13.23,13.23,0,0,1,5.82-3.69,54,54,0,0,1,6.77-2.08,15.09,15.09,0,0,1,9.08,1.22c5.64,2.44,8.8,7.44,8.68,14.5A13.12,13.12,0,0,1,35,37.69Z"/>
    <path class="cls-2"
          d="M33.93,33.1c-2.05-.69-4.07-1.46-6.09-2.26a19,19,0,0,0-4.45-1.27c-1.41-.18-2.17-1.11-2.18-2.76a9.55,9.55,0,0,1,.25-1.15q1.38-4.85,2.8-9.7a4,4,0,0,1,1.09-1.88c.94-.85,1.43-.89,2.36,0a3.23,3.23,0,0,1,.95,3.28c-.58,2.26-1.1,4.52-1.72,6.75A1.34,1.34,0,0,0,28,26c2.09.69,4.16,1.45,6.26,2.14A3,3,0,0,1,36.49,31C36.69,32.68,35.6,33.66,33.93,33.1Z"/>
</svg>