<svg id="Vrstva_1" data-name="Vrstva 1" xmlns="http://www.w3.org/2000/svg" viewBox="0 0 50 50"><defs><style>.cls-1{fill:#040404;}.cls-2{fill:#f7bed1;}.cls-3{fill:#2b2b2b;}.cls-4{fill:#fcfcfc;}.cls-5{fill:#898989;}</style></defs><path class="cls-1" d="M40.56,26.56a1.29,1.29,0,0,1-.75-.07H38.43a10.63,10.63,0,0,1-2.76,0H34.53a6.42,6.42,0,0,1-1.58.07,3.58,3.58,0,0,0-3.58,3.13c0,.76-.05,1.53-.07,2.29,0,1.31,0,2.63,0,3.94,0,.5,0,1,0,1.49,0,.3,0,.6,0,.9a3.61,3.61,0,0,0,3.33,3.88h9A3.89,3.89,0,0,0,45,39.43v-10A3.93,3.93,0,0,0,40.56,26.56Zm3.21,11.91A2.32,2.32,0,0,1,41.26,41H33a2.35,2.35,0,0,1-2.5-2.38c0-2.79,0-5.58,0-8.37A2.37,2.37,0,0,1,33,27.76c2.77-.06,5.53-.06,8.3,0a2.38,2.38,0,0,1,2.48,2.65Z"/><path class="cls-2" d="M41.64,42.32h-9a.24.24,0,0,1,0-.12h9A.14.14,0,0,1,41.64,42.32Z"/><path class="cls-3" d="M39.21,13a6.47,6.47,0,0,0-6.62-5.5c-1.61.09-3.24,0-4.86,0a69,69,0,0,0-11.23.2c-2,.3-3.76,1-4.65,3.05a5.12,5.12,0,0,1-.39.56.58.58,0,0,1-.68.28,4.49,4.49,0,0,0-4,1.83,2.08,2.08,0,0,0-.24,2.23,4,4,0,0,1,.28,2.37c-.13.65-.25,1.29-.36,1.94a1.57,1.57,0,0,0,.66,1.79c.13.09.39.18.23.4-.63.82-.59,1.87-1,2.76-.29.64-.18,1,.49,1.32.51.21.86.67.4,1.13-1.24,1.25-1,2.61-.46,4a3.19,3.19,0,0,0,3.61,2.36,1.33,1.33,0,0,1,1.58.81,3.76,3.76,0,0,0,.73,1,6.82,6.82,0,0,0,5.32,2c2.58,0,5.16-.1,7.75-.1a21.19,21.19,0,0,1,3.56.11c0-.5,0-1,0-1.49a79.58,79.58,0,0,0-10.47.32A6.34,6.34,0,0,1,13.15,34c-.65-.82-.66-1,0-1.83a3.38,3.38,0,0,0,.51-3.5,2.48,2.48,0,0,1,.09-2.11,3.43,3.43,0,0,0-.08-3.22,1.21,1.21,0,0,1,.13-1.52A2.75,2.75,0,0,0,14,18.49a2,2,0,0,1-.14-2,3.17,3.17,0,0,0-.74-3.69c-.7-.78-.71-1.16,0-1.86A7.35,7.35,0,0,1,18.4,8.82c4,.07,8-.15,12-.15a20.17,20.17,0,0,1,3.11.11,4.81,4.81,0,0,1,3.73,2.9,13.86,13.86,0,0,1,1.12,5.54c.16,3.09,0,6.18.07,9.27h1.38A52,52,0,0,0,39.21,13Zm-28.88,0c.26.06.31.25.34.44s0,.66.05.94a8.14,8.14,0,0,1,0,.88c-.08.48-.32.75-.84.56a1.28,1.28,0,0,0-.82,0c-.67.22-.93-.13-1-.74A2,2,0,0,1,10.33,12.93Zm0,4.61c-.38.25-.61,0-1.07-.23.53-.1.82-.47,1.16-.09C10.49,17.32,10.43,17.45,10.31,17.54ZM9,18.89c.22,0,.45,0,.68,0a.62.62,0,0,1,.67.73c0,.44.06,1-.63,1a.91.91,0,0,0-.44.07c-.64.38-.89.14-1.12-.51C7.76,19,7.81,18.87,9,18.89Zm-.16,4.05a2,2,0,0,1,1.71,1.84c-.06.24.17.62-.07.75a7.57,7.57,0,0,1-1.55.57c-.24.06-1.06-1.2-1.08-1.62C7.84,23.87,8.42,23,8.85,22.94Zm1.49,9.41A2,2,0,0,1,8,30.91,13.22,13.22,0,0,1,8,29c0-.45.23-.64.69-.62s.93.24,1.38.39a1,1,0,0,1,.67.93,7.9,7.9,0,0,0,.17,1.87C11,32,10.74,32.24,10.34,32.35ZM12,31a4.58,4.58,0,0,1-.12-2.25c0-.15,0-.32.2-.36s.32.12.39.28A2.27,2.27,0,0,1,12,31Zm-.13-7.75a2.47,2.47,0,0,1,.24,3.13A11.47,11.47,0,0,1,11.91,23.29Zm.92-2.51c-.16.24-.33.49-.66.41s-.17-.41-.2-.63a3.38,3.38,0,0,1,0-.45h0a8,8,0,0,1,0-1,.45.45,0,0,1,.46-.41c.24,0,.36.12.44.33A1.86,1.86,0,0,1,12.83,20.78Zm-.07-4.69c-.1.22-.18.41-.48.38s-.37-.26-.42-.48a4,4,0,0,1,.33-2.27A1.74,1.74,0,0,1,12.76,16.09Z"/><path class="cls-4" d="M38.36,17.22a13.86,13.86,0,0,0-1.12-5.54,4.81,4.81,0,0,0-3.73-2.9,20.17,20.17,0,0,0-3.11-.11c-4,0-8,.22-12,.15A7.35,7.35,0,0,0,13.19,11c-.75.7-.74,1.08,0,1.86a3.17,3.17,0,0,1,.74,3.69,2,2,0,0,0,.14,2,2.75,2.75,0,0,1-.23,3.33,1.21,1.21,0,0,0-.13,1.52,3.43,3.43,0,0,1,.08,3.22,2.48,2.48,0,0,0-.09,2.11,3.38,3.38,0,0,1-.51,3.5c-.66.81-.65,1,0,1.83a6.34,6.34,0,0,0,5.69,2.25,79.58,79.58,0,0,1,10.47-.32c0-1.31,0-2.63,0-3.94A4.2,4.2,0,0,1,28,31.05a.75.75,0,0,1-.23-.77A15.46,15.46,0,0,0,27.94,27c0-.15,0-.3,0-.45.12-2.26.71-2.8,2.95-2.73.59,0,1.17,0,1.75,0,2.14,0,2.82.62,3,2.72a10.63,10.63,0,0,0,2.76,0C38.4,23.4,38.52,20.31,38.36,17.22ZM16.15,16.16a1.56,1.56,0,0,1,1.27-1.5,4.31,4.31,0,0,1,1.12-.19c1.87,0,3.74,0,5.62,0a3.38,3.38,0,0,1,1.25.27,1.43,1.43,0,0,1,1,1.63,12.17,12.17,0,0,0-.1,2.56c.08,1.12-.35,1.59-1.48,1.63s-2,0-3.21,0a23.53,23.53,0,0,1-3.47-.13c-1.59-.31-2-.84-2.05-2.46C16.06,17.36,16.11,16.76,16.15,16.16ZM25,30.44c-1.12,0-2.23,0-3.34,0v0c-1,0-1.93,0-2.89,0A3.58,3.58,0,0,1,17,30a1.42,1.42,0,0,1-.76-1.31c0-.78,0-1.57,0-2.35a1.46,1.46,0,0,1,1-1.58A4.83,4.83,0,0,1,19,24.42a34.87,34.87,0,0,1,5.31.07c1.76.25,2.15.74,2.06,2.47,0,.66,0,1.32,0,2C26.4,30,26,30.39,25,30.44Zm9-9.31c-1.52,0-3-.05-4.55-.1-.84,0-1.16-.62-1.32-1.34A10.93,10.93,0,0,1,28,16.51c0-.53,0-1.06,0-1.59a2.23,2.23,0,0,1,2.24-2.26c1.13-.06,2.28-.05,3.42,0a1.88,1.88,0,0,1,1.93,1.68,17.78,17.78,0,0,1,.15,2.73c0,.65,0,1.31.08,2A1.77,1.77,0,0,1,34,21.13Z"/><path class="cls-2" d="M41.29,27.75c-2.77-.05-5.53-.05-8.3,0a2.37,2.37,0,0,0-2.45,2.46c0,2.79,0,5.58,0,8.37A2.35,2.35,0,0,0,33,41h8.22a2.32,2.32,0,0,0,2.51-2.5V30.4A2.38,2.38,0,0,0,41.29,27.75ZM40,35.19H37.13c-.91,0-1.82,0-2.73,0-.62,0-1-.24-1-.88s.38-.83,1-.83h5.55c.61,0,1,.24,1,.89S40.52,35.2,40,35.19Z"/><path class="cls-3" d="M29.3,32A4.2,4.2,0,0,1,28,31.05a.75.75,0,0,1-.23-.77A15.46,15.46,0,0,0,27.94,27c0-.15,0-.3,0-.45.12-2.26.71-2.8,2.95-2.73.59,0,1.17,0,1.75,0,2.14,0,2.82.62,3,2.72H34.53A1.51,1.51,0,0,0,32.94,25c-.75,0-1.51,0-2.26,0a1.56,1.56,0,0,0-1.2.56,7.35,7.35,0,0,0-.11,4.11Z"/><path class="cls-4" d="M29.37,29.7a7.35,7.35,0,0,1,.11-4.11,1.56,1.56,0,0,1,1.2-.56c.75,0,1.51-.06,2.26,0a1.51,1.51,0,0,1,1.59,1.49,6.42,6.42,0,0,1-1.58.07A3.58,3.58,0,0,0,29.37,29.7Z"/><path class="cls-4" d="M12.19,13.72a1.74,1.74,0,0,1,.57,2.37c-.1.22-.18.41-.48.38s-.37-.26-.42-.48A4,4,0,0,1,12.19,13.72Z"/><path class="cls-4" d="M12,20.11a8,8,0,0,1,0-1,.45.45,0,0,1,.46-.41c.24,0,.36.12.44.33a1.86,1.86,0,0,1-.06,1.73c-.16.24-.33.49-.66.41s-.17-.41-.2-.63a3.38,3.38,0,0,1,0-.45Z"/><path class="cls-4" d="M12,31a4.58,4.58,0,0,1-.12-2.25c0-.15,0-.32.2-.36s.32.12.39.28A2.27,2.27,0,0,1,12,31Z"/><path class="cls-4" d="M12.15,26.42a11.47,11.47,0,0,1-.24-3.13A2.47,2.47,0,0,1,12.15,26.42Z"/><path class="cls-5" d="M21.58,20.56a23.53,23.53,0,0,1-3.47-.13c-1.59-.31-2-.84-2.05-2.46,0-.61.05-1.21.09-1.81a1.56,1.56,0,0,1,1.27-1.5,4.31,4.31,0,0,1,1.12-.19c1.87,0,3.74,0,5.62,0a3.38,3.38,0,0,1,1.25.27,1.43,1.43,0,0,1,1,1.63,12.17,12.17,0,0,0-.1,2.56c.08,1.12-.35,1.59-1.48,1.63S22.81,20.56,21.58,20.56Z"/><path class="cls-5" d="M21.67,30.49c-1,0-1.93,0-2.89,0A3.58,3.58,0,0,1,17,30a1.42,1.42,0,0,1-.76-1.31c0-.78,0-1.57,0-2.35a1.46,1.46,0,0,1,1-1.58A4.83,4.83,0,0,1,19,24.42a34.87,34.87,0,0,1,5.31.07c1.76.25,2.15.74,2.06,2.47,0,.66,0,1.32,0,2,0,1-.4,1.46-1.41,1.51s-2.23,0-3.34,0Z"/><path class="cls-3" d="M35.81,19c-.05-.66-.05-1.32-.08-2a17.78,17.78,0,0,0-.15-2.73,1.88,1.88,0,0,0-1.93-1.68c-1.14-.05-2.29-.06-3.42,0A2.23,2.23,0,0,0,28,14.92c0,.53,0,1.06,0,1.59a10.93,10.93,0,0,0,.11,3.18c.16.72.48,1.31,1.32,1.34,1.52,0,3,.11,4.55.1A1.77,1.77,0,0,0,35.81,19Zm-1.34-2.83V17h0c0,.58,0,1.17,0,1.74-.05.93-.31,1.16-1.21,1.17s-1.57,0-2.35,0a1.65,1.65,0,0,1-1.77-1.67,16.9,16.9,0,0,1,.05-3.1,1.36,1.36,0,0,1,1.44-1.28,23.17,23.17,0,0,1,2.5,0,1.35,1.35,0,0,1,1.37,1.42C34.49,15.61,34.47,15.91,34.47,16.21Z"/><path class="cls-1" d="M37.13,35.19c-.91,0-1.82,0-2.73,0-.62,0-1-.24-1-.88s.38-.83,1-.83h5.55c.61,0,1,.24,1,.89s-.38.82-.95.81Z"/><path class="cls-4" d="M34.45,17c0,.58,0,1.17,0,1.74-.05.93-.31,1.16-1.21,1.17s-1.57,0-2.35,0a1.65,1.65,0,0,1-1.77-1.67,16.9,16.9,0,0,1,.05-3.1,1.36,1.36,0,0,1,1.44-1.28,23.17,23.17,0,0,1,2.5,0,1.35,1.35,0,0,1,1.37,1.42c0,.31,0,.61,0,.91V17Z"/></svg>