<svg id="Vrstva_1" data-name="Vrstva 1" xmlns="http://www.w3.org/2000/svg" viewBox="0 0 50 50">
    <defs>
        <style>
            :root.dark{
            --cls-1-color:#D8D8D8;
            }
            :root{
            --cls-1-color:#5b5b5b;
            }
            .cls-1{fill:var(--cls-1-color);}
        </style>
    </defs>
    <path class="cls-1"
          d="M41.88,14.21c-5,4.16-8.44,9.67-12.44,14.69-1.74,2.17-3.33,4.45-5,6.67a14.34,14.34,0,0,1-4.23,3.79A1.82,1.82,0,0,1,19,39.7a2,2,0,0,1-1.35-.38,13.16,13.16,0,0,1-3.55-3.14c-1.8-2.22-3.58-4.46-5.39-6.67a2.74,2.74,0,0,1-.57-2.34,1.75,1.75,0,0,1,1.1-1.45,1.65,1.65,0,0,1,1.84.5,52.89,52.89,0,0,1,3.65,4.4c1.18,1.55,2.33,3.12,3.49,4.68s1.32,1.57,2.45-.13c2.76-4.17,5.47-8.37,8.46-12.39A79.12,79.12,0,0,1,39.33,11.51,1.76,1.76,0,0,1,42,11.36,1.88,1.88,0,0,1,41.88,14.21Z"/>
</svg>