<svg id="Vrstva_1" data-name="Vrstva 1" xmlns="http://www.w3.org/2000/svg" viewBox="0 0 50 50"><defs><style>.cls-1{fill:#5b5b5b;}</style></defs><path class="cls-1" d="M39.85,40.41a3.63,3.63,0,0,1-2.33-.74c-4.26-3.16-8.28-6.6-12.38-10-.62-.5-.94-.55-1.52.06C20.54,33,17.2,36,14.2,39.28c-.7.78-1.72.74-2.7,1.08a3.4,3.4,0,0,1,1-2.93c2.89-3,5.72-6.1,8.62-9.11.71-.73.85-1.12,0-1.87C18,23.8,15,21.06,11.89,18.34a2.64,2.64,0,0,1-.83-3.6c.59-1.33,1.27-1.54,2.38-.62,1.56,1.3,3.07,2.66,4.6,4,2.06,1.81,4.14,3.61,6.18,5.45.6.55.93.53,1.51-.06,3-3.09,6.05-6.12,9.09-9.17,1.84-1.84,2.35-1.74,3.46.61.56,1.18.37,1.91-.79,2.92-3,2.59-5.92,5.2-8.92,7.75-.8.69-.94,1.08-.05,1.88,3.31,3,6.55,6.05,9.8,9.1a5.45,5.45,0,0,1,2.09,3.1C40.49,40.21,40.41,40.39,39.85,40.41Z"/></svg>