<svg id="Vrstva_1" data-name="Vrstva 1" xmlns="http://www.w3.org/2000/svg" viewBox="0 0 50 50">
    <defs>
        <style>
            :root.dark{
            --cls-1-color:#99e7b1;
            --cls-2-color:#D8D8D8;
            --cls-3-color:#D8D8D880;
            --cls-4-color:#99e7b180;
            --cls-5-color:#D8D8D8;
            }
            :root{
            --cls-1-color:#040605;
            --cls-2-color:#2c2c2c;
            --cls-3-color:#fcfcfc;
            --cls-4-color:#99e7b1;
            --cls-5-color:#898989;
            }
            .cls-1{fill:var(--cls-1-color);}
            .cls-2{fill:var(--cls-2-color);}
            .cls-3{fill:var(--cls-3-color);}
            .cls-4{fill:var(--cls-4-color);}
            .cls-5{fill:var(--cls-5-color);}
        </style>
    </defs>
    <path class="cls-1"
          d="M40.51,26.49c-.21,0-.41,0-.62,0l-1.45,0-2.71,0H34.59a16.52,16.52,0,0,0-2.23.07c-1.64.27-2.66,1.46-3,3.35,0,.68,0,1.35,0,2,0,1.28,0,2.56,0,3.84,0,.52,0,1,0,1.56v.92a3.74,3.74,0,0,0,2,3.47c.26.14.6.14.8.39h9.9A4.45,4.45,0,0,0,45,39.47V29.27A3.93,3.93,0,0,0,40.51,26.49ZM43.77,38.6a2.32,2.32,0,0,1-2.51,2.29H33.15a2.4,2.4,0,0,1-2.56-2.49c0-2.73,0-5.47,0-8.2a2.38,2.38,0,0,1,2.54-2.5h8.19A2.27,2.27,0,0,1,43.77,30C43.84,32.84,43.83,35.72,43.77,38.6Z"/>
    <path class="cls-2"
          d="M39.26,13a6.46,6.46,0,0,0-6.62-5.58c-1.57.07-3.14,0-4.71,0A72.79,72.79,0,0,0,17,7.47c-2.17.29-4.14.89-5.1,3.15a3.6,3.6,0,0,1-.45.62c-.11.15-.21.28-.44.22-1.38-.37-2.45.37-3.49,1a2.18,2.18,0,0,0-1,2.69,6.66,6.66,0,0,1,0,4.23,1.77,1.77,0,0,0,.65,2.18c.17.1.3.23.14.43-.6.79-.57,1.8-.93,2.67-.27.64-.21,1.05.49,1.35s.7.73.25,1.29a3,3,0,0,0-.7,1.26,4,4,0,0,0,4.26,5,1.06,1.06,0,0,1,1.18.6,5.89,5.89,0,0,0,4.51,3,31.76,31.76,0,0,0,5.16.09c2.6,0,5.2-.11,7.8.06,0-.52,0-1,0-1.56-1.47,0-2.93,0-4.39,0-2.16.09-4.31.3-6.47.39a6.16,6.16,0,0,1-5.37-2.33,1.15,1.15,0,0,1,0-1.75,3.26,3.26,0,0,0,.54-3.54,2.44,2.44,0,0,1,.08-2.06,3.48,3.48,0,0,0-.07-3.26,1.18,1.18,0,0,1,.11-1.47,2.73,2.73,0,0,0,.25-3.37,1.9,1.9,0,0,1-.14-2,3.18,3.18,0,0,0-.67-3.63c-.81-.94-.82-1.36.19-2.15a8.77,8.77,0,0,1,5.94-1.93c3.23.13,6.48,0,9.72-.11a30.44,30.44,0,0,1,4.16.07,4.83,4.83,0,0,1,4,3,14.18,14.18,0,0,1,1.11,5.71c.11,3,.07,6.07,0,9.11l1.45,0c0-.36,0-.72,0-1.07A51.9,51.9,0,0,0,39.26,13Zm-28.93-.1c.31.05.37.23.39.47s0,.62,0,.92h0v.69c0,.58-.24.86-.87.74a1.51,1.51,0,0,0-.76,0c-.75.25-1-.16-1-.78A1.93,1.93,0,0,1,10.33,12.86Zm.08,4.53c-.35.29-.65.1-1-.1.34-.18.64-.43,1-.17C10.52,17.18,10.48,17.32,10.41,17.39ZM8.26,18.81c.4-.37,2,0,2.1.42s.28,1-.37,1.24a7.7,7.7,0,0,0-1.51.46C8.52,20.12,7.49,19.51,8.26,18.81Zm.64,4.05a1.94,1.94,0,0,1,1.68,1.8c0,.27.2.66-.05.8A6.65,6.65,0,0,1,9,26c-.26.07-1.1-1.22-1.11-1.65C7.91,23.73,8.47,22.88,8.9,22.86Zm1.47,9.39A1.93,1.93,0,0,1,8,30.59c0-.28,0-.57,0-.85,0-1.52.08-1.62,1.54-1.22,1,.26,1.2.58,1.21,1.6a4.11,4.11,0,0,0,.13,1.3C11.06,31.88,10.83,32.13,10.37,32.25Zm1.74-1.31A4.7,4.7,0,0,1,12,28.63c0-.16.07-.3.27-.3s.25.14.31.29A2.27,2.27,0,0,1,12.11,30.94Zm-.17-7.77c.8.68.92,1.84.3,3.2C11.75,25.25,12.07,24.19,11.94,23.17Zm.93-2.47c-.15.26-.34.49-.66.4s-.16-.39-.18-.6,0-.36,0-.54h0v-.08c0-.47-.24-1.23.51-1.21s.48.83.59,1.32C13.18,20.24,13,20.47,12.87,20.7ZM12.81,16c-.11.21-.21.44-.5.36a.55.55,0,0,1-.41-.5,3.88,3.88,0,0,1,.36-2.22A1.78,1.78,0,0,1,12.81,16Z"/>
    <path class="cls-3"
          d="M38.4,17.35a14.18,14.18,0,0,0-1.11-5.71,4.83,4.83,0,0,0-4-3,30.44,30.44,0,0,0-4.16-.07c-3.24.08-6.49.24-9.72.11a8.77,8.77,0,0,0-5.94,1.93c-1,.79-1,1.21-.19,2.15a3.18,3.18,0,0,1,.67,3.63,1.9,1.9,0,0,0,.14,2,2.73,2.73,0,0,1-.25,3.37,1.18,1.18,0,0,0-.11,1.47,3.48,3.48,0,0,1,.07,3.26,2.44,2.44,0,0,0-.08,2.06,3.26,3.26,0,0,1-.54,3.54,1.15,1.15,0,0,0,0,1.75,6.16,6.16,0,0,0,5.37,2.33c2.16-.09,4.31-.3,6.47-.39,1.46-.06,2.92,0,4.39,0,0-1.28,0-2.56,0-3.84a4,4,0,0,1-1-.7,1.21,1.21,0,0,1-.45-1.42A7.73,7.73,0,0,0,28,27.65v-1c.06-2.46.66-3,3.1-2.95.51,0,1,0,1.54,0,2.26,0,2.86.53,3.12,2.77l2.71,0C38.47,23.42,38.51,20.38,38.4,17.35Zm-22.18-1.5a1.35,1.35,0,0,1,.92-1.14,4.75,4.75,0,0,1,2-.37,35.29,35.29,0,0,1,5.63.1,1.67,1.67,0,0,1,1.63,2.19,10.48,10.48,0,0,0-.06,2.24c.07,1.1-.36,1.56-1.47,1.59s-2,0-3.16,0a24.59,24.59,0,0,1-3.56-.13c-1.54-.32-2-.84-2-2.4C16.09,17.23,16.17,16.54,16.22,15.85ZM26.46,26.72a20.59,20.59,0,0,0,0,2.08c0,1.08-.39,1.51-1.47,1.55s-2.16,0-3.24,0h0c-1.09,0-2.17,0-3.25,0a2.76,2.76,0,0,1-1.77-.67c-.56-.49-.71-4-.2-4.54A2.2,2.2,0,0,1,18,24.48a28.46,28.46,0,0,1,6.84,0C26.2,24.69,26.6,25.33,26.46,26.72Zm9.38-7.56A1.7,1.7,0,0,1,34.05,21c-1.54,0-3.08-.05-4.62-.1a1.21,1.21,0,0,1-1.18-1,7.11,7.11,0,0,1-.3-2c0-1,0-2.06.07-3.09a2.17,2.17,0,0,1,2.13-2.25,18.3,18.3,0,0,1,3.7,0,1.85,1.85,0,0,1,1.74,1.58c.25,1,.06,2,.25,3Z"/>
    <path class="cls-4"
          d="M43.77,30a2.27,2.27,0,0,0-2.45-2.24H33.13a2.38,2.38,0,0,0-2.54,2.5c0,2.73,0,5.47,0,8.2a2.4,2.4,0,0,0,2.56,2.49h8.11a2.32,2.32,0,0,0,2.51-2.29C43.83,35.72,43.84,32.84,43.77,30Zm-3.71,5A7.77,7.77,0,0,1,39,35c-.72-.12-.88.21-.81.85a10.73,10.73,0,0,1,0,1.39.85.85,0,1,1-1.7,0c0-.59,0-1.19,0-1.78,0-.37-.11-.49-.48-.48-.57,0-1.13,0-1.7,0s-.9-.26-.91-.82a.8.8,0,0,1,.87-.87,17.42,17.42,0,0,1,1.77,0c.34,0,.46-.1.44-.44s0-1,0-1.47a.79.79,0,0,1,.82-.9c.57,0,.83.31.88.85s-.28,1.47.14,1.84,1.17.08,1.78.11.94.32.91.92S40.61,35,40.06,35Z"/>
    <path class="cls-2"
          d="M29.35,31.92a4,4,0,0,1-1-.7,1.21,1.21,0,0,1-.45-1.42A7.73,7.73,0,0,0,28,27.65v-1c.06-2.46.66-3,3.1-2.95.51,0,1,0,1.54,0,2.26,0,2.86.53,3.12,2.77H34.59c-.28-1.21-.68-1.54-1.91-1.55-.67,0-1.34,0-2,0s-1.31.33-1.39,1a11.11,11.11,0,0,0,.08,3.94Z"/>
    <path class="cls-3"
          d="M29.37,29.89A11.11,11.11,0,0,1,29.29,26c.08-.67.71-1,1.39-1s1.33,0,2,0c1.23,0,1.63.34,1.91,1.55a16.52,16.52,0,0,0-2.23.07C30.72,26.81,29.7,28,29.37,29.89Z"/>
    <path class="cls-3"
          d="M12.26,13.67A1.78,1.78,0,0,1,12.81,16c-.11.21-.21.44-.5.36a.55.55,0,0,1-.41-.5A3.88,3.88,0,0,1,12.26,13.67Z"/>
    <path class="cls-3"
          d="M12,20v-.08c0-.47-.24-1.23.51-1.21s.48.83.59,1.32c.06.25-.12.48-.25.71s-.34.49-.66.4-.16-.39-.18-.6,0-.36,0-.54Z"/>
    <path class="cls-3" d="M12.24,26.37c-.49-1.12-.17-2.18-.3-3.2C12.74,23.85,12.86,25,12.24,26.37Z"/>
    <path class="cls-3"
          d="M12.11,30.94A4.7,4.7,0,0,1,12,28.63c0-.16.07-.3.27-.3s.25.14.31.29A2.27,2.27,0,0,1,12.11,30.94Z"/>
    <path class="cls-5"
          d="M21.67,20.46a24.59,24.59,0,0,1-3.56-.13c-1.54-.32-2-.84-2-2.4,0-.7.07-1.39.12-2.08a1.35,1.35,0,0,1,.92-1.14,4.75,4.75,0,0,1,2-.37,35.29,35.29,0,0,1,5.63.1,1.67,1.67,0,0,1,1.63,2.19,10.48,10.48,0,0,0-.06,2.24c.07,1.1-.36,1.56-1.47,1.59S22.87,20.46,21.67,20.46Z"/>
    <path class="cls-5"
          d="M21.74,30.37c-1.09,0-2.17,0-3.25,0a2.76,2.76,0,0,1-1.77-.67c-.56-.49-.71-4-.2-4.54A2.2,2.2,0,0,1,18,24.48a28.46,28.46,0,0,1,6.84,0c1.41.21,1.81.85,1.67,2.24a20.59,20.59,0,0,0,0,2.08c0,1.08-.39,1.51-1.47,1.55s-2.16,0-3.24,0Z"/>
    <path class="cls-2"
          d="M35.59,14.16a1.85,1.85,0,0,0-1.74-1.58,18.3,18.3,0,0,0-3.7,0A2.17,2.17,0,0,0,28,14.85c-.05,1-.06,2.06-.07,3.09a7.11,7.11,0,0,0,.3,2,1.21,1.21,0,0,0,1.18,1c1.54,0,3.08.11,4.62.1a1.7,1.7,0,0,0,1.79-1.88v-2C35.65,16.17,35.84,15.15,35.59,14.16ZM34.49,17h0c0,.59,0,1.18,0,1.77,0,.85-.29,1.11-1.11,1.11s-1.65,0-2.47,0a1.59,1.59,0,0,1-1.73-1.66c0-1,0-1.95.05-2.92a1.35,1.35,0,0,1,1.39-1.44,20.82,20.82,0,0,1,2.62,0,1.26,1.26,0,0,1,1.28,1.36C34.51,15.78,34.49,16.37,34.49,17Z"/>
    <path class="cls-1"
          d="M37.33,38.1a.84.84,0,0,1-.85-.86c0-.59,0-1.19,0-1.78,0-.37-.11-.49-.48-.48-.57,0-1.13,0-1.7,0s-.9-.26-.91-.82a.8.8,0,0,1,.87-.87,17.42,17.42,0,0,1,1.77,0c.34,0,.46-.1.44-.44s0-1,0-1.47a.79.79,0,0,1,.82-.9c.57,0,.83.31.88.85s-.28,1.47.14,1.84,1.17.08,1.78.11.94.32.91.92-.4.8-.95.78A7.77,7.77,0,0,1,39,35c-.72-.12-.88.21-.81.85a10.73,10.73,0,0,1,0,1.39A.85.85,0,0,1,37.33,38.1Z"/>
    <path class="cls-3"
          d="M34.47,17c0,.59,0,1.18,0,1.77,0,.85-.29,1.11-1.11,1.11s-1.65,0-2.47,0a1.59,1.59,0,0,1-1.73-1.66c0-1,0-1.95.05-2.92a1.35,1.35,0,0,1,1.39-1.44,20.82,20.82,0,0,1,2.62,0,1.26,1.26,0,0,1,1.28,1.36c0,.59,0,1.18,0,1.77Z"/>
</svg>